<?xml version="1.0" encoding="utf-8"?>
<!-- Generator: Adobe Illustrator 16.2.0, SVG Export Plug-In . SVG Version: 6.00 Build 0)  -->
<!DOCTYPE svg PUBLIC "-//W3C//DTD SVG 1.1//EN" "http://www.w3.org/Graphics/SVG/1.1/DTD/svg11.dtd">
<svg version="1.1" id="Layer_1" xmlns="http://www.w3.org/2000/svg" xmlns:xlink="http://www.w3.org/1999/xlink" x="0px" y="0px"
	 width="729px" height="369px" viewBox="0 0 729 369" enable-background="new 0 0 729 369" xml:space="preserve">
<rect fill="#89C4E4" width="729" height="369"/>
<path fill="#C6D4E2" d="M490.2,262.16v16.143c0,0,0,16.143-16.144,16.143s-419.742,0-419.742,0s-16.145,0-16.145-16.143
	s0-16.143,0-16.143H490.2z"/>
<path fill="#3F4144" d="M38.17,262.16V28.072c0,0,0-8.072,8.072-8.072s435.886,0,435.886,0s8.072,0,8.072,8.072s0,234.088,0,234.088
	H38.17z"/>
<g>
	<path fill="#FFFFFF" d="M54.314,246.016V45.112c0-4.932,4.035-8.968,8.969-8.968h401.804c4.934,0,8.97,4.036,8.97,8.968v200.903"/>
</g>
<rect x="248.042" y="294.445" fill="#C6D4E2" width="32.288" height="24.217"/>
<path fill="#C6D4E2" d="M248.042,294.445c0,0,0,33.902-16.144,33.902c-16.144,0-32.288,0-32.288,0s-8.072,0-8.072,11.305
	c0,11.299,8.072,11.299,8.072,11.299h32.288h64.575h32.288c0,0,8.072,0,8.072-11.299c0-11.305-8.072-11.305-8.072-11.305
	s-16.144,0-32.288,0c-16.143,0-16.143-33.902-16.143-33.902"/>
<g>
	<path fill="#A1C9EB" d="M465.985,67.535c0,4.933-4.037,8.968-8.971,8.968H71.355c-4.933,0-8.969-4.036-8.969-8.968v-14.35
		c0-4.933,4.036-8.97,8.969-8.97h385.66c4.934,0,8.971,4.037,8.971,8.97V67.535z"/>
</g>
<g>
	<path fill="#C3D8E5" d="M207.681,148.254c0,4.933-4.036,8.969-8.968,8.969H71.355c-4.933,0-8.969-4.036-8.969-8.969v-54.71
		c0-4.932,4.036-8.968,8.969-8.968h127.358c4.933,0,8.968,4.036,8.968,8.968V148.254z"/>
</g>
<g>
	<path fill="#D1D3D4" d="M207.681,169.331c0,2.22-2.421,4.036-5.381,4.036H67.768c-2.959,0-5.381-1.816-5.381-4.036
		c0-2.219,2.422-4.036,5.381-4.036H202.3C205.26,165.295,207.681,167.112,207.681,169.331z"/>
</g>
<g>
	<path fill="#D1D3D4" d="M207.681,185.475c0,2.219-2.421,4.038-5.381,4.038H67.768c-2.959,0-5.381-1.819-5.381-4.038
		s2.422-4.035,5.381-4.035H202.3C205.26,181.44,207.681,183.256,207.681,185.475z"/>
</g>
<g>
	<path fill="#D1D3D4" d="M207.681,201.617c0,2.223-2.421,4.037-5.381,4.037H67.768c-2.959,0-5.381-1.814-5.381-4.037
		c0-2.219,2.422-4.033,5.381-4.033H202.3C205.26,197.584,207.681,199.398,207.681,201.617z"/>
</g>
<g>
	<path fill="#D1D3D4" d="M151.178,217.764c0,2.219-2.422,4.035-5.381,4.035H67.768c-2.959,0-5.381-1.816-5.381-4.035
		s2.422-4.037,5.381-4.037h78.029C148.756,213.727,151.178,215.545,151.178,217.764z"/>
</g>
<line fill="none" stroke="#D1D3D4" stroke-width="3" stroke-miterlimit="10" x1="215.754" y1="84.576" x2="215.754" y2="237.943"/>
<g>
	<path fill="#A6BCC9" d="M280.33,176.059c0,2.959-2.422,5.381-5.382,5.381h-45.741c-2.959,0-5.382-2.422-5.382-5.381V89.958
		c0-2.96,2.422-5.381,5.382-5.381h45.741c2.959,0,5.382,2.421,5.382,5.381V176.059z"/>
</g>
<g>
	<path fill="#BEDDEE" d="M401.409,127.626c0,2.959-2.422,5.381-5.382,5.381H293.782c-2.959,0-5.381-2.421-5.381-5.381V89.958
		c0-2.96,2.422-5.381,5.381-5.381h102.245c2.96,0,5.382,2.421,5.382,5.381V127.626z"/>
</g>
<g>
	<path fill="#D9E6ED" d="M336.833,151.842c0,2.959,2.422,5.382,5.382,5.382h53.813c2.96,0,5.382-2.422,5.382-5.382v-5.381
		c0-2.959-2.422-5.381-5.382-5.381h-53.813c-2.96,0-5.382,2.421-5.382,5.381V151.842z"/>
</g>
<g>
	<path fill="#BEDDEE" d="M328.761,208.346c0,2.961-2.421,5.381-5.381,5.381h-94.173c-2.959,0-5.382-2.42-5.382-5.381v-13.453
		c0-2.961,2.422-5.38,5.382-5.38h94.173c2.959,0,5.381,2.419,5.381,5.38V208.346z"/>
</g>
<g>
	<path fill="#C0D6E2" d="M328.761,176.059c0,2.959-2.421,5.381-5.381,5.381h-29.598c-2.959,0-5.381-2.422-5.381-5.381v-29.598
		c0-2.959,2.422-5.381,5.381-5.381h29.598c2.959,0,5.381,2.421,5.381,5.381V176.059z"/>
</g>
<g>
	<path fill="#A7C8DB" d="M272.257,232.563c0,2.957-2.421,5.381-5.381,5.381h-37.669c-2.959,0-5.382-2.424-5.382-5.381v-5.381
		c0-2.961,2.422-5.383,5.382-5.383h37.669c2.96,0,5.381,2.422,5.381,5.383V232.563z"/>
</g>
<g>
	<path fill="#C3D8E5" d="M352.977,232.563c0,2.957-2.422,5.381-5.382,5.381H285.71c-2.959,0-5.381-2.424-5.381-5.381v-5.381
		c0-2.961,2.421-5.383,5.381-5.383h61.885c2.959,0,5.382,2.422,5.382,5.383V232.563z"/>
</g>
<g>
	<path fill="#89C4E4" d="M401.409,208.346c0,2.961-2.422,5.381-5.382,5.381h-53.813c-2.96,0-5.382-2.42-5.382-5.381v-37.669
		c0-2.959,2.422-5.381,5.382-5.381h53.813c2.96,0,5.382,2.422,5.382,5.381V208.346z"/>
</g>
<g>
	<path fill="#AABBC1" d="M401.409,232.563c0,2.957-2.422,5.381-5.382,5.381h-29.597c-2.96,0-5.381-2.424-5.381-5.381v-5.381
		c0-2.961,2.421-5.383,5.381-5.383h29.597c2.96,0,5.382,2.422,5.382,5.383V232.563z"/>
</g>
<line fill="none" stroke="#D1D3D4" stroke-width="3" stroke-miterlimit="10" x1="409.48" y1="84.576" x2="409.48" y2="237.943"/>
<g>
	<path fill="#D1D3D4" d="M465.985,88.612c0,2.219-2.423,4.036-5.381,4.036h-37.67c-2.96,0-5.382-1.816-5.382-4.036
		c0-2.221,2.422-4.036,5.382-4.036h37.67C463.563,84.576,465.985,86.391,465.985,88.612z"/>
</g>
<g>
	<path fill="#D1D3D4" d="M441.769,104.756c0,2.219-2.422,4.036-5.381,4.036h-13.453c-2.96,0-5.382-1.816-5.382-4.036
		c0-2.221,2.422-4.037,5.382-4.037h13.453C439.347,100.719,441.769,102.536,441.769,104.756z"/>
</g>
<g>
	<path fill="#D1D3D4" d="M465.985,137.043c0,2.221-2.423,4.037-5.381,4.037h-37.67c-2.96,0-5.382-1.816-5.382-4.037
		c0-2.219,2.422-4.036,5.382-4.036h37.67C463.563,133.007,465.985,134.824,465.985,137.043z"/>
</g>
<g>
	<path fill="#D1D3D4" d="M465.985,153.188c0,2.22-2.423,4.036-5.381,4.036h-37.67c-2.96,0-5.382-1.816-5.382-4.036
		c0-2.22,2.422-4.036,5.382-4.036h37.67C463.563,149.151,465.985,150.968,465.985,153.188z"/>
</g>
<g>
	<path fill="#D1D3D4" d="M465.985,185.475c0,2.219-2.423,4.038-5.381,4.038h-37.67c-2.96,0-5.382-1.819-5.382-4.038
		s2.422-4.035,5.382-4.035h37.67C463.563,181.44,465.985,183.256,465.985,185.475z"/>
</g>
<g>
	<path fill="#D1D3D4" d="M465.985,169.331c0,2.22-2.423,4.036-5.381,4.036h-21.526c-2.96,0-7.804,0-10.762,0h-5.382
		c-2.96,0-5.382-1.816-5.382-4.036c0-2.219,2.422-4.036,5.382-4.036h37.67C463.563,165.295,465.985,167.112,465.985,169.331z"/>
</g>
<g>
	<path fill="#D9E6ED" d="M441.769,219.107c0-2.957,2.422-5.381,5.381-5.381h13.455c2.958,0,5.381,2.424,5.381,5.381v13.455
		c0,2.957-2.423,5.381-5.381,5.381h-13.455c-2.959,0-5.381-2.424-5.381-5.381V219.107z"/>
</g>
<g>
	<path fill="#3F4144" d="M692,333.014c0,9.865-8.071,17.938-17.938,17.938H540.427c-9.867,0-17.939-8.072-17.939-17.938V37.938
		c0-9.866,8.072-17.938,17.939-17.938h36.771c9.866,0,26.009,0,35.875,0h60.988C683.929,20,692,28.072,692,37.938V333.014z"/>
</g>
<g>
	<path fill="#FFFFFF" d="M683.929,315.076c0,1.973-1.615,3.586-3.588,3.586H534.149c-1.975,0-3.59-1.613-3.59-3.586V55.875
		c0-1.973,1.615-3.587,3.59-3.587h146.191c1.973,0,3.588,1.614,3.588,3.587V315.076z"/>
</g>
<g>
	<path fill="#A1C9EB" d="M675.856,83.68c0,4.933-4.036,8.968-8.97,8.968H547.601c-4.934,0-8.967-4.036-8.967-8.968V69.329
		c0-4.934,4.033-8.969,8.967-8.969h119.286c4.934,0,8.97,4.036,8.97,8.969V83.68z"/>
</g>
<g>
	<path fill="#C3D8E5" d="M675.856,148.254c0,4.933-4.036,8.969-8.97,8.969H547.601c-4.934,0-8.967-4.036-8.967-8.969v-38.565
		c0-4.933,4.033-8.97,8.967-8.97h119.286c4.934,0,8.97,4.037,8.97,8.97V148.254z"/>
</g>
<g>
	<path fill="#D1D3D4" d="M675.856,169.331c0,2.22-2.422,4.036-5.383,4.036h-126.46c-2.961,0-5.38-1.816-5.38-4.036
		c0-2.219,2.419-4.036,5.38-4.036h126.46C673.435,165.295,675.856,167.112,675.856,169.331z"/>
</g>
<g>
	<path fill="#D1D3D4" d="M675.856,185.475c0,2.219-2.422,4.038-5.383,4.038h-126.46c-2.961,0-5.38-1.819-5.38-4.038
		s2.419-4.035,5.38-4.035h126.46C673.435,181.44,675.856,183.256,675.856,185.475z"/>
</g>
<g>
	<path fill="#D1D3D4" d="M675.856,201.617c0,2.223-2.422,4.037-5.383,4.037h-126.46c-2.961,0-5.38-1.814-5.38-4.037
		c0-2.219,2.419-4.033,5.38-4.033h126.46C673.435,197.584,675.856,199.398,675.856,201.617z"/>
</g>
<g>
	<path fill="#D1D3D4" d="M627.423,217.764c0,2.219-2.42,4.035-5.38,4.035h-78.029c-2.961,0-5.38-1.816-5.38-4.035
		s2.419-4.037,5.38-4.037h78.029C625.003,213.727,627.423,215.545,627.423,217.764z"/>
</g>
<line fill="none" stroke="#D1D3D4" stroke-width="3" stroke-miterlimit="10" x1="538.634" y1="229.871" x2="675.856" y2="229.871"/>
<g>
	<path fill="#A6BCC9" d="M582.295,307.41c0,2.959-2.423,5.383-5.382,5.383h-32.899c-2.961,0-5.38-2.424-5.38-5.383v-64.086
		c0-2.959,2.419-5.381,5.38-5.381h32.899c2.959,0,5.382,2.422,5.382,5.381V307.41z"/>
</g>
<g>
	<path fill="#BEDDEE" d="M675.856,269.988c0,2.957-2.422,5.381-5.383,5.381h-76.561c-2.959,0-5.382-2.424-5.382-5.381v-26.664
		c0-2.959,2.423-5.381,5.382-5.381h76.561c2.961,0,5.383,2.422,5.383,5.381V269.988z"/>
</g>
<g>
	<path fill="#D9E6ED" d="M625.956,288.699c0,2.959,2.422,5.383,5.381,5.383h39.137c2.961,0,5.383-2.424,5.383-5.383v-1.715
		c0-2.955-2.422-5.379-5.383-5.379h-39.137c-2.959,0-5.381,2.424-5.381,5.379V288.699z"/>
</g>
<g>
	<path fill="#C0D6E2" d="M619.72,307.41c0,2.959-2.423,5.383-5.381,5.383h-20.426c-2.959,0-5.382-2.424-5.382-5.383v-20.426
		c0-2.955,2.423-5.379,5.382-5.379h20.426c2.958,0,5.381,2.424,5.381,5.379V307.41z"/>
</g>
<g>
	<path fill="#89C4E4" d="M675.856,308.145c0,2.961-2.422,5.381-5.383,5.381h-39.137c-2.959,0-5.381-2.42-5.381-5.381v-2.447
		c0-2.959,2.422-5.381,5.381-5.381h39.137c2.961,0,5.383,2.422,5.383,5.381V308.145z"/>
</g>
<g>
	<g>
		<path d="M595.136,38.386c13.453,0,26.907,0,40.359,0c2.894,0,2.894-4.484,0-4.484c-13.452,0-26.906,0-40.359,0
			C592.245,33.902,592.245,38.386,595.136,38.386L595.136,38.386z"/>
	</g>
</g>
<g>
	<g>
		<path d="M587.064,38.386c2.892,0,2.892-4.484,0-4.484S584.173,38.386,587.064,38.386L587.064,38.386z"/>
	</g>
</g>
<g>
	<g>
		<path d="M617.108,334.809c-0.402,7.514-11.254,7.514-11.658,0C605.045,327.287,616.708,327.328,617.108,334.809
			c0.156,2.874,4.641,2.889,4.485,0c-0.315-5.834-4.482-10.002-10.313-10.314c-5.82-0.314-10.025,4.953-10.313,10.314
			c-0.313,5.818,4.953,10.023,10.313,10.311c5.818,0.316,10.025-4.953,10.313-10.311
			C621.749,331.916,617.265,331.932,617.108,334.809z"/>
	</g>
</g>
<g>
	<g>
		<path d="M264.186,30.314c2.892,0,2.892-4.485,0-4.485C261.293,25.829,261.293,30.314,264.186,30.314L264.186,30.314z"/>
	</g>
</g>
</svg>
