<?xml version="1.0" encoding="utf-8"?>
<!-- Generator: Adobe Illustrator 16.2.0, SVG Export Plug-In . SVG Version: 6.00 Build 0)  -->
<!DOCTYPE svg PUBLIC "-//W3C//DTD SVG 1.1//EN" "http://www.w3.org/Graphics/SVG/1.1/DTD/svg11.dtd">
<svg version="1.1" xmlns="http://www.w3.org/2000/svg" xmlns:xlink="http://www.w3.org/1999/xlink" x="0px" y="0px" width="500px"
	 height="500px" viewBox="0 0 500 500" enable-background="new 0 0 500 500" xml:space="preserve">
<g id="BACKGROUND">
	<image overflow="visible" width="500" height="500" xlink:href="4163C924.png" >
	</image>
	<image overflow="visible" opacity="0.2" width="500" height="500" xlink:href="4163C927.png" >
	</image>
</g>
<g id="OBJECTS">
	<rect fill="#C6E2F7" width="500" height="500"/>
	<path fill="#A1C9EB" d="M239.471,269.082c39.46,28.916,86.294,32.066,104.62,7.066c18.321-25,1.183-68.705-38.275-97.621
		c-39.455-28.898-86.288-32.067-104.615-7.065C182.881,196.465,200.016,240.17,239.471,269.082z"/>
	<g opacity="0.1">
		<g>
			<path d="M718.03,277.472c-7.501-37.436-23.474-71.701-49.788-95.11c15.262,20.976,25.267,46.646,30.748,74.007
				c5.083,24.406,2.536,61.411-12.287,83.656c-16.179,24.282-34.146,40.736-59.181,42.013c-33.907,1.728-70.54,5.731-98.985-16.406
				c0.472,0.729,0.93,1.469,1.422,2.187c29.661,42.952,75.166,37.434,116.604,35.321c25.035-1.277,43.001-17.73,59.18-42.013
				C720.566,338.882,723.112,301.877,718.03,277.472z"/>
		</g>
	</g>
	<path fill="#A1C9EB" d="M128.694,274.184l-40.604-8.787l-15.673-46.096l25.448-31.249c0,0,8.839,7.543,12.222-2.245l-0.155-0.129
		L77.385,160.13l22.171-33.643l39.203,26.413c8.468-4.432,18.227-7.25,28.899-8.492l-13.087-27.683l28.541-37.191l42.911,71.47
		c13.398,4.122,27.091,9.948,40.625,17.486l19.061-23.284l48.525,36.425l-15.327,26.217c11.498,11.451,21.199,23.584,28.925,35.892
		l1.783,1.015l76.693,21.452l-35.722,43.451l-22.235-11.986c1.404,11.829,0.443,23.035-3.101,33.1l32.018,29.482l-30.536,26.238
		l-30.853-22.719c-8.295,4.194,7.354,13.927,4.565,16.699l-29.734,28.283l-44.7-3.953l-21.629-41.207
		c-11.187-3.789-22.54-8.758-33.793-14.896l-23.706,22.369l-47.328-35.787l11.508-32.551
		C142.43,293.506,134.948,283.902,128.694,274.184z"/>
	<path opacity="0.2" d="M128.693,274.86l-40.604-8.786l-15.673-46.093l25.448-31.249c0,0,8.838,7.543,12.222-2.245l-0.155-0.129
		l-32.546-25.547l22.171-33.644l39.203,26.413c8.468-4.432,18.227-7.25,28.898-8.492l-13.087-27.682l28.541-37.193l42.912,71.472
		c13.398,4.121,27.09,9.947,40.624,17.485l19.062-23.283l48.525,36.424l-15.327,26.217c11.498,11.452,21.199,23.584,28.924,35.889
		l1.783,1.015l76.693,21.453l-35.721,43.451L368.35,298.35c1.405,11.828,0.444,23.035-3.1,33.1l32.017,29.482l-30.535,26.236
		l-30.854-22.719c-8.294,4.195,7.354,13.928,4.566,16.701l-29.734,28.283l-44.7-3.953l-21.629-41.209
		c-11.187-3.789-22.54-8.756-33.793-14.896l-23.706,22.37l-47.328-35.788l11.508-32.55
		C142.429,294.184,134.948,284.58,128.693,274.86z"/>
	<path fill="#A1C9EB" d="M153.724,244.496l-40.604-8.788l-15.255-47.345l34.02,0.144l0.174-0.285
		c-1.278-11.455-0.327-22.311,3.054-32.099l-0.151-0.127l-35.404-29.198l18.437-29.462l45.795,25.882
		c8.469-4.433,18.227-7.252,28.898-8.491l-9.657-34.306l47.757,2.232l20.267,38.668c13.397,4.123,27.089,9.948,40.621,17.486
		l19.062-23.282l48.524,36.424l-15.324,26.217c11.498,11.45,21.2,23.584,28.924,35.889l1.782,1.017l36.569,6.077l14.743,45.947
		l-32.577,0.893c1.407,11.828,0.444,23.035-3.102,33.098l32.021,29.484l-25.029,29.994l-36.359-26.477
		c-8.293,4.195-17.801,6.861-28.151,8.063l8.304,37.83l-50.021-4.863l-21.629-41.205c-11.187-3.791-22.539-8.76-33.794-14.896
		l-23.703,22.368l-47.33-35.789l11.511-32.551C167.461,263.822,159.98,254.219,153.724,244.496z"/>
	<path opacity="0.2" d="M239.471,269.76c39.46,28.916,86.294,32.066,104.62,7.066c18.32-25.002,1.182-68.702-38.275-97.617
		c-39.456-28.899-86.288-32.067-104.615-7.066C182.881,197.146,200.016,240.849,239.471,269.76z"/>
	<path fill="#A1C9EB" d="M207.492,236.258l29.345-36.306l69.67,44.187l-34.287,42.582c-13.533-3.813-25.823-12.587-39.048-22.281
		C222.318,256.486,214.694,245.751,207.492,236.258z"/>
	<path opacity="0.1" d="M207.491,237.066l29.345-36.306l69.67,44.186l-34.288,42.583c-13.533-3.814-25.822-12.588-39.048-22.281
		C222.317,257.294,214.693,246.559,207.491,237.066z"/>
	<path fill="#A1C9EB" d="M254.872,245.967c18.603,13.633,40.676,15.117,49.315,3.333c8.634-11.787,0.554-32.39-18.042-46.017
		c-18.599-13.624-40.672-15.113-49.309-3.331C228.203,211.743,236.278,232.339,254.872,245.967z"/>
</g>
<g id="DESIGNED_BY_FREEPIK">
</g>
</svg>
