<?xml version="1.0" encoding="utf-8"?>
<!-- Generator: Adobe Illustrator 16.2.0, SVG Export Plug-In . SVG Version: 6.00 Build 0)  -->
<!DOCTYPE svg PUBLIC "-//W3C//DTD SVG 1.1//EN" "http://www.w3.org/Graphics/SVG/1.1/DTD/svg11.dtd">
<svg version="1.1" xmlns="http://www.w3.org/2000/svg" xmlns:xlink="http://www.w3.org/1999/xlink" x="0px" y="0px" width="500px"
	 height="500px" viewBox="0 0 500 500" enable-background="new 0 0 500 500" xml:space="preserve">
<g id="BACKGROUND">
	<image overflow="visible" width="500" height="500" xlink:href="8988F4CB.png" >
	</image>
	<image overflow="visible" opacity="0.2" width="500" height="500" xlink:href="8988F4C9.png" >
	</image>
</g>
<g id="OBJECTS">
	<rect fill="#C6E2F7" width="500" height="500"/>
	<g>
		<path fill="#A1C9EB" d="M198.368,78.686c69.747,92.581,14.48,57.423-31.051,131.566c-26.269,43.931-31.695,107.999-2.88,149.977
			c29.661,42.953,75.167,37.435,116.604,35.322c25.034-1.277,43.002-17.731,59.181-42.013c14.823-22.246,17.37-59.252,12.287-83.656
			c-7.628-38.072-24.013-72.874-51.131-96.304c-29.662-25.382-66.178-36.544-8.947-94.693c-5.936-1.8-12.022-6.545-17.976-5.566
			c-7.548,2.796-12.82,4.35-19.336,4.868c-2.753,0.219-13.004-9.28-15.552-9.799c-4.3,0.99-9.08,3.254-13.776,4.009
			c-8.151,1.31-17.454,2.352-26.349,1.619c-0.674-0.056-1.627,1.515-1.408,2.155L198.368,78.686z"/>
	</g>
	<g>
		<path fill="#A1C9EB" d="M292.43,78.885c-5.936-1.8-12.303-7.621-17.976-5.566c-7.716,2.796-12.82,4.35-19.336,4.868"/>
	</g>
	<g opacity="0.1">
		<g>
			<path d="M352.335,269.974c-7.501-37.436-23.474-71.701-49.788-95.11c15.262,20.976,25.267,46.646,30.748,74.007
				c5.083,24.406,2.536,61.411-12.287,83.656c-16.179,24.282-34.146,40.736-59.181,42.013c-33.908,1.728-70.541,5.731-98.986-16.406
				c0.472,0.729,0.93,1.469,1.422,2.187c29.662,42.952,75.167,37.434,116.604,35.321c25.035-1.277,43.001-17.73,59.18-42.013
				C354.871,331.384,357.417,294.379,352.335,269.974z"/>
		</g>
	</g>
	<path opacity="0.1" d="M274.678,73.318c0,0-18.449,37.737-22.979,83.693c0,0-1.592-54.713,3.803-78.83
		c-0.255,0.134,3.417-0.426,8.343-1.357C266.931,76.241,271.239,73.99,274.678,73.318z"/>
	<path opacity="0.1" d="M225.852,72.593c0,0,5.337,55.854,17.465,82.07c0,0-11.012-63.757-3.75-86.276c0,0-2.977,1.055-6.319,2.007
		C231.313,70.958,227.699,71.427,225.852,72.593z"/>
	<g opacity="0.75">
		<path fill="#FFFFFF" d="M228.277,286.444c4.642,4.34,11.81,8.478,18.267,8.478c4.238,0,9.486-2.42,9.486-7.366
			c0-5.653-7.871-6.662-15.842-9.591c-7.874-2.926-15.848-7.469-15.848-19.783c0-11.91,8.278-22.911,20.588-23.72v-12.214h9.387
			v12.214c6.36,0.606,12.92,2.32,18.371,5.854l-7.471,14.637c-3.632-2.928-8.175-4.947-12.92-4.947c-4.44,0-8.578,1.616-8.578,5.653
			c0,4.643,6.358,6.66,9.892,7.872c11.505,3.836,21.902,8.076,21.902,22.105c0,14.132-8.074,21.398-21.197,24.628v12.617h-9.387
			v-12.011c-4.438,0-8.777-0.909-13.017-2.523c-4.24-1.614-8.58-3.532-11.912-6.662L228.277,286.444z"/>
	</g>
	<path fill="#4C5963" d="M262.817,135.824l-30.801,1.783c-1.078,0.062-1.995-0.78-2.025-1.859l-0.051-1.817
		c-0.029-1.036,0.77-1.906,1.804-1.966l30.8-1.782c1.078-0.063,1.996,0.779,2.025,1.858l0.051,1.817
		C264.649,134.893,263.852,135.764,262.817,135.824z"/>
	<path fill="#4C5963" d="M264.387,141.078h-32.395c-0.972,0-1.76-0.789-1.76-1.761v-1.088c0-0.972,0.788-1.76,1.76-1.76h32.395
		c0.972,0,1.761,0.788,1.761,1.76v1.088C266.147,140.29,265.358,141.078,264.387,141.078z"/>
	<path fill="#4C5963" d="M225.146,180.55c3.355-15.104,9.435-28.798,16.655-41.397c0.509-1.271-0.623-1.62-1.895-2.129l-0.972-0.389
		c-1.271-0.509-2.715,0.109-3.224,1.38c-8.597,14.376-13.258,27.125-15.917,39.584c-0.509,1.271-0.042,3.019,1.157,3.942
		l1.863,1.174C224.084,183.224,224.638,181.821,225.146,180.55z"/>
	<path fill="#4C5963" d="M244.075,196.093c-1.661-19.98-4.445-41.442-7.86-61.083c-0.239-1.875,1.146-1.916,2.734-2.118l1.215-0.155
		c1.588-0.203,3.068,1.153,3.306,3.029c4.009,21.789,6.726,39.315,7.6,56.939c0.186,3.733-2.008,5.248-5.01,6.749
		C244.475,199.657,244.313,197.968,244.075,196.093z"/>
</g>
<g id="DESIGNED_BY_FREEPIK">
</g>
</svg>
