<?xml version="1.0" encoding="utf-8"?>
<!-- Generator: Adobe Illustrator 16.2.0, SVG Export Plug-In . SVG Version: 6.00 Build 0)  -->
<!DOCTYPE svg PUBLIC "-//W3C//DTD SVG 1.1//EN" "http://www.w3.org/Graphics/SVG/1.1/DTD/svg11.dtd">
<svg version="1.1" id="Layer_1" xmlns="http://www.w3.org/2000/svg" xmlns:xlink="http://www.w3.org/1999/xlink" x="0px" y="0px"
	 width="729px" height="369px" viewBox="0 0 729 369" enable-background="new 0 0 729 369" xml:space="preserve">
<path fill="#C6D4E2" d="M504,270v18c0,0,0,18-18,18s-468,0-468,0s-18,0-18-18s0-18,0-18H504z"/>
<path fill="#3F4144" d="M0,270V9c0,0,0-9,9-9s486,0,486,0s9,0,9,9s0,261,0,261H0z"/>
<g>
	<path fill="#FFFFFF" d="M18,252V28c0-5.5,4.5-10,10-10h448c5.5,0,10,4.5,10,10v224"/>
</g>
<rect x="234" y="306" fill="#C6D4E2" width="36" height="27"/>
<path fill="#C6D4E2" d="M234,306c0,0,0,37.801-18,37.801s-36,0-36,0s-9,0-9,12.6s9,12.6,9,12.6h36h72h36c0,0,9,0,9-12.6
	s-9-12.6-9-12.6s-18,0-36,0S270,306,270,306"/>
<g>
	<path fill="#A1C9EB" d="M477,53c0,5.5-4.5,10-10,10H37c-5.5,0-10-4.5-10-10V37c0-5.5,4.5-10,10-10h430c5.5,0,10,4.5,10,10V53z"/>
</g>
<g>
	<path fill="#C3D8E5" d="M189,143c0,5.5-4.5,10-10,10H37c-5.5,0-10-4.5-10-10V82c0-5.5,4.5-10,10-10h142c5.5,0,10,4.5,10,10V143z"/>
</g>
<g>
	<path fill="#D1D3D4" d="M189,166.5c0,2.475-2.7,4.5-6,4.5H33c-3.3,0-6-2.025-6-4.5s2.7-4.5,6-4.5h150
		C186.3,162,189,164.025,189,166.5z"/>
</g>
<g>
	<path fill="#D1D3D4" d="M189,184.5c0,2.475-2.7,4.5-6,4.5H33c-3.3,0-6-2.025-6-4.5s2.7-4.5,6-4.5h150
		C186.3,180,189,182.025,189,184.5z"/>
</g>
<g>
	<path fill="#D1D3D4" d="M189,202.5c0,2.475-2.7,4.5-6,4.5H33c-3.3,0-6-2.025-6-4.5s2.7-4.5,6-4.5h150
		C186.3,198,189,200.025,189,202.5z"/>
</g>
<g>
	<path fill="#D1D3D4" d="M126,220.5c0,2.475-2.7,4.5-6,4.5H33c-3.3,0-6-2.025-6-4.5s2.7-4.5,6-4.5h87
		C123.3,216,126,218.025,126,220.5z"/>
</g>
<line fill="none" stroke="#D1D3D4" stroke-width="3" stroke-miterlimit="10" x1="198" y1="72" x2="198" y2="243"/>
<g>
	<path fill="#A6BCC9" d="M270,174c0,3.3-2.7,6-6,6h-51c-3.3,0-6-2.7-6-6V78c0-3.3,2.7-6,6-6h51c3.3,0,6,2.7,6,6V174z"/>
</g>
<g>
	<path fill="#BEDDEE" d="M405,120c0,3.3-2.7,6-6,6H285c-3.3,0-6-2.7-6-6V78c0-3.3,2.7-6,6-6h114c3.3,0,6,2.7,6,6V120z"/>
</g>
<g>
	<path fill="#D9E6ED" d="M333,147c0,3.3,2.7,6,6,6h60c3.3,0,6-2.7,6-6v-6c0-3.3-2.7-6-6-6h-60c-3.3,0-6,2.7-6,6V147z"/>
</g>
<g>
	<path fill="#BEDDEE" d="M324,210c0,3.3-2.7,6-6,6H213c-3.3,0-6-2.7-6-6v-15c0-3.3,2.7-6,6-6h105c3.3,0,6,2.7,6,6V210z"/>
</g>
<g>
	<path fill="#C0D6E2" d="M324,174c0,3.3-2.7,6-6,6h-33c-3.3,0-6-2.7-6-6v-33c0-3.3,2.7-6,6-6h33c3.3,0,6,2.7,6,6V174z"/>
</g>
<g>
	<path fill="#A7C8DB" d="M261,237c0,3.3-2.7,6-6,6h-42c-3.3,0-6-2.7-6-6v-6c0-3.3,2.7-6,6-6h42c3.3,0,6,2.7,6,6V237z"/>
</g>
<g>
	<path fill="#C3D8E5" d="M351,237c0,3.3-2.7,6-6,6h-69c-3.3,0-6-2.7-6-6v-6c0-3.3,2.7-6,6-6h69c3.3,0,6,2.7,6,6V237z"/>
</g>
<g>
	<path fill="#89C4E4" d="M405,210c0,3.3-2.7,6-6,6h-60c-3.3,0-6-2.7-6-6v-42c0-3.3,2.7-6,6-6h60c3.3,0,6,2.7,6,6V210z"/>
</g>
<g>
	<path fill="#AABBC1" d="M405,237c0,3.3-2.7,6-6,6h-33c-3.3,0-6-2.7-6-6v-6c0-3.3,2.7-6,6-6h33c3.3,0,6,2.7,6,6V237z"/>
</g>
<line fill="none" stroke="#D1D3D4" stroke-width="3" stroke-miterlimit="10" x1="414" y1="72" x2="414" y2="243"/>
<g>
	<path fill="#D1D3D4" d="M477,76.5c0,2.475-2.7,4.5-6,4.5h-42c-3.3,0-6-2.025-6-4.5s2.7-4.5,6-4.5h42C474.3,72,477,74.025,477,76.5z
		"/>
</g>
<g>
	<path fill="#D1D3D4" d="M450,94.5c0,2.475-2.7,4.5-6,4.5h-15c-3.3,0-6-2.025-6-4.5s2.7-4.5,6-4.5h15C447.3,90,450,92.025,450,94.5z
		"/>
</g>
<g>
	<path fill="#D1D3D4" d="M477,130.5c0,2.475-2.7,4.5-6,4.5h-42c-3.3,0-6-2.025-6-4.5s2.7-4.5,6-4.5h42
		C474.3,126,477,128.025,477,130.5z"/>
</g>
<g>
	<path fill="#D1D3D4" d="M477,148.5c0,2.475-2.7,4.5-6,4.5h-42c-3.3,0-6-2.025-6-4.5s2.7-4.5,6-4.5h42
		C474.3,144,477,146.025,477,148.5z"/>
</g>
<g>
	<path fill="#D1D3D4" d="M477,184.5c0,2.475-2.7,4.5-6,4.5h-42c-3.3,0-6-2.025-6-4.5s2.7-4.5,6-4.5h42
		C474.3,180,477,182.025,477,184.5z"/>
</g>
<g>
	<path fill="#D1D3D4" d="M477,166.5c0,2.475-2.7,4.5-6,4.5h-24c-3.3,0-8.7,0-12,0h-6c-3.3,0-6-2.025-6-4.5s2.7-4.5,6-4.5h42
		C474.3,162,477,164.025,477,166.5z"/>
</g>
<g>
	<path fill="#D9E6ED" d="M450,222c0-3.3,2.7-6,6-6h15c3.3,0,6,2.7,6,6v15c0,3.3-2.7,6-6,6h-15c-3.3,0-6-2.7-6-6V222z"/>
</g>
<g>
	<path fill="#3F4144" d="M729,349c0,11-9,20-20,20H560c-11,0-20-9-20-20V20c0-11,9-20,20-20h41c11,0,29,0,40,0h68c11,0,20,9,20,20
		V349z"/>
</g>
<g>
	<path fill="#FFFFFF" d="M720,329c0,2.2-1.8,4-4,4H553c-2.2,0-4-1.8-4-4V40c0-2.2,1.8-4,4-4h163c2.2,0,4,1.8,4,4V329z"/>
</g>
<g>
	<path fill="#A1C9EB" d="M711,71c0,5.5-4.5,10-10,10H568c-5.5,0-10-4.5-10-10V55c0-5.5,4.5-10,10-10h133c5.5,0,10,4.5,10,10V71z"/>
</g>
<g>
	<path fill="#C3D8E5" d="M711,143c0,5.5-4.5,10-10,10H568c-5.5,0-10-4.5-10-10v-43c0-5.5,4.5-10,10-10h133c5.5,0,10,4.5,10,10V143z"
		/>
</g>
<g>
	<path fill="#D1D3D4" d="M711,166.5c0,2.475-2.7,4.5-6,4.5H564c-3.3,0-6-2.025-6-4.5s2.7-4.5,6-4.5h141
		C708.3,162,711,164.025,711,166.5z"/>
</g>
<g>
	<path fill="#D1D3D4" d="M711,184.5c0,2.475-2.7,4.5-6,4.5H564c-3.3,0-6-2.025-6-4.5s2.7-4.5,6-4.5h141
		C708.3,180,711,182.025,711,184.5z"/>
</g>
<g>
	<path fill="#D1D3D4" d="M711,202.5c0,2.475-2.7,4.5-6,4.5H564c-3.3,0-6-2.025-6-4.5s2.7-4.5,6-4.5h141
		C708.3,198,711,200.025,711,202.5z"/>
</g>
<g>
	<path fill="#D1D3D4" d="M657,220.5c0,2.475-2.7,4.5-6,4.5h-87c-3.3,0-6-2.025-6-4.5s2.7-4.5,6-4.5h87
		C654.3,216,657,218.025,657,220.5z"/>
</g>
<line fill="none" stroke="#D1D3D4" stroke-width="3" stroke-miterlimit="10" x1="558" y1="234" x2="711" y2="234"/>
<g>
	<path fill="#A6BCC9" d="M606.682,320.454c0,3.3-2.7,6-6,6H564c-3.3,0-6-2.7-6-6V249c0-3.3,2.7-6,6-6h36.682c3.3,0,6,2.7,6,6
		V320.454z"/>
</g>
<g>
	<path fill="#BEDDEE" d="M711,278.728c0,3.3-2.7,6-6,6h-85.363c-3.3,0-6-2.7-6-6V249c0-3.3,2.7-6,6-6H705c3.3,0,6,2.7,6,6V278.728z"
		/>
</g>
<g>
	<path fill="#D9E6ED" d="M655.363,299.591c0,3.3,2.7,6,6,6H705c3.3,0,6-2.7,6-6v-1.909c0-3.3-2.7-6-6-6h-43.637c-3.3,0-6,2.7-6,6
		V299.591z"/>
</g>
<g>
	<path fill="#C0D6E2" d="M648.409,320.454c0,3.3-2.7,6-6,6h-22.772c-3.3,0-6-2.7-6-6v-22.772c0-3.3,2.7-6,6-6h22.772
		c3.3,0,6,2.7,6,6V320.454z"/>
</g>
<g>
	<path fill="#89C4E4" d="M711,321.272c0,3.3-2.7,6-6,6h-43.637c-3.3,0-6-2.7-6-6v-2.728c0-3.3,2.7-6,6-6H705c3.3,0,6,2.7,6,6
		V321.272z"/>
</g>
<g>
	<g>
		<path d="M621,20.5c15,0,30,0,45,0c3.225,0,3.225-5,0-5c-15,0-30,0-45,0C617.775,15.5,617.775,20.5,621,20.5L621,20.5z"/>
	</g>
</g>
<g>
	<g>
		<path d="M612,20.5c3.225,0,3.225-5,0-5S608.775,20.5,612,20.5L612,20.5z"/>
	</g>
</g>
<g>
	<g>
		<path d="M645.5,351c-0.451,8.38-12.549,8.38-13,0C632.049,342.615,645.051,342.66,645.5,351c0.173,3.207,5.174,3.224,5,0
			c-0.351-6.503-4.997-11.149-11.5-11.5c-6.488-0.35-11.178,5.523-11.5,11.5c-0.35,6.488,5.523,11.178,11.5,11.5
			c6.488,0.35,11.178-5.523,11.5-11.5C650.674,347.776,645.673,347.793,645.5,351z"/>
	</g>
</g>
<g>
	<g>
		<path d="M252,11.5c3.225,0,3.225-5,0-5S248.775,11.5,252,11.5L252,11.5z"/>
	</g>
</g>
</svg>
