<?xml version="1.0" encoding="utf-8"?>
<!-- Generator: Adobe Illustrator 16.2.0, SVG Export Plug-In . SVG Version: 6.00 Build 0)  -->
<!DOCTYPE svg PUBLIC "-//W3C//DTD SVG 1.1//EN" "http://www.w3.org/Graphics/SVG/1.1/DTD/svg11.dtd">
<svg version="1.1" id="Layer_1" xmlns="http://www.w3.org/2000/svg" xmlns:xlink="http://www.w3.org/1999/xlink" x="0px" y="0px"
	 width="1920px" height="840px" viewBox="0 0 1920 840" enable-background="new 0 0 1920 840" xml:space="preserve">
<path fill="#C6D4E2" d="M936,486v18c0,0,0,18-18,18s-468,0-468,0s-18,0-18-18s0-18,0-18H936z"/>
<path fill="#3F4144" d="M432,486V225c0,0,0-9,9-9s486,0,486,0s9,0,9,9s0,261,0,261H432z"/>
<g>
	<path fill="#FFFFFF" d="M450,468V244c0-5.5,4.5-10,10-10h448c5.5,0,10,4.5,10,10v224"/>
</g>
<rect x="666" y="522" fill="#C6D4E2" width="36" height="27"/>
<path fill="#C6D4E2" d="M666,522c0,0,0,37.801-18,37.801s-36,0-36,0s-9,0-9,12.6s9,12.6,9,12.6h36h72h36c0,0,9,0,9-12.6
	s-9-12.6-9-12.6s-18,0-36,0S702,522,702,522"/>
<g>
	<path fill="#A1C9EB" d="M909,269c0,5.5-4.5,10-10,10H469c-5.5,0-10-4.5-10-10v-16c0-5.5,4.5-10,10-10h430c5.5,0,10,4.5,10,10V269z"
		/>
</g>
</svg>
