<?xml version="1.0" encoding="utf-8"?>
<!-- Generator: Adobe Illustrator 16.2.0, SVG Export Plug-In . SVG Version: 6.00 Build 0)  -->
<!DOCTYPE svg PUBLIC "-//W3C//DTD SVG 1.1//EN" "http://www.w3.org/Graphics/SVG/1.1/DTD/svg11.dtd">
<svg version="1.1" id="Layer_1" xmlns="http://www.w3.org/2000/svg" xmlns:xlink="http://www.w3.org/1999/xlink" x="0px" y="0px"
	 width="1920px" height="840px" viewBox="0 0 1920 840" enable-background="new 0 0 1920 840" xml:space="preserve">
<path fill="#FFFBEA" d="M242.954,423.349c180.255-33.758,301.273-43.146,379.618-29.217s181.529,17.874,242.039,16.857
	s94.267-2.051,166.878-5.355s87.262,0.158,112.103,3.841s236.942-0.14,284.713,4.956s96.772,3.821,140.425,2.548
	s43.652-1.273,43.652-1.273s21.083-16.124,61.146-6.23s291.45,2.119,289.263,10.525c-2.188,8.407-37.671,56.215-37.671,56.215
	l17.197,187.261l-2094.267-22.93l-6.37-224.204"/>
<path fill="#FFF9DA" d="M-185.657,526.358c0,0,625.749-33.49,666.059-42.859s311.011-29.753,329.482-26.567
	s113.376,12.039,139.49,13.345c26.116,1.306,202.134,10.995,204.252,6.787s337.787-7.364,337.787-7.364l585.987,115.896
	l-82.803,175.796l-2267.517-5.732"/>
<path fill="#D8D8D8" d="M-16.315,350.019c0,0,113.375,5.732,147.134,4.459s168.153-1.274,197.452,5.096
	c29.299,6.369,85.987,14.013,116.561,15.924c30.573,1.91,52.867,10.827,46.497,15.923s-17.404,10.712-46.497,12.681
	s-114.013,8.338-182.166,4.517s-216.56,7.007-260.509,17.202"/>
<circle fill="#FBEAD0" cx="1303.812" cy="534.918" r="159.732"/>
<path fill="#D8D8D8" d="M1443.651,493.422c-92.515,6.442-152.366,26.075-129.008,31.039c23.358,4.963,17.48,7.872,17.905,12.355
	c0.424,4.484,27.051,7.763,55.562,11.619c28.512,3.855,55.475,0.036,74.562,0.943s75.168,17.94,102.691,20.993
	c27.524,3.053,390.082,35.592,390.082,35.592l-5.647-109.226c0,0-103.821-2.468-153.175-10.554
	c-49.354-8.085-94.253-15.959-124.186-16.743c-29.934-0.785-31.417,16.999-32.689,16.938c-1.271-0.061-8.674-5.348-43.691-6.458
	c-35.019-1.11-105.337,1.843-113.608,1.449"/>
<path fill="#EFEFEF" d="M1583.462,519.534c-92.104-10.828-138.575-16.033-127.389-37.13c7.146-13.478,14.289-9.82,18.472-11.492
	c10.503-4.198,27.389-6.469,56.051-8.967s55.414,2.598,74.522,2.598s75.935-14.351,103.572-16.093s391.332-17.028,391.332-17.028
	l-10.828,108.834c0,0-103.821-2.465-153.503,3.268s-94.904,11.466-124.841,10.828s-30.574-18.472-31.848-18.472
	s-8.918,4.93-43.949,4.376s-105.131-6.843-113.411-6.843"/>
<path fill="#EFEFEF" d="M1453.448,486.984c-92.515,6.442-152.366,26.075-129.008,31.039c23.358,4.963,17.48,7.872,17.905,12.355
	c0.424,4.484,27.051,7.763,55.562,11.619c28.512,3.855,55.475,0.036,74.562,0.943s75.168,17.94,102.691,20.993
	c27.524,3.053,390.082,35.592,390.082,35.592l-5.647-109.226c0,0-103.821-2.468-153.175-10.554
	c-49.354-8.085-94.253-15.959-124.186-16.743c-29.934-0.785-31.417,16.999-32.689,16.938c-1.271-0.061-8.674-5.348-43.691-6.458
	c-35.019-1.11-105.337,1.843-113.608,1.449"/>
<path fill="#EFEFEF" d="M-25.109,344.203c0,0,113.375,5.732,147.134,4.458s168.153-1.274,197.452,5.096
	s85.987,14.013,116.561,15.924s52.867,10.828,46.497,15.923s-17.404,10.711-46.497,12.68s-114.013,8.338-182.166,4.517
	S37.312,409.808-6.637,420"/>
<path fill="#EFEFEF" d="M1244.954,158.138c-10.83,21.65-128.658,24.84-173.889,24.84c-45.221,0-15.92,30.57-26.43,39.55
	c-6.871,5.87-50.861,3.77-97.231,0.19c2.87,3.36,3.931,7.05,3.28,11.18c-1.91,12.06-99.36,4.49-117.19,8.15
	c-17.84,3.65-104.46-9.39-137.58-8.15c-33.13,1.24-238.86,10.22-288.54,8.15c-40.72-1.7-100.68-10.77-129.42-25.56l-189.04-3.77
	c-37.55,3.81-232.12-29.51-258.06-32.54c-25.94-3.03-17.08-44.01-9.58-59.18c6.96-14.09,72.59-18.4,81.95-18.94
	c-4.67,10.57,1.11-0.06,1.11-0.06s-0.39,0.02-1.11,0.06c0.32-0.73,0.69-1.55,1.11-2.48c2.56-5.65,8.09-13.28,15.46-21.05l-11.15-3.2
	l36.95-49.68c50.95-5.73,85.98-5.73,123.56,0c37.58,5.73,68.97-5.92,115.93,4.46c42.56,9.41,46.55,10.29,46.92,10.37c0,0,0,0,0.01,0
	c75.24-7.48,155.63-20.88,208.39-34.28c77.82-19.75,62.12-3.81,236.2-0.08s219.84,58.35,219.84,58.35s0,0,90.111,2.25
	c90.119,2.24,165.889,6.77,167.949,32.57c0.449,5.68-5.51,10.07-15.539,13.65c90.93,3.43,74.809,15.52,87.52,19.08
	C1242.405,136.478,1255.784,136.478,1244.954,158.138z"/>
<g>
	<path fill="#9BC7E0" d="M0.445,467.868v36.459c6.366-4.046,12.631-8.326,18.586-13.251c5.943-4.916,11.887-9.832,17.833-14.748
		c3.265-2.695,6.549-5.417,9.217-8.701c2.359-2.911,4.193-6.212,6.444-9.207c0.725-0.969,1.492-1.901,2.29-2.806
		c-9.238,1.786-18.107,6.033-27.363,8.2C18.771,465.85,9.675,466.992,0.445,467.868z"/>
	<path fill="#9BC7E0" d="M1910.673,470.34c-10.134,0.982-20.274,1.969-30.409,2.954c-2.065,0.201-4.221,0.431-5.974,1.551
		c-1.231,0.789-2.194,1.982-3.533,2.57c-1.702,0.741-3.65,0.372-5.481,0.106c-12.548-1.828-26.495,1.564-37.234-5.171
		c-0.6-0.378-1.182-0.79-1.758-1.216c-4.322-3.213-8.018-7.539-13.197-8.883c-6.797-1.761-14.889,2.024-20.61-2.038
		c-1.843-1.302-3.265-3.343-5.454-3.883c-3.633-0.893-6.59,2.702-9.646,4.86c-8.107,5.722-19.643,1.623-28.965,5.008
		c-10.963,3.981-15.738,16.778-24.787,24.13c-9.894,8.032-23.65,8.715-36.389,9.037c-7.508,0.188-15.096,0.372-22.458-1.117
		c-6.483-1.315-13.079-3.925-19.513-2.377c-3.853,0.927-7.078,3.226-10.23,5.703c-3.745,2.944-7.391,6.153-11.842,7.69
		c-5.783,2.001-12.172,0.898-18.191,2.004c-19.064,3.508-26.495,25.27-43.808,31.615c-22.648,8.301-46.226,16.059-69.042,25.336
		c-8.512,3.464-18.131,6.201-26.255,10.272c-5.258,2.634-9.384,8.468-14.967,10.311c-3.729,1.229-7.766-0.235-11.69-0.179
		c-12.654,0.176-21.238,15.564-33.892,15.537c-7.722-0.014-14.104-5.813-21.462-8.181c-0.24-0.078-0.476-0.185-0.723-0.255
		c-4.742-1.36-9.77-1.139-14.691-1.405c-21.209-1.142-40.829-11.368-61.691-15.36c-4.697-0.899-9.457-1.479-14.232-1.736
		c-14.104-0.762-28.601,1.408-41.092,8.007c-3.803,2.01-7.436,4.432-11.546,5.726c-7.52,2.371-15.706,0.68-23.197-1.787
		c-11.68-3.849-22.737-9.574-32.626-16.887c-4.178-3.094-8.27-6.531-13.209-8.16c-8.504-2.806-12.703-7.987-21.662-9.841
		c-7.257-1.501-14.586-0.781-18.64-7.965c-4.748-8.421-6.618-9.37-15.706-10.627c-7.223-0.999-14.473,1.095-21.467,3.169
		c-12.777,3.788-25.879,7.741-36.422,15.896c-4.58,3.541-8.64,7.853-13.808,10.459c-6.819,3.438-14.916,3.577-21.786,6.912
		c-3.068,1.492-5.778,3.578-8.433,5.747c-1.198,0.979-2.386,1.971-3.583,2.945c-15.795,12.858-36.17,21.918-56.271,18.628
		c-27.923-4.571-49.354-18.18-78.349-17.604c-31.615,0.627-63.231,1.254-94.849,1.881c-11.78,0.236-23.802,0.438-35.048-3.07
		c-12.651-3.945-23.374-12.271-34.689-19.172c-33.304-20.308-70.241-24.289-108.371-25.618c-22.548-0.79-45.795-0.012-68.226-2.383
		c-18.595-1.966-34.418-10.431-53.287-12.567c-19.375-2.194-38.751-4.39-58.124-6.584c-6.926-0.784-14.048-1.63-20.168-4.961
		c-5.445-2.965-9.782-7.741-15.375-10.414c-5.26-2.512-11.237-2.977-17.063-3.184c-34.656-1.234-71,4.922-102.898-8.682
		c-9.205-3.925-19.183-9.468-28.6-8.382c5.224,1.979,11.478,0.84,16.31,3.692c5.264,3.107,6.943,9.746,9.625,15.238
		c8.371,17.152,31.646,25.096,48.754,16.635c-0.289,5.229,5.462,8.458,10.328,10.393c14.958,5.945,29.916,11.893,44.877,17.838
		c1.316,10.367,10.331,19.244,20.717,20.404c4.306,0.479,8.802-0.222,12.9,1.184c2.845,0.972,5.252,2.881,7.601,4.757
		c17.545,14,51.829,35.817,75.387,24.479c4.975-2.396,11.14-5.3,15.681-8.396c4.099-2.797,7.103-8.776,12.606-8.95
		c2.816-0.087,5.585,1.615,8.332,0.988c2.41-0.552,4.051-2.724,5.479-4.748c2.189-3.107,4.378-6.212,6.565-9.319
		c2.366-3.357,5.652-7.122,9.695-6.426c2.688,0.468,4.597,2.8,6.243,4.973c3.569,4.697,7.136,9.396,10.706,14.093
		c1.226,1.615,2.531,3.295,4.39,4.112c3.6,1.585,8.432-0.437,11.392,2.159c2.001,1.752,2.097,4.753,2.796,7.323
		c1.87,6.89,8.494,11.218,14.614,14.902c3.382,2.035,6.764,4.07,10.143,6.105c3.085,1.859,6.195,3.727,9.588,4.938
		c9.222,3.295,17.923,3.44,26.428,8.583c8.102,4.895,18.396,13.167,28.547,10.443c3.222-0.865,6.218-2.89,9.558-2.786
		c9.079,0.294,16.719,14.745,26.229,17.528c17.777,5.207,38.217,5.185,56.644,10.563c24.303,7.094,48.603,14.188,72.906,21.282
		c6.677,1.951,13.435,3.934,19.432,7.455c4.513,2.648,8.525,6.129,13.225,8.424c5.667,2.767,12.044,3.668,18.32,4.295
		c38.455,3.838,79.059,3.004,110.633-21.649c3.074-2.398,6.26-5.011,10.111-5.599c5.768-0.882,11.373,3.015,17.189,2.559
		c4.367-0.345,8.119-3.06,11.748-5.513c6.287-4.252,13.829-6.945,19.921-11.318c3.578-2.572,5.796-7.293,10.347-8.06
		c7.302-1.227,16.445,7.326,21.502,11.405c10.486,8.46,23.824,28.494,37.244,31.87c6.064,1.522,12.504-0.218,18.696,0.655
		c7.128,1.002,13.259,5.327,19.658,8.631c18.673,9.647,43.029,9.874,63.472,12.632c28.611,3.86,60.241,7.058,84.026-9.3
		c4.916-3.383,9.317-7.509,14.49-10.477c13.981-8.021,31.948-6.708,45.688-15.132c10.997-6.744,18.926-19.46,31.686-21.372
		c5.678-0.851,12.336,0.39,16.473-3.592c2.879-2.763,3.461-7.209,6.031-10.257c5.834-6.927,17.934-3.239,25.162-8.69
		c4.193-3.16,7.446-9.49,12.559-8.283c2.094,0.495,3.623,2.223,5.141,3.748c5.016,5.048,11.388,8.74,18.264,10.585
		c2.738,0.733,5.733,1.159,8.343,0.048c3.364-1.439,5.19-4.997,7.212-8.049c8.885-13.391,24.933-19.72,37.945-29.154
		c11.791-8.553,21.26-19.854,30.666-30.978c3.701-4.376,5.309-6.26,11.203-4.538c3.315,0.969,8.08,3.142,9.777,6.378
		c0.761,1.452,0.486,3.233,0.969,4.804c0.795,2.584,3.398,4.07,5.643,5.58c4.021,2.704,7.521,6.296,9.664,10.641
		c2.699,5.456,4.061,11.453,6.938,16.861c2.559,4.818,7.268,8.273,9.469,13.262c1.192,2.699,1.422,5.75,2.626,8.443
		c4.036,8.995,16.372,9.983,26.108,8.427c2.509-0.4,5.225-0.848,7.48,0.333c6.092,3.206,8.59,9.475,13.097,14.23
		c5.834,6.159,9.378,6.531,17.794,8.631c2.385,9.094,12.413,13.533,21.254,16.728c3.107,1.126,6.327,2.265,9.625,2.035
		c8.482-0.591,18.052-6.551,23.545-12.724c4.793-5.393,10.465-10.649,17.771-14.541c8.623-4.594,18.337-7.729,25.15-14.729
		c8.68-8.914,12.402-23.712,24.278-27.422c5.856-1.831,12.917-0.515,17.626-4.448c2.111-1.764,3.359-4.314,4.776-6.669
		c4.978-8.278,12.458-14.697,19.804-20.969c6.266-5.344,12.525-10.688,18.791-16.033c13.494-11.512,26.982-23.023,40.477-34.535
		c1.416-1.212,3.012-2.488,4.876-2.488c1.103,0,2.077,0.445,2.984,1.066v-64.144C1916.894,469.747,1913.758,470.041,1910.673,470.34
		z"/>
</g>
<path fill="#6DAAC9" d="M1917.017,532.838c-1.864,0-3.46,1.276-4.876,2.488c-13.494,11.512-26.982,23.023-40.477,34.535
	c-6.266,5.345-12.525,10.689-18.791,16.033c-7.346,6.271-14.826,12.69-19.804,20.969c-1.417,2.354-2.665,4.905-4.776,6.669
	c-4.709,3.934-11.77,2.617-17.626,4.448c-11.876,3.71-15.599,18.508-24.278,27.422c-6.813,6.999-16.527,10.135-25.15,14.729
	c-7.307,3.892-12.979,9.148-17.771,14.541c-5.493,6.173-15.063,12.133-23.545,12.724c-3.298,0.229-6.518-0.909-9.625-2.035
	c-8.841-3.194-18.869-7.634-21.254-16.728c-8.416-2.1-11.96-2.472-17.794-8.631c-4.507-4.756-7.005-11.024-13.097-14.23
	c-2.256-1.181-4.972-0.733-7.48-0.333c-9.736,1.557-22.072,0.568-26.108-8.427c-1.204-2.693-1.434-5.744-2.626-8.443
	c-2.201-4.988-6.91-8.443-9.469-13.262c-2.877-5.408-4.238-11.405-6.938-16.861c-2.144-4.345-5.643-7.937-9.664-10.641
	c-2.244-1.51-4.848-2.996-5.643-5.58c-0.482-1.57-0.208-3.352-0.969-4.804c-1.697-3.236-6.462-5.409-9.777-6.378
	c-5.895-1.722-7.502,0.162-11.203,4.538c-9.406,11.123-18.875,22.425-30.666,30.978c-13.013,9.435-29.061,15.764-37.945,29.154
	c-2.021,3.052-3.848,6.609-7.212,8.049c-2.609,1.111-5.604,0.686-8.343-0.048c-6.876-1.845-13.248-5.537-18.264-10.585
	c-1.518-1.525-3.047-3.253-5.141-3.748c-5.112-1.207-8.365,5.123-12.559,8.283c-7.229,5.451-19.328,1.764-25.162,8.69
	c-2.57,3.048-3.152,7.494-6.031,10.257c-4.137,3.981-10.795,2.741-16.473,3.592c-12.76,1.912-20.688,14.628-31.686,21.372
	c-13.74,8.424-31.707,7.111-45.688,15.132c-5.173,2.968-9.574,7.094-14.49,10.477c-23.785,16.357-55.415,13.16-84.026,9.3
	c-20.442-2.758-44.799-2.984-63.472-12.632c-6.399-3.304-12.53-7.629-19.658-8.631c-6.192-0.873-12.632,0.867-18.696-0.655
	c-13.42-3.376-26.758-23.41-37.244-31.87c-5.057-4.079-14.2-12.632-21.502-11.405c-4.551,0.767-6.769,5.487-10.347,8.06
	c-6.092,4.373-13.634,7.066-19.921,11.318c-3.629,2.453-7.381,5.168-11.748,5.513c-5.816,0.456-11.422-3.44-17.189-2.559
	c-3.852,0.588-7.037,3.2-10.111,5.599c-31.574,24.653-72.178,25.487-110.633,21.649c-6.276-0.627-12.654-1.528-18.32-4.295
	c-4.7-2.295-8.712-5.775-13.225-8.424c-5.997-3.521-12.755-5.504-19.432-7.455c-24.303-7.094-48.603-14.188-72.906-21.282
	c-18.427-5.378-38.866-5.355-56.644-10.563c-9.51-2.783-17.15-17.234-26.229-17.528c-3.34-0.104-6.335,1.921-9.558,2.786
	c-10.151,2.724-20.445-5.549-28.547-10.443c-8.505-5.143-17.206-5.288-26.428-8.583c-3.393-1.212-6.503-3.079-9.588-4.938
	c-3.379-2.035-6.761-4.07-10.143-6.105c-6.12-3.685-12.744-8.013-14.614-14.902c-0.7-2.57-0.795-5.571-2.796-7.323
	c-2.959-2.596-7.792-0.574-11.392-2.159c-1.859-0.817-3.164-2.497-4.39-4.112c-3.569-4.697-7.136-9.396-10.706-14.093
	c-1.646-2.173-3.556-4.505-6.243-4.973c-4.042-0.696-7.329,3.068-9.695,6.426c-2.187,3.107-4.375,6.212-6.565,9.319
	c-1.428,2.024-3.068,4.196-5.479,4.748c-2.747,0.627-5.515-1.075-8.332-0.988c-5.504,0.174-8.508,6.153-12.606,8.95
	c-4.541,3.097-10.706,6-15.681,8.396c-23.558,11.338-57.842-10.479-75.387-24.479c-2.349-1.876-4.756-3.785-7.601-4.757
	c-4.099-1.405-8.595-0.705-12.9-1.184c-10.386-1.16-19.401-10.037-20.717-20.404c-14.961-5.945-29.919-11.893-44.877-17.838
	c-4.865-1.935-10.616-5.163-10.328-10.393c-17.108,8.461-40.383,0.518-48.754-16.635c-2.682-5.492-4.361-12.131-9.625-15.238
	c-4.832-2.853-11.086-1.713-16.31-3.692c-0.257-0.098-0.521-0.168-0.773-0.28c-11.318-5.111-10.338-23.194-20.784-29.91
	c-2.777-1.786-6.31-2.716-8.135-5.471c-2.895-4.367,0.24-10.425-1.378-15.411c-0.884-2.732-3.029-4.706-5.148-6.725
	c-1.184-1.128-2.366-2.273-3.312-3.572c-3.393-4.67-1.689-15.726-3.249-21.285c-5.146-18.346-23.463-31.441-29.113-49.638
	c-12.019,2.376-23,22.096-28.271,33.151c-3.937,8.261-7.878,16.523-11.814,24.784c-3.477,1.767-8.18,0.549-10.361-2.688
	c-1.481-2.195-2.304-5.439-4.919-5.865c-0.924-0.151-1.859,0.129-2.735,0.451c-5.484,2.018-9.79,5.534-13.508,9.834
	c-8.041,9.303-13.292,22.293-21.565,31.851c-5.535,6.391-12.606,11.36-18.172,17.679c-0.798,0.904-1.565,1.837-2.29,2.806
	c-2.251,2.995-4.085,6.296-6.444,9.207c-2.668,3.284-5.952,6.006-9.217,8.701c-5.946,4.916-11.89,9.832-17.833,14.748
	c-5.955,4.925-12.22,9.205-18.586,13.251v53.298c7.606-2.024,15.159-5.255,23.768-1.48c5.299,2.32,8.368,7.628,13.385,10.192
	c3.508,1.789,7.004,0.628,10.655,3.337c6.338,4.703,7.811,14.569,13.646,19.514c3.561,3.021,7.783,5.277,10.924,8.731
	c8.057,8.869,8.22,27.881,21.293,31.618c6.349,1.814,11.002-2.945,17.1-1.971c7.604,1.221,15.163,10.868,20.818,15.532
	c4.731,3.902,9.684,7.524,14.636,11.142c21.131,15.442,40.852,33.332,63.175,46.563c1.747,1.036,3.679,2.113,5.691,1.822
	c2.089-0.302,3.665-1.99,5.059-3.574c6.809-7.732,13.617-15.465,20.423-23.197c2.774-3.152,5.859-6.49,9.98-7.305
	c5.851-1.156,11.22,3.107,15.884,6.831c7.638,6.104,17.072,11.728,26.641,9.72c2.819-0.593,5.568-1.842,8.443-1.648
	c2.9,0.196,5.47,1.828,7.996,3.272c18.986,10.871,39.619,14.102,55.454,29.608c7.634,7.475,13.012,6.417,22.99,10.196
	c13.315,5.042,22.386,17.979,35.415,24.101c11.047,5.191,22.85,1.652,33.623,5.885c9.84,3.864,19.706,11.823,27.984,17.344
	c7.229,4.82,15.437,7.979,22.931,12.383c8.821,5.182,17.229,14.603,27.327,17.086c6.744,1.66,13.141-1.384,19.849-0.468
	c17.822,2.436,31.341,26.047,45.711,36.125c0.437,0.308,0.856,0.664,1.276,1.017h345.528c4.373-2.158,8.877-4.07,13.714-4.983
	c11.84-2.237,25.994-2.931,33.559-13.813c1.787-2.566,3.052-5.582,5.454-7.589c8.769-7.335,22.005,4.393,33.079,1.542
	c3.785-0.971,6.898-3.586,9.866-6.122c7.989-6.82,15.974-13.637,23.964-20.456c10.309-8.803,20.801-17.722,33.158-23.293
	c2.928-1.318,6.064-2.461,9.271-2.248c4.586,0.309,8.488,3.295,12.039,6.207c8.953,7.343,17.625,15.025,25.996,23.023
	c7.75,7.41,17.666,15.747,27.873,12.475c3.063-0.985,6.641-2.912,9.16-0.912c1.17,0.926,1.657,2.44,2.379,3.742
	c3.897,7.016,14.1,8.359,20.28,12.716c6.501,4.58,12.038,10.972,17.335,16.817c0.936,1.035,1.938,1.987,2.968,2.895h75.471
	c9.821-3.998,19.574-8.229,29.759-11.131c9.154-2.609,19.133-4.387,26.031-10.941c2.1-1.996,3.902-4.423,6.494-5.722
	c4.496-2.254,9.865-0.471,14.899-0.597c14.334-0.353,33.253-18.242,43.835-26.903c5.348-4.379,10.605-7.702,17.229-9.689
	c10.158-3.049,16.031-7.794,24.995-13.239c4.743-2.875,11.288,0.807,16.042,1.884c6.287,1.429,9.126,1.159,15.185-1.729
	c11.433-5.454,21.517-14.225,28.74-24.603c3.415-4.908,8.191-11.024,13.88-9.186c5.078,1.641,6.086,8.298,9.435,12.446
	c5.397,6.683,16.26,6.078,22.431,12.059c4.736,4.597,5.51,11.875,8.891,17.55c6.227,10.465,15.516,9.569,25.582,8.729
	c10.941-0.913,23.399,1.321,32.812,7.875c9.798,6.831,13.079,18.485,25.639,21.352c22.53,5.141,49.709,0.177,65.823,16.745
	c2.43,2.5,4.496,5.425,7.402,7.356c4.507,3.002,10.246,3.145,15.648,3.564c7.738,0.602,15.398,2.043,22.861,4.18h142.772V533.904
	C1919.094,533.283,1918.119,532.838,1917.017,532.838z"/>
<g>
	<path fill="#4F81A8" d="M555.534,802.858c-6.708-0.916-13.104,2.128-19.849,0.468c-10.098-2.483-18.505-11.904-27.327-17.086
		c-7.494-4.404-15.703-7.563-22.931-12.383c-8.278-5.521-18.144-13.479-27.984-17.344c-10.773-4.232-22.576-0.693-33.623-5.885
		c-13.029-6.122-22.1-19.059-35.415-24.101c-9.978-3.779-15.355-2.722-22.99-10.196c-15.834-15.507-36.467-18.737-55.454-29.608
		c-2.525-1.444-5.095-3.076-7.996-3.272c-2.875-0.193-5.625,1.056-8.443,1.648c-9.569,2.008-19.003-3.616-26.641-9.72
		c-4.664-3.724-10.033-7.987-15.884-6.831c-4.121,0.814-7.206,4.152-9.98,7.305c-6.806,7.732-13.614,15.465-20.423,23.197
		c-1.394,1.584-2.97,3.272-5.059,3.574c-2.013,0.291-3.944-0.786-5.691-1.822c-22.323-13.23-42.044-31.12-63.175-46.563
		c-4.952-3.617-9.905-7.239-14.636-11.142c-5.655-4.664-13.214-14.312-20.818-15.532c-6.097-0.975-10.75,3.785-17.1,1.971
		c-13.074-3.737-13.236-22.749-21.293-31.618c-3.141-3.454-7.363-5.711-10.924-8.731c-5.834-4.944-7.307-14.811-13.646-19.514
		c-3.65-2.709-7.147-1.548-10.655-3.337c-5.017-2.564-8.085-7.872-13.385-10.192c-8.609-3.774-16.162-0.544-23.768,1.48V840h602.076
		c-0.42-0.353-0.84-0.709-1.276-1.017C586.875,828.905,573.356,805.294,555.534,802.858z"/>
	<path fill="#4F81A8" d="M1754.367,835.82c-5.402-0.42-11.142-0.563-15.648-3.564c-2.906-1.932-4.973-4.856-7.402-7.356
		c-16.114-16.568-43.293-11.604-65.823-16.745c-12.56-2.866-15.841-14.521-25.639-21.352c-9.412-6.554-21.87-8.788-32.812-7.875
		c-10.066,0.84-19.355,1.735-25.582-8.729c-3.381-5.675-4.154-12.953-8.891-17.55c-6.171-5.98-17.033-5.376-22.431-12.059
		c-3.349-4.148-4.356-10.806-9.435-12.446c-5.688-1.839-10.465,4.277-13.88,9.186c-7.224,10.378-17.308,19.148-28.74,24.603
		c-6.059,2.889-8.897,3.158-15.185,1.729c-4.754-1.077-11.299-4.759-16.042-1.884c-8.964,5.445-14.837,10.19-24.995,13.239
		c-6.623,1.987-11.881,5.311-17.229,9.689c-10.582,8.661-29.501,26.551-43.835,26.903c-5.034,0.126-10.403-1.657-14.899,0.597
		c-2.592,1.299-4.395,3.726-6.494,5.722c-6.898,6.555-16.877,8.332-26.031,10.941c-10.185,2.902-19.938,7.133-29.759,11.131h473.612
		C1769.766,837.863,1762.105,836.422,1754.367,835.82z"/>
	<path fill="#4F81A8" d="M1207.843,820.288c-6.181-4.356-16.383-5.7-20.28-12.716c-0.722-1.302-1.209-2.816-2.379-3.742
		c-2.52-2-6.098-0.073-9.16,0.912c-10.207,3.272-20.123-5.064-27.873-12.475c-8.371-7.998-17.043-15.681-25.996-23.023
		c-3.551-2.912-7.453-5.898-12.039-6.207c-3.207-0.213-6.344,0.93-9.271,2.248c-12.357,5.571-22.85,14.49-33.158,23.293
		c-7.99,6.819-15.975,13.636-23.964,20.456c-2.968,2.536-6.081,5.151-9.866,6.122c-11.074,2.851-24.311-8.877-33.079-1.542
		c-2.402,2.007-3.667,5.022-5.454,7.589c-7.564,10.883-21.719,11.576-33.559,13.813c-4.837,0.913-9.341,2.825-13.714,4.983h280.096
		c-1.03-0.907-2.032-1.859-2.968-2.895C1219.881,831.26,1214.344,824.868,1207.843,820.288z"/>
</g>
<path fill="#EFEFEF" d="M1163.537,258.861c0.718,12.908,55.219,35.139,142.705,35.855c87.487,0.717,292.581,0.718,319.113,2.869
	c26.533,2.151,12.191,10.039,30.836,12.908s303.337,4.303,303.337,4.303s51.632,5.02,55.935-32.27
	c4.303-37.29,1.434-53.065-17.928-61.671c-19.362-8.605-252.423-28.685-301.903-27.25s-331.256,12.191-372.872,27.25
	s-28.553,23.665-43.331,22.948c-14.778-0.718-91.511-12.039-112.306,10.474C1146.328,276.79,1163.537,258.861,1163.537,258.861z"/>
<path fill="#D8D8D8" d="M1164.943,262.425c22.109,13.71,80.013,40.294,130.968,40.931s209.554,2.547,237.579,0
	s84.614-5.604,101.543-4.394s15.654,14.349,20.113,16.06s68.789,9.991,115.286,8.717s115.286-0.637,122.293-3.185
	s29.937,0.637,29.937,0.637v-15.287c0,0-29.3,2.548-69.427,2.548s-35.668,0-40.127,0s-3.185-3.185-3.185-3.185
	s-29.938-8.952-67.517-12.119s-69.525-10.174-107.374-6.989s-256.957,2.548-268.422-0.637s-140.765-7.643-163.694-14.013
	S1164.943,262.425,1164.943,262.425z"/>
<path fill="#D8D8D8" d="M-23.197,216.096c0,0,72.612,10.19,101.274,9.554s168.318-4.229,191.083-4.763s37.58-4.791,37.58-4.791
	s-23.567-2.547-29.299-5.732s-216.067-0.857-233.924-2.798s-58.432-14.034-58.432-14.034"/>
<path fill="#D8D8D8" d="M335.457,231.076c0,0,173.165,9.629,199.931,5.604s140.141-18.675,171.352-15.49s31.21,3.185,31.21,3.185
	s92.357,3.921,107.006,4.827s76.923,7.339,89.809,2.816s12.736-1.306,12.736-1.306s-7.004,6.734-14.01,8.797
	s-182.165,1.122-207.643,0s-159.235,6.521-173.885,6.521s-177.07-2.215-194.905-6.521"/>
<g>
	<path fill="#D1EBF2" d="M1002.545,568.481c-4.916-2.1-10.525-0.904-15.873-0.963c-23.242-0.249-38.592-23.035-56.344-38.043
		c-3.374-2.853-7.265-5.588-11.68-5.669c-3.617-0.067-6.982,1.66-10.468,2.625c-14.202,3.939-28.502-4.852-40.625-13.228
		c-18.611-12.855-37.217-25.711-55.826-38.566c-7.287-5.034-14.661-10.115-22.914-13.332c-8.074-3.146-16.742-4.409-25.319-5.649
		c-30.818-4.459-56.725,0.675-86.988,1.77c-22.62,0.82-43.326-11.489-63.125-22.461c-10.039-5.563-21.875-11.011-32.57-6.836
		c-4.312,1.685-7.895,4.778-11.792,7.275c-24.804,15.882-57.388,5.75-84.67-5.35c-5.672-2.31-11.932-4.673-17.752-2.777
		c-3.791,1.234-6.901,4.166-10.775,5.109c-7.878,1.918-14.911-4.737-21.148-9.919c-28.337-23.547-56.434-10.353-88.024-18.359
		c-6.456-1.638-12.458-4.793-18.936-6.355c-10.319-2.489-21.137-0.798-31.618,0.907c-17.122,2.78-34.242,5.563-51.364,8.346
		c-9.375,1.523-18.877,3.082-27.522,7.013c-5.121,2.329-9.963,5.47-15.378,6.893c2.119,2.019,4.264,3.992,5.148,6.725
		c1.618,4.986-1.517,11.044,1.378,15.411c1.825,2.755,5.358,3.685,8.135,5.471c10.445,6.716,9.465,24.799,20.784,29.91
		c0.252,0.112,0.516,0.183,0.773,0.28c9.417-1.086,19.396,4.457,28.6,8.382c31.898,13.604,68.242,7.447,102.898,8.682
		c5.826,0.207,11.803,0.672,17.063,3.184c5.593,2.673,9.93,7.449,15.375,10.414c6.12,3.331,13.242,4.177,20.168,4.961
		c19.373,2.194,38.749,4.39,58.124,6.584c18.869,2.137,34.692,10.602,53.287,12.567c22.43,2.371,45.678,1.593,68.226,2.383
		c38.13,1.329,75.067,5.311,108.371,25.618c11.315,6.901,22.038,15.227,34.689,19.172c11.246,3.508,23.268,3.307,35.048,3.07
		c31.618-0.627,63.234-1.254,94.849-1.881c28.995-0.576,50.426,13.032,78.349,17.604c20.102,3.29,40.477-5.77,56.271-18.628
		c1.197-0.975,2.385-1.966,3.583-2.945c-0.532-0.597-1.097-1.161-1.612-1.772C1008.805,573.109,1006.146,570.019,1002.545,568.481z"
		/>
	<path fill="#D1EBF2" d="M1612.044,497.07c-3.181-0.132-6.675,0.784-9.345-0.946c-3.152-2.041-3.926-7.103-7.559-8.023
		c-1.232-0.311-2.531-0.039-3.791-0.179c-2.346-0.264-4.625-1.938-6.865-1.188c-1.215,0.408-2.149,1.492-3.409,1.744
		c-1.024,0.204-2.071-0.18-3.113-0.238c-2.906-0.168-5.336,2.119-7.14,4.406c-3.213,4.088-7.295,7.618-11.209,11.07
		c-13.527,11.935-41.971,19.135-58.83,27.41c-4.283,2.1-8.746,4.247-13.516,4.325c-3.701,0.062-7.525-1.125-11.025,0.081
		c-4.546,1.568-6.814,6.467-9.574,10.4c-15.297,21.807-50.756,17.579-69.748,36.26c-4.514,4.438-7.99,10.102-13.035,13.788
		c7.357,2.368,13.74,8.167,21.462,8.181c12.653,0.027,21.237-15.361,33.892-15.537c3.925-0.057,7.961,1.408,11.69,0.179
		c5.583-1.843,9.709-7.677,14.967-10.311c8.124-4.071,17.743-6.809,26.255-10.272c22.816-9.277,46.394-17.035,69.042-25.336
		c17.313-6.346,24.743-28.107,43.808-31.615c6.02-1.105,12.408-0.003,18.191-2.004c4.451-1.537,8.097-4.746,11.842-7.69
		c-3.381-0.442-6.668-0.157-10.016-0.913C1620.633,499.671,1616.618,497.258,1612.044,497.07z"/>
	<path fill="#D1EBF2" d="M1897.684,436.073c-2.134-0.465-4.323-0.954-6.479-0.621c-2.884,0.445-5.319,2.293-7.795,3.844
		c-4.938,3.091-10.498,5.177-16.254,6.095c-2.061,0.327-4.266,0.557-5.896,1.864c-1.596,1.285-2.374,3.421-4.065,4.577
		c-2.273,1.557-5.375,0.849-8.029,1.59c-1.914,0.538-3.527,1.809-5.084,3.055c-5.861,4.689-11.785,9.637-17.799,14.658
		c0.576,0.426,1.158,0.838,1.758,1.216c10.739,6.735,24.687,3.343,37.234,5.171c1.831,0.266,3.779,0.635,5.481-0.106
		c1.339-0.588,2.302-1.781,3.533-2.57c1.753-1.12,3.908-1.35,5.974-1.551c10.135-0.985,20.275-1.972,30.409-2.954
		c3.085-0.299,6.221-0.593,9.328-0.579V440.34C1912.453,439.285,1904.956,437.658,1897.684,436.073z"/>
	<path fill="#D1EBF2" d="M1.893,414.853c-0.465,0.151-0.969,0.308-1.447,0.462v52.553c9.23-0.876,18.326-2.019,27.007-4.054
		c9.256-2.167,18.125-6.414,27.363-8.2c5.565-6.318,12.637-11.288,18.172-17.679c8.272-9.558,13.524-22.548,21.565-31.851
		C63.578,405.505,31.652,405.208,1.893,414.853z"/>
</g>
<path fill="#D8D8D8" d="M1042.407,181.701c4.11,9.426,5.48,5.975,9.849,4.39s119.266-2.831,156.301-12.528
	s46.068-23.747,38.424-19.921s-54.508,17.92-70.305,17.575s-124.494-3.193-130.446,3.477
	C1041.609,179.872,1041.609,179.872,1042.407,181.701z"/>
<path fill="#D8D8D8" d="M947.405,222.718c0,0,44.34,7.139,70.786,3.475s29.313-0.805,31.224-5.451s-15.288,1.461-26.115,0
	s-38.853,3.004-54.776-1.776"/>
</svg>
