<?xml version="1.0" encoding="utf-8"?>
<!-- Generator: Adobe Illustrator 16.2.0, SVG Export Plug-In . SVG Version: 6.00 Build 0)  -->
<!DOCTYPE svg PUBLIC "-//W3C//DTD SVG 1.1//EN" "http://www.w3.org/Graphics/SVG/1.1/DTD/svg11.dtd">
<svg version="1.1" id="Layer_1" xmlns="http://www.w3.org/2000/svg" xmlns:xlink="http://www.w3.org/1999/xlink" x="0px" y="0px"
	 width="840px" height="840px" viewBox="0 0 840 840" enable-background="new 0 0 840 840" xml:space="preserve">
<circle fill="#5299FF" cx="418.858" cy="422.18" r="346.256"/>
<path fill="#FFFFFF" d="M489.302,612.138l0.191,0.581c0.261,15.201-4.383,27.265-13.92,36.19
	c-9.544,8.927-22.786,13.388-39.732,13.388c-17.014,0-30.821-5.466-41.429-16.396c-10.606-10.931-15.912-24.998-15.912-42.205
	v-28.041c0-17.138,5.176-31.206,15.524-42.202c10.351-10.996,23.804-16.496,40.363-16.496c17.463,0,31.11,4.481,40.944,13.438
	c9.829,8.958,14.614,21.168,14.357,36.627l-0.195,0.582H461.94c0-9.315-2.232-16.445-6.696-21.395
	c-4.463-4.947-11.417-7.423-20.859-7.423c-8.474,0-15.2,3.444-20.181,10.326s-7.47,15.654-7.47,26.315v28.207
	c0,10.792,2.617,19.628,7.858,26.509c5.239,6.885,12.323,10.325,21.249,10.325c8.86,0,15.41-2.379,19.647-7.133
	c4.234-4.753,6.355-11.819,6.355-21.199H489.302L489.302,612.138z"/>
<path fill="#FFFFFF" d="M616.302,612.138l0.194,0.581c0.257,15.201-4.382,27.265-13.921,36.19
	c-9.542,8.927-22.785,13.388-39.732,13.388c-17.014,0-30.822-5.466-41.428-16.396c-10.609-10.931-15.913-24.998-15.913-42.205
	v-28.041c0-17.138,5.175-31.206,15.524-42.202c10.349-10.996,23.804-16.496,40.361-16.496c17.465,0,31.111,4.481,40.943,13.438
	c9.832,8.958,14.617,21.168,14.359,36.627l-0.194,0.582h-27.553c0-9.315-2.233-16.445-6.695-21.395
	c-4.462-4.947-11.416-7.423-20.86-7.423c-8.475,0-15.201,3.444-20.182,10.326c-4.982,6.882-7.469,15.654-7.469,26.315v28.207
	c0,10.792,2.619,19.628,7.858,26.509c5.239,6.885,12.321,10.325,21.247,10.325c8.863,0,15.411-2.379,19.648-7.133
	c4.234-4.753,6.354-11.819,6.354-21.199H616.302L616.302,612.138z"/>
</svg>
