<?xml version="1.0" encoding="utf-8"?>
<!-- Generator: Adobe Illustrator 16.2.0, SVG Export Plug-In . SVG Version: 6.00 Build 0)  -->
<!DOCTYPE svg PUBLIC "-//W3C//DTD SVG 1.1//EN" "http://www.w3.org/Graphics/SVG/1.1/DTD/svg11.dtd">
<svg version="1.1" id="Layer_1" xmlns="http://www.w3.org/2000/svg" xmlns:xlink="http://www.w3.org/1999/xlink" x="0px" y="0px"
	 width="729px" height="369px" viewBox="0 0 729 369" enable-background="new 0 0 729 369" xml:space="preserve">
<rect fill="#89C4E4" width="729" height="369"/>
<polyline fill="none" stroke="#FFFFFF" stroke-width="5" stroke-miterlimit="10" points="-55,236 116,110 350,236 584,119 782,227 
	"/>
<circle fill="#DFEDF4" stroke="#FFFFFF" stroke-width="5" stroke-miterlimit="10" cx="348.961" cy="234.961" r="100.039"/>
<path fill="#BADEF4" d="M404,261.924c0,6.76-5.479,12.24-12.239,12.24h-58.144c-6.76,0-12.24-5.48-12.24-12.24V176.24
	c0-6.76,5.48-12.24,12.24-12.24h58.144c6.76,0,12.239,5.48,12.239,12.24V261.924z"/>
<g>
	<path fill="#A1C9EB" d="M383.345,290.23c0,7.604-6.166,13.77-13.771,13.77h-65.41c-7.605,0-13.771-6.166-13.771-13.77v-96.395
		c0-7.605,6.165-13.77,13.771-13.77h65.41c7.604,0,13.771,6.165,13.771,13.77V290.23z"/>
	<g>
		<path fill="#FFFFFF" d="M373.017,192.498c0,1.156-1.125,2.104-2.5,2.104h-67.295c-1.375,0-2.5-0.947-2.5-2.104
			c0-1.158,1.125-2.104,2.5-2.104h67.295C371.892,190.395,373.017,191.34,373.017,192.498z"/>
	</g>
	<g>
		<path fill="#FFFFFF" d="M373.017,202.826c0,1.156-1.125,2.104-2.5,2.104h-67.295c-1.375,0-2.5-0.947-2.5-2.104
			c0-1.158,1.125-2.104,2.5-2.104h67.295C371.892,200.723,373.017,201.668,373.017,202.826z"/>
	</g>
	<g>
		<path fill="#FFFFFF" d="M342.033,213.152c0,1.158-1.125,2.104-2.5,2.104h-36.311c-1.375,0-2.5-0.945-2.5-2.104
			c0-1.156,1.125-2.104,2.5-2.104h36.311C340.908,211.049,342.033,211.996,342.033,213.152z"/>
	</g>
	<g>
		<path fill="#FFFFFF" d="M373.017,254.068c0,1.375-1.125,2.5-2.5,2.5h-67.295c-1.375,0-2.5-1.125-2.5-2.5v-30.191
			c0-1.375,1.125-2.5,2.5-2.5h67.295c1.375,0,2.5,1.125,2.5,2.5V254.068z"/>
	</g>
	<g>
		<path fill="#A1C9EB" d="M370.087,251.67c0,1.1-0.9,2-2,2h-62.718c-1.1,0-2-0.9-2-2v-25.537c0-1.1,0.9-2,2-2h62.718
			c1.1,0,2,0.9,2,2V251.67z"/>
	</g>
	<g>
		<path fill="#FFFFFF" d="M373.017,264.793c0,1.156-1.125,2.104-2.5,2.104h-67.295c-1.375,0-2.5-0.947-2.5-2.104
			c0-1.158,1.125-2.104,2.5-2.104h67.295C371.892,262.689,373.017,263.635,373.017,264.793z"/>
	</g>
	<g>
		<path fill="#FFFFFF" d="M362.688,275.121c0,1.156-1.125,2.104-2.5,2.104h-56.967c-1.375,0-2.5-0.947-2.5-2.104
			c0-1.158,1.125-2.104,2.5-2.104h56.967C361.563,273.018,362.688,273.963,362.688,275.121z"/>
	</g>
	<path fill="none" stroke="#FFFFFF" stroke-width="2" stroke-miterlimit="10" d="M302.012,247.055
		c8.105-2.225,15.42-17.07,21.66-15.422c6.24,1.65,14.201,20.154,22.09,16.641c7.89-3.516,17.285-19.58,21.014-18.074
		s4.949,7.604,4.949,7.604"/>
	<g>
		<path fill="#FFFFFF" d="M373.017,291.568c0,1.156-1.125,2.104-2.5,2.104h-15.656c-1.375,0-2.5-0.947-2.5-2.104
			c0-1.158,1.125-2.105,2.5-2.105h15.656C371.892,289.463,373.017,290.41,373.017,291.568z"/>
	</g>
</g>
<circle fill="#DFEDF4" stroke="#FFFFFF" stroke-width="5" stroke-miterlimit="10" cx="123.461" cy="108.461" r="82.539"/>
<path fill="#BADEF4" d="M158.75,152.333c0,6.443-5.223,11.667-11.666,11.667H91.667C85.223,164,80,158.776,80,152.333V70.666
	C80,64.223,85.223,59,91.667,59h55.417c6.443,0,11.666,5.223,11.666,11.667V152.333z"/>
<g>
	<path fill="#FFFFFF" d="M152,72.167c0,1.009-1.125,1.833-2.5,1.833h-58c-1.375,0-2.5-0.824-2.5-1.833s1.125-1.833,2.5-1.833h58
		C150.875,70.334,152,71.158,152,72.167z"/>
</g>
<g>
	<path fill="#FFFFFF" d="M152,81.167c0,1.008-1.125,1.833-2.5,1.833h-49c-1.375,0-2.5-0.825-2.5-1.833s1.125-1.833,2.5-1.833h49
		C150.875,79.334,152,80.159,152,81.167z"/>
</g>
<g>
	<path fill="#FFFFFF" d="M125,90.167c0,1.008-1.125,1.833-2.5,1.833h-22c-1.375,0-2.5-0.825-2.5-1.833s1.125-1.833,2.5-1.833h22
		C123.875,88.334,125,89.159,125,90.167z"/>
</g>
<g>
	<path fill="#FFFFFF" d="M134,99.167c0,1.008-1.125,1.833-2.5,1.833h-22c-1.375,0-2.5-0.825-2.5-1.833s1.125-1.833,2.5-1.833h22
		C132.875,97.334,134,98.159,134,99.167z"/>
</g>
<circle fill="#A1C9EB" cx="140.039" cy="71.039" r="33.039"/>
<text transform="matrix(1 0 0 1 112.7798 82.542)" fill="#FFFFFF" font-family="'OpenSans'" font-size="35.7016">&lt;/&gt;</text>
<circle fill="#DFEDF4" stroke="#FFFFFF" stroke-width="5" stroke-miterlimit="10" cx="585.539" cy="120.538" r="91.539"/>
<g>
	<path fill="#FFFFFF" d="M98,99.167c0,1.008-1.125,1.833-2.5,1.833h-4c-1.375,0-2.5-0.825-2.5-1.833s1.125-1.833,2.5-1.833h4
		C96.875,97.334,98,98.159,98,99.167z"/>
</g>
<g>
	<path fill="#FFFFFF" d="M143,108.167c0,1.008-1.125,1.833-2.5,1.833h-40c-1.375,0-2.5-0.825-2.5-1.833s1.125-1.833,2.5-1.833h40
		C141.875,106.334,143,107.159,143,108.167z"/>
</g>
<g>
	<path fill="#FFFFFF" d="M134,117.167c0,1.008-1.125,1.833-2.5,1.833h-31c-1.375,0-2.5-0.825-2.5-1.833s1.125-1.833,2.5-1.833h31
		C132.875,115.334,134,116.159,134,117.167z"/>
</g>
<g>
	<path fill="#FFFFFF" d="M143,126.167c0,1.008-1.125,1.833-2.5,1.833h-40c-1.375,0-2.5-0.825-2.5-1.833s1.125-1.833,2.5-1.833h40
		C141.875,124.334,143,125.159,143,126.167z"/>
</g>
<g>
	<path fill="#FFFFFF" d="M98,135.167c0,1.008-1.125,1.833-2.5,1.833h-4c-1.375,0-2.5-0.825-2.5-1.833s1.125-1.833,2.5-1.833h4
		C96.875,133.334,98,134.159,98,135.167z"/>
</g>
<g>
	<path fill="#FFFFFF" d="M116,144.167c0,1.008-1.125,1.833-2.5,1.833h-22c-1.375,0-2.5-0.825-2.5-1.833s1.125-1.833,2.5-1.833h22
		C114.875,142.334,116,143.159,116,144.167z"/>
</g>
<path fill="#BADEF4" d="M629,171.667c0,7.363-5.97,13.333-13.332,13.333h-63.336c-7.363,0-13.332-5.97-13.332-13.333V78.333
	C539,70.969,544.969,65,552.332,65h63.336C623.03,65,629,70.969,629,78.333V171.667z"/>
<g>
	<circle fill="#A1C9EB" cx="565.982" cy="100.981" r="44.982"/>
	<g>
		<path fill="#FFFFFF" d="M587.854,94.138l-5.953,2.538c0,0-4.099-10.54-15.614-10.637s-15.029,8.1-15.029,8.1l4.294,2.05
			l-13.565,10.345l-1.854-16.786l4.88,2.049c0,0,5.465-10.345,15.712-11.808c10.247-1.464,16.298,1.659,20.495,5.172
			C585.416,88.674,587.854,94.138,587.854,94.138"/>
		<path fill="#FFFFFF" d="M543.841,112.312l5.953-2.537c0,0,4.099,10.54,15.614,10.637s15.029-8.1,15.029-8.1l-4.293-2.05
			l13.564-10.344l1.854,16.785l-4.88-2.049c0,0-5.465,10.345-15.712,11.808c-10.247,1.465-16.298-1.659-20.495-5.172
			C546.28,117.776,543.841,112.312,543.841,112.312"/>
	</g>
</g>
</svg>
