<?xml version="1.0" encoding="utf-8"?>
<!-- Generator: Adobe Illustrator 16.2.0, SVG Export Plug-In . SVG Version: 6.00 Build 0)  -->
<!DOCTYPE svg PUBLIC "-//W3C//DTD SVG 1.1//EN" "http://www.w3.org/Graphics/SVG/1.1/DTD/svg11.dtd">
<svg version="1.1" id="Layer_1" xmlns="http://www.w3.org/2000/svg" xmlns:xlink="http://www.w3.org/1999/xlink" x="0px" y="0px"
	 width="1920px" height="840px" viewBox="0 0 1920 840" enable-background="new 0 0 1920 840" xml:space="preserve">
<polyline fill="#A3D3E8" points="0.359,840.359 1920.359,840.359 1920.359,0.36 0.359,0.36 "/>
<polyline fill="#AEE1ED" points="874.111,870.029 1508.111,-55.3 -49.889,-55.3 -150.889,814.699 -150.889,894.699 "/>
<polyline fill="#D5ECEF" points="409.111,910.199 775.111,-87.8 -167.889,-97.8 -254.889,959.199 "/>
<g opacity="0.1">
	<path d="M1191.989,618.313H729.857c-9.134,0-14.396-2.61-11.805-5.771l65.13-79.454c1.363-1.662,7.693-2.99,14.159-2.99h327.16
		c6.465,0,12.796,1.328,14.158,2.99l65.131,79.454C1206.384,615.701,1201.122,618.313,1191.989,618.313z"/>
</g>
<g>
	<path fill="#FFFFFF" d="M1130.21,518.919H791.637c-3.313,0-6-2.687-6-6V277.07c0-3.314,2.688-6,6-6h338.573c3.313,0,6,2.687,6,6
		v235.849C1136.21,516.232,1133.524,518.919,1130.21,518.919z"/>
</g>
<g opacity="0.8">
	<path fill="#6D6E71" d="M786.613,512.265V277.726c0-3.038,2.462-5.5,5.5-5.5h337.621c3.037,0,5.5,2.462,5.5,5.5v234.538
		c0,3.038-2.463,5.5-5.5,5.5l-337.621,0.001C789.076,517.765,786.613,515.302,786.613,512.265z"/>
</g>
<g>
	<rect x="801.132" y="290.5" fill="#FFFFFF" width="319.584" height="208.988"/>
</g>
<g opacity="0.8">
	<g>
		<path fill="#EDEDED" d="M1204.449,600.139h-3.289v2.353l-62.498-76.242c-1.362-1.662-7.693-2.991-14.158-2.991H797.343
			c-6.465,0-12.795,1.329-14.157,2.991l-60.677,74.02h-5.106v7.074h0.003c0.086,2.375,4.964,4.134,12.453,4.134l462.132-0.001
			c7.508,0,12.389-1.767,12.452-4.149h0.008L1204.449,600.139L1204.449,600.139z"/>
	</g>
	<g>
		<g>
			<path fill="#FFFFFF" d="M1191.989,604.314H729.857c-9.134,0-14.396-2.612-11.805-5.773l65.13-79.454
				c1.363-1.662,7.693-2.991,14.159-2.991h327.16c6.465,0,12.796,1.329,14.158,2.991l65.131,79.454
				C1206.384,601.701,1201.122,604.314,1191.989,604.314z"/>
		</g>
		<g>
			<path fill="#EDEDED" d="M1154.189,567.365H767.658c-2.672,0-4.333-0.675-3.715-1.503l32.67-43.722
				c0.428-0.571,2.561-1.033,4.767-1.033h319.086c2.206,0,4.339,0.462,4.769,1.033l32.671,43.722
				C1158.521,566.69,1156.861,567.365,1154.189,567.365z"/>
		</g>
		<g>
			<path fill="#EDEDED" d="M1018.8,599.493H903.048c-2.996,0-5.244-0.85-5.021-1.888l5.134-24.106
				c0.186-0.871,2.538-1.573,5.256-1.573h105.016c2.72,0,5.071,0.702,5.257,1.573l5.136,24.106
				C1024.043,598.646,1021.796,599.493,1018.8,599.493z"/>
		</g>
		<g>
			<g>
				<path fill="#6D6E71" d="M807.757,545.766h-19.778c-1.228,0-2.466,0.341-2.767,0.76l-4.427,6.152
					c-0.318,0.441,0.45,0.801,1.716,0.801h20.405h20.403c1.268,0,2.486-0.357,2.726-0.801l3.313-6.152
					c0.228-0.42-0.587-0.76-1.813-0.76H807.757z"/>
			</g>
			<g>
				<path fill="#6D6E71" d="M852.645,553.479h-18.111c-1.268,0-2.139-0.303-1.945-0.677l3.277-6.396
					c0.181-0.354,1.32-0.641,2.549-0.641h17.557c1.229,0,2.103,0.286,1.952,0.641l-2.699,6.396
					C855.064,553.176,853.91,553.479,852.645,553.479z"/>
			</g>
			<g>
				<path fill="#6D6E71" d="M881.979,553.479h-18.111c-1.268,0-2.172-0.303-2.024-0.677l2.53-6.396
					c0.14-0.354,1.248-0.641,2.475-0.641h17.559c1.227,0,2.135,0.286,2.025,0.641l-1.951,6.396
					C884.363,553.176,883.244,553.479,881.979,553.479z"/>
			</g>
			<g>
				<path fill="#6D6E71" d="M911.313,553.479H893.2c-1.268,0-2.208-0.303-2.104-0.677l1.783-6.396c0.1-0.354,1.173-0.641,2.4-0.641
					h17.557c1.227,0,2.168,0.286,2.102,0.641l-1.203,6.396C913.662,553.176,912.578,553.479,911.313,553.479z"/>
			</g>
			<g>
				<path fill="#6D6E71" d="M969.98,553.479h-18.113c-1.266,0-2.278-0.303-2.262-0.677l0.289-6.396
					c0.017-0.354,1.023-0.641,2.252-0.641h17.557c1.227,0,2.234,0.286,2.25,0.641l0.289,6.396
					C972.259,553.176,971.246,553.479,969.98,553.479z"/>
			</g>
			<g>
				<path fill="#6D6E71" d="M940.646,553.479h-18.112c-1.268,0-2.243-0.303-2.183-0.677l1.034-6.396
					c0.06-0.354,1.101-0.641,2.326-0.641h17.558c1.227,0,2.2,0.286,2.176,0.641l-0.458,6.396
					C942.96,553.176,941.912,553.479,940.646,553.479z"/>
			</g>
			<g>
				<path fill="#6D6E71" d="M999.313,553.479h-18.11c-1.267,0-2.313-0.303-2.341-0.677l-0.458-6.396
					c-0.025-0.354,0.947-0.641,2.177-0.641h17.556c1.229,0,2.271,0.286,2.326,0.641l1.035,6.396
					C1001.557,553.176,1000.58,553.479,999.313,553.479z"/>
			</g>
			<g>
				<path fill="#6D6E71" d="M1028.646,553.479h-18.111c-1.266,0-2.35-0.303-2.42-0.677l-1.205-6.396
					c-0.066-0.354,0.875-0.641,2.102-0.641h17.559c1.228,0,2.302,0.286,2.398,0.641l1.782,6.396
					C1030.855,553.176,1029.914,553.479,1028.646,553.479z"/>
			</g>
			<g>
				<path fill="#6D6E71" d="M1057.98,553.479h-18.111c-1.268,0-2.385-0.303-2.499-0.677l-1.952-6.396
					c-0.107-0.354,0.8-0.641,2.027-0.641h17.557c1.227,0,2.335,0.286,2.475,0.641l2.529,6.396
					C1060.154,553.176,1059.248,553.479,1057.98,553.479z"/>
			</g>
			<g>
				<path fill="#6D6E71" d="M1087.314,553.479h-18.111c-1.268,0-2.42-0.303-2.578-0.677l-2.698-6.396
					c-0.148-0.354,0.727-0.641,1.951-0.641h17.558c1.229,0,2.367,0.286,2.551,0.641l3.274,6.396
					C1089.452,553.176,1088.581,553.479,1087.314,553.479z"/>
			</g>
			<g>
				<path fill="#6D6E71" d="M819.868,564.202h-16.513c-1.32,0-2.188-0.329-1.941-0.735l4.242-6.944
					c0.232-0.385,1.459-0.693,2.735-0.693h15.985c1.278,0,2.149,0.311,1.947,0.693l-3.677,6.944
					C822.433,563.873,821.188,564.202,819.868,564.202z"/>
			</g>
			<g>
				<path fill="#6D6E71" d="M791.654,564.202h-16.771c-1.318,0-2.152-0.329-1.859-0.735l4.995-6.944
					c0.276-0.385,1.535-0.693,2.813-0.693h16.232c1.277,0,2.115,0.311,1.871,0.693l-4.425,6.944
					C794.254,563.873,792.974,564.202,791.654,564.202z"/>
			</g>
			<g>
				<path fill="#6D6E71" d="M848.021,564.202h-16.453c-1.32,0-2.226-0.329-2.021-0.735l3.493-6.944
					c0.193-0.385,1.385-0.693,2.663-0.693h15.928c1.277,0,2.184,0.311,2.021,0.693l-2.933,6.944
					C850.552,563.873,849.342,564.202,848.021,564.202z"/>
			</g>
			<g>
				<path fill="#6D6E71" d="M1118.808,564.202h-16.513c-1.32,0-2.564-0.33-2.78-0.735l-3.686-6.944
					c-0.203-0.385,0.668-0.693,1.943-0.693h15.985c1.278,0,2.504,0.311,2.738,0.693l4.25,6.944
					C1120.996,563.872,1120.128,564.202,1118.808,564.202z"/>
			</g>
			<g>
				<path fill="#6D6E71" d="M1090.595,564.202h-16.77c-1.32,0-2.529-0.33-2.7-0.735l-1.184-2.804
					c-0.167-0.396,0.751-0.716,2.05-0.716h16.497c1.298,0,2.512,0.317,2.712,0.716l1.413,2.804
					C1092.818,563.872,1091.914,564.202,1090.595,564.202z"/>
			</g>
			<g>
				<path fill="#6D6E71" d="M1146.963,564.202h-16.455c-1.317,0-2.6-0.33-2.857-0.735l-1.789-2.804
					c-0.253-0.396,0.596-0.716,1.894-0.716h16.188c1.298,0,2.581,0.317,2.865,0.716l2.018,2.804
					C1149.115,563.872,1148.282,564.202,1146.963,564.202z"/>
			</g>
			<g>
				<path fill="#6D6E71" d="M878.607,564.202h-18.887c-1.318,0-2.259-0.329-2.099-0.735l2.747-6.944
					c0.15-0.385,1.31-0.693,2.588-0.693h18.282c1.276,0,2.219,0.311,2.102,0.693l-2.119,6.944
					C881.099,563.873,879.929,564.202,878.607,564.202z"/>
			</g>
			<g>
				<path fill="#6D6E71" d="M1062.125,564.202h-18.886c-1.32,0-2.491-0.329-2.615-0.735l-2.119-6.944
					c-0.117-0.385,0.824-0.693,2.104-0.693h18.279c1.278,0,2.438,0.311,2.588,0.693l2.747,6.944
					C1064.385,563.872,1063.444,564.202,1062.125,564.202z"/>
			</g>
			<g>
				<path fill="#6D6E71" d="M1114.09,545.766h-19.777c-1.229,0-2.038,0.341-1.813,0.759l3.314,6.153
					c0.236,0.441,1.457,0.803,2.725,0.803h20.404h20.403c1.268,0,2.033-0.359,1.716-0.803l-4.428-6.153
					c-0.301-0.419-1.539-0.759-2.767-0.759H1114.09z"/>
			</g>
			<g>
				<path fill="#6D6E71" d="M807.409,536.472H794.58c-1.18,0-2.362,0.313-2.641,0.7l-4.093,5.688
					c-0.293,0.406,0.454,0.737,1.67,0.737h13.221h13.22c1.216,0,2.398-0.331,2.639-0.737l3.364-5.688
					c0.229-0.387-0.542-0.7-1.723-0.7H807.409z"/>
			</g>
			<g>
				<g>
					<path fill="#6D6E71" d="M872.317,543.599h-17.4c-1.216,0-2.077-0.278-1.922-0.624l2.648-5.912
						c0.146-0.324,1.224-0.591,2.402-0.591h16.887c1.182,0,2.043,0.267,1.927,0.591l-2.117,5.912
						C874.62,543.318,873.533,543.599,872.317,543.599z"/>
				</g>
				<g>
					<path fill="#6D6E71" d="M844.137,543.599h-17.398c-1.216,0-2.044-0.278-1.851-0.624l3.342-5.912
						c0.186-0.324,1.291-0.591,2.472-0.591h16.886c1.18,0,2.011,0.267,1.856,0.591l-2.809,5.912
						C846.472,543.318,845.354,543.599,844.137,543.599z"/>
				</g>
				<g>
					<path fill="#6D6E71" d="M900.498,543.599h-17.4c-1.216,0-2.107-0.278-1.994-0.624l1.959-5.912
						c0.108-0.324,1.153-0.591,2.334-0.591h16.888c1.18,0,2.071,0.267,1.994,0.591l-1.427,5.912
						C902.768,543.318,901.713,543.599,900.498,543.599z"/>
				</g>
				<g>
					<path fill="#6D6E71" d="M928.678,543.599h-17.398c-1.217,0-2.144-0.278-2.068-0.624l1.271-5.912
						c0.068-0.324,1.084-0.591,2.264-0.591h16.886c1.181,0,2.104,0.267,2.063,0.591l-0.736,5.912
						C930.915,543.318,929.895,543.599,928.678,543.599z"/>
				</g>
				<g>
					<path fill="#6D6E71" d="M985.038,543.599h-17.4c-1.216,0-2.207-0.278-2.214-0.624l-0.109-5.912
						c-0.006-0.324,0.945-0.591,2.125-0.591h16.889c1.18,0,2.166,0.267,2.201,0.591l0.645,5.912
						C987.21,543.318,986.254,543.599,985.038,543.599z"/>
				</g>
				<g>
					<path fill="#6D6E71" d="M956.857,543.599h-17.399c-1.216,0-2.174-0.278-2.142-0.624l0.58-5.912
						c0.031-0.324,1.016-0.591,2.194-0.591h16.888c1.18,0,2.135,0.267,2.132,0.591l-0.046,5.912
						C959.063,543.318,958.074,543.599,956.857,543.599z"/>
				</g>
				<g>
					<path fill="#6D6E71" d="M1013.219,543.599H995.82c-1.219,0-2.24-0.278-2.287-0.624l-0.803-5.912
						c-0.043-0.324,0.878-0.591,2.059-0.591h16.887c1.182,0,2.197,0.267,2.271,0.591l1.335,5.912
						C1015.357,543.318,1014.436,543.599,1013.219,543.599z"/>
				</g>
				<g>
					<path fill="#6D6E71" d="M1041.398,543.599h-17.4c-1.216,0-2.272-0.278-2.359-0.624l-1.49-5.912
						c-0.082-0.324,0.809-0.591,1.987-0.591h16.888c1.181,0,2.229,0.267,2.339,0.591l2.024,5.911
						C1043.505,543.318,1042.614,543.599,1041.398,543.599z"/>
				</g>
				<g>
					<path fill="#6D6E71" d="M1069.579,543.599h-17.4c-1.216,0-2.306-0.278-2.433-0.625l-2.182-5.911
						c-0.12-0.324,0.737-0.591,1.918-0.591h16.888c1.181,0,2.259,0.267,2.407,0.591l2.717,5.911
						C1071.652,543.318,1070.795,543.599,1069.579,543.599z"/>
				</g>
				<g>
					<path fill="#6D6E71" d="M1097.759,543.599h-17.398c-1.218,0-2.339-0.278-2.507-0.625l-2.87-5.911
						c-0.158-0.324,0.67-0.591,1.851-0.591h16.886c1.183,0,2.289,0.267,2.479,0.591l3.406,5.911
						C1099.8,543.318,1098.976,543.599,1097.759,543.599z"/>
				</g>
			</g>
			<g>
				<g>
					<path fill="#6D6E71" d="M842.632,526h-15.415c-1.127,0-1.896-0.24-1.716-0.537l1.244-2.051c0.176-0.29,1.219-0.524,2.332-0.524
						h15.201c1.11,0,1.891,0.234,1.738,0.524l-1.063,2.051C844.799,525.76,843.76,526,842.632,526z"/>
				</g>
				<g>
					<path fill="#6D6E71" d="M817.433,526h-15.416c-1.127,0-1.867-0.24-1.653-0.537l1.475-2.051c0.209-0.29,1.279-0.524,2.391-0.524
						h15.201c1.111,0,1.865,0.234,1.682,0.524l-1.295,2.051C819.626,525.76,818.561,526,817.433,526z"/>
				</g>
				<g>
					<path fill="#6D6E71" d="M867.832,526h-15.415c-1.127,0-1.923-0.24-1.776-0.537l1.015-2.051c0.144-0.29,1.159-0.524,2.271-0.524
						h15.201c1.112,0,1.918,0.234,1.8,0.524l-0.834,2.051C869.972,525.76,868.959,526,867.832,526z"/>
				</g>
				<g>
					<path fill="#6D6E71" d="M893.032,526h-15.416c-1.127,0-1.95-0.24-1.837-0.537l0.78-2.051c0.111-0.29,1.104-0.524,2.214-0.524
						h15.2c1.112,0,1.944,0.234,1.859,0.524l-0.604,2.051C895.145,525.76,894.16,526,893.032,526z"/>
				</g>
				<g>
					<path fill="#6D6E71" d="M943.432,526h-15.416c-1.127,0-2.004-0.24-1.958-0.537l0.32-2.051c0.045-0.29,0.983-0.524,2.095-0.524
						h15.201c1.112,0,1.997,0.234,1.977,0.524l-0.142,2.051C945.49,525.76,944.559,526,943.432,526z"/>
				</g>
				<g>
					<path fill="#6D6E71" d="M918.232,526h-15.416c-1.127,0-1.979-0.24-1.897-0.537l0.551-2.051c0.078-0.29,1.042-0.524,2.154-0.524
						h15.201c1.112,0,1.97,0.234,1.917,0.524l-0.373,2.051C920.317,525.76,919.359,526,918.232,526z"/>
				</g>
				<g>
					<path fill="#6D6E71" d="M968.632,526h-15.416c-1.128,0-2.03-0.24-2.018-0.537l0.089-2.051c0.013-0.29,0.924-0.524,2.036-0.524
						h15.2c1.11,0,2.022,0.234,2.037,0.524l0.088,2.051C970.662,525.76,969.759,526,968.632,526z"/>
				</g>
				<g>
					<path fill="#6D6E71" d="M993.831,526h-15.415c-1.128,0-2.059-0.24-2.079-0.537l-0.142-2.051
						c-0.021-0.29,0.865-0.524,1.978-0.524h15.2c1.112,0,2.05,0.234,2.096,0.524l0.32,2.051C995.835,525.76,994.959,526,993.831,526
						z"/>
				</g>
				<g>
					<path fill="#6D6E71" d="M1019.031,526h-15.416c-1.127,0-2.085-0.24-2.139-0.537l-0.373-2.051
						c-0.054-0.29,0.807-0.524,1.918-0.524h15.199c1.112,0,2.076,0.234,2.154,0.524l0.551,2.051
						C1021.008,525.76,1020.158,526,1019.031,526z"/>
				</g>
				<g>
					<path fill="#6D6E71" d="M1044.23,526h-15.416c-1.127,0-2.111-0.24-2.198-0.537l-0.604-2.051
						c-0.086-0.29,0.747-0.524,1.858-0.524h15.201c1.109,0,2.103,0.234,2.213,0.524l0.782,2.051
						C1046.181,525.76,1045.358,526,1044.23,526z"/>
				</g>
				<g>
					<path fill="#6D6E71" d="M1069.431,526h-15.415c-1.128,0-2.14-0.24-2.261-0.537l-0.834-2.051c-0.118-0.29,0.688-0.524,1.8-0.524
						h15.2c1.112,0,2.129,0.234,2.272,0.524l1.014,2.051C1071.354,525.76,1070.558,526,1069.431,526z"/>
				</g>
				<g>
					<path fill="#6D6E71" d="M1094.63,526h-15.415c-1.127,0-2.166-0.24-2.32-0.537l-1.063-2.051c-0.15-0.29,0.629-0.524,1.74-0.524
						h15.201c1.109,0,2.153,0.234,2.331,0.524l1.242,2.051C1096.525,525.76,1095.758,526,1094.63,526z"/>
				</g>
				<g>
					<path fill="#6D6E71" d="M1119.83,526h-15.415c-1.128,0-2.194-0.24-2.381-0.537l-1.297-2.051
						c-0.186-0.29,0.567-0.524,1.682-0.524h15.201c1.11,0,2.182,0.234,2.39,0.524l1.478,2.051
						C1121.698,525.76,1120.958,526,1119.83,526z"/>
				</g>
			</g>
			<g>
				<path fill="#6D6E71" d="M1115.724,536.472h-11.544c-1.181,0-1.946,0.313-1.715,0.7l3.428,5.688
					c0.244,0.406,1.433,0.737,2.646,0.737h11.895h11.896c1.216,0,1.964-0.331,1.67-0.737l-4.091-5.688
					c-0.278-0.387-1.461-0.7-2.641-0.7H1115.724z"/>
			</g>
			<g>
				<g>
					<path fill="#6D6E71" d="M813.053,527.861h-12.355c-1.139,0-2.269,0.29-2.526,0.647l-3.792,5.271
						c-0.271,0.377,0.456,0.685,1.626,0.685h12.719h6.363c1.17,0,2.309-0.308,2.542-0.685l3.262-5.271
						c0.224-0.357-0.52-0.647-1.654-0.647H813.053z"/>
				</g>
				<g>
					<g>
						<path fill="#6D6E71" d="M869.314,534.467h-16.742c-1.17,0-1.996-0.26-1.844-0.579l2.604-5.478
							c0.146-0.305,1.184-0.549,2.319-0.549h16.266c1.137,0,1.964,0.244,1.847,0.548l-2.109,5.479
							C871.533,534.207,870.484,534.467,869.314,534.467z"/>
					</g>
					<g>
						<path fill="#6D6E71" d="M842.2,534.467h-16.742c-1.17,0-1.965-0.26-1.776-0.579l3.246-5.478
							c0.181-0.305,1.247-0.549,2.385-0.549h16.266c1.137,0,1.936,0.244,1.783,0.549l-2.751,5.478
							C844.449,534.207,843.37,534.467,842.2,534.467z"/>
					</g>
					<g>
						<path fill="#6D6E71" d="M896.428,534.467h-16.742c-1.17,0-2.024-0.26-1.909-0.579l1.967-5.479
							c0.107-0.303,1.117-0.548,2.255-0.548h16.266c1.139,0,1.992,0.245,1.911,0.548l-1.472,5.479
							C898.616,534.207,897.598,534.467,896.428,534.467z"/>
					</g>
					<g>
						<path fill="#6D6E71" d="M923.542,534.467H906.8c-1.17,0-2.056-0.26-1.979-0.579l1.327-5.479
							c0.071-0.303,1.054-0.548,2.189-0.548h16.268c1.137,0,2.021,0.245,1.975,0.548l-0.832,5.479
							C925.7,534.207,924.712,534.467,923.542,534.467z"/>
					</g>
					<g>
						<path fill="#6D6E71" d="M977.77,534.467h-16.74c-1.17,0-2.116-0.26-2.113-0.579l0.047-5.479
							c0.002-0.303,0.926-0.548,2.064-0.548h16.265c1.137,0,2.079,0.245,2.104,0.548l0.446,5.479
							C979.867,534.207,978.939,534.467,977.77,534.467z"/>
					</g>
					<g>
						<path fill="#6D6E71" d="M950.656,534.467h-16.742c-1.17,0-2.086-0.26-2.046-0.579l0.687-5.479
							c0.038-0.303,0.991-0.548,2.127-0.548h16.268c1.137,0,2.05,0.245,2.039,0.548l-0.192,5.479
							C952.783,534.207,951.826,534.467,950.656,534.467z"/>
					</g>
					<g>
						<path fill="#6D6E71" d="M1004.884,534.467h-16.742c-1.17,0-2.146-0.26-2.182-0.579l-0.592-5.479
							c-0.033-0.303,0.862-0.548,1.999-0.548h16.266c1.137,0,2.107,0.245,2.167,0.548l1.088,5.479
							C1006.95,534.207,1006.054,534.467,1004.884,534.467z"/>
					</g>
					<g>
						<path fill="#6D6E71" d="M1031.997,534.467h-16.741c-1.171,0-2.178-0.26-2.249-0.579l-1.231-5.479
							c-0.066-0.303,0.8-0.548,1.937-0.548h16.266c1.139,0,2.138,0.245,2.231,0.548l1.727,5.479
							C1034.034,534.207,1033.167,534.467,1031.997,534.467z"/>
					</g>
					<g>
						<path fill="#6D6E71" d="M1059.111,534.467h-16.742c-1.17,0-2.207-0.26-2.316-0.579l-1.871-5.479
							c-0.104-0.303,0.734-0.548,1.871-0.548h16.268c1.137,0,2.162,0.245,2.295,0.548l2.365,5.479
							C1061.118,534.207,1060.281,534.467,1059.111,534.467z"/>
					</g>
					<g>
						<path fill="#6D6E71" d="M1086.225,534.467h-16.739c-1.171,0-2.238-0.26-2.386-0.579l-2.512-5.479
							c-0.139-0.303,0.67-0.548,1.809-0.548h16.266c1.138,0,2.191,0.245,2.359,0.548l3.007,5.479
							C1088.201,534.207,1087.396,534.467,1086.225,534.467z"/>
					</g>
				</g>
				<g>
					<path fill="#6D6E71" d="M1103.857,527.861h-11.12c-1.138,0-1.893,0.29-1.687,0.647l3.031,5.271
						c0.218,0.377,1.343,0.685,2.513,0.685h11.445h17.801c1.171,0,1.898-0.308,1.627-0.685l-3.792-5.271
						c-0.259-0.357-1.389-0.647-2.523-0.647H1103.857z"/>
				</g>
			</g>
			<g>
				<path fill="#6D6E71" d="M1031.539,564.202h-141.23c-1.318,0-2.298-0.329-2.185-0.735l1.936-6.944
					c0.107-0.385,1.229-0.693,2.508-0.693h136.716c1.275,0,2.397,0.311,2.507,0.693l1.936,6.944
					C1033.837,563.873,1032.858,564.202,1031.539,564.202z"/>
			</g>
		</g>
	</g>
</g>
<rect x="798.771" y="290.5" opacity="0.8" fill="#D5ECEF" width="321.942" height="208.988"/>
<rect x="821.186" y="330.222" fill="#808080" width="177.717" height="10.368"/>
<rect x="924.846" y="350.583" fill="#808080" width="105.364" height="8.867"/>
<rect x="827.395" y="369.32" fill="#808080" width="105.246" height="8.872"/>
<rect x="827.395" y="408.548" fill="#808080" width="105.246" height="8.871"/>
<rect x="827.395" y="424.16" fill="#808080" width="105.246" height="8.996"/>
<rect x="941.777" y="424.16" fill="#8FBCCC" width="33.252" height="8.996"/>
<rect x="986.6" y="424.16" fill="#808080" width="33.256" height="8.996"/>
<rect x="944.58" y="409.047" fill="#808080" width="75.273" height="8.869"/>
<rect x="956.151" y="369.32" fill="#808080" width="56.762" height="8.872"/>
<rect x="834.828" y="350.583" fill="#808080" width="30.452" height="8.867"/>
<rect x="878.436" y="350.583" fill="#8FBCCC" width="30.448" height="8.867"/>
<rect x="1018.273" y="330.222" fill="#8FBCCC" width="27.164" height="10.368"/>
<rect x="827.395" y="446.147" fill="#808080" width="33.623" height="8.866"/>
<rect x="872.224" y="446.147" fill="#8FBCCC" width="33.619" height="8.866"/>
<rect x="920.583" y="446.147" fill="#808080" width="54.447" height="8.866"/>
<g opacity="0.1">
	<g>
		<polygon points="833.357,499.488 1119.767,499.488 1119.767,290.5 1083.526,290.5 		"/>
	</g>
</g>
<g>
	<polygon fill="none" stroke="#59AAC6" stroke-width="3" stroke-miterlimit="10" points="546.857,453.965 730.913,441.474 
		745.089,255.887 689.005,369.56 	"/>
	<polygon fill="none" stroke="#59AAC6" stroke-width="3" stroke-miterlimit="10" points="672.306,389.064 731.214,441.348 
		715.394,332.163 	"/>
	<polygon fill="none" stroke="#59AAC6" stroke-width="3" stroke-miterlimit="10" points="547.473,453.726 731.428,441.348 
		615.531,432.25 	"/>
	<polygon fill="none" stroke="#59AAC6" stroke-width="3" stroke-miterlimit="10" points="512.878,372.526 547.637,453.751 
		576.588,358.905 	"/>
	<polygon fill="none" stroke="#59AAC6" stroke-width="3" stroke-miterlimit="10" points="569.413,356.492 672.292,389.377 
		645.652,285.028 	"/>
	<polygon fill="none" stroke="#59AAC6" stroke-width="3" stroke-miterlimit="10" points="646.908,292.517 739.044,286.498 
		666.979,227.638 	"/>
	<polygon fill="none" stroke="#59AAC6" stroke-width="3" stroke-miterlimit="10" points="636.215,206.338 705.341,206.653 
		662.956,230.076 	"/>
	<polygon fill="none" stroke="#59AAC6" stroke-width="3" stroke-miterlimit="10" points="499.508,333.382 496.115,404.343 
		513.872,371.959 	"/>
	<path fill="none" stroke="#59AAC6" stroke-width="3" stroke-miterlimit="10" d="M498.553,332.163l14.451,40.992l62.793-14.087
		l71.691-66.625l20.23-64.263l-31.854-22.493l-54.161,20.269c-17.065,15.872-50.177,47.274-51.371,47.865
		C529.152,274.422,508.467,313.515,498.553,332.163z"/>
	<path fill="none" stroke="#59AAC6" stroke-width="3" stroke-miterlimit="10" d="M549.295,258.525
		c36.982-36.667,84.658-58.332,102.954-39.873c18.285,18.461-1.105,63.321-38.087,99.977
		c-36.982,36.655-84.068,59.514-102.353,41.053C493.514,341.236,512.313,295.181,549.295,258.525z"/>
	<path fill="none" stroke="#59AAC6" stroke-width="3" stroke-miterlimit="10" d="M547.637,453.714l28.727-95.149l95.401,30.648
		C637.27,421.557,598.906,448.9,547.637,453.714z"/>
	<path fill="none" stroke="#59AAC6" stroke-width="3" stroke-miterlimit="10" d="M647.613,292.253l24.492,97.01
		c28.813-30.297,54.675-62.868,67.342-103.155L647.613,292.253z"/>
	<path fill="none" stroke="#59AAC6" stroke-width="3" stroke-miterlimit="10" d="M739.195,286.599
		c9.802-29.582,12.063-72.017-34.155-79.896l-37.925,20.948L739.195,286.599z"/>
	<path fill="none" stroke="#59AAC6" stroke-width="3" stroke-miterlimit="10" d="M496.115,403.916
		c1.356,48.817,36.58,49.547,51.584,49.975l-34.658-80.937L496.115,403.916z"/>
	<path fill="none" stroke="#59AAC6" stroke-width="3" stroke-miterlimit="10" d="M647.75,292.404
		c22.142,13.609,66.765,40.94,67.67,41.443c1.407,0.792,19.238-30.07,23.285-47.512L647.75,292.404z"/>
	<path fill="none" stroke="#59AAC6" stroke-width="3" stroke-miterlimit="10" d="M576.325,358.565l38.401,74.087
		c22.708-12.315,40.488-27.316,56.774-43.389L576.325,358.565z"/>
	<path fill="none" stroke="#59AAC6" stroke-width="3" stroke-miterlimit="10" d="M512.891,373.054l-5.44,64.788
		c10.267,14.024,24.391,15.243,39.207,14.15C535.938,425.314,514.525,371.973,512.891,373.054z"/>
	<path fill="none" stroke="#59AAC6" stroke-width="3" stroke-miterlimit="10" d="M666.889,227.814l76.289,10.706
		c-4.072-17.253-16.575-28.387-37.886-31.867L666.889,227.814z"/>
</g>
<g>
	<g>
		<path fill="none" stroke="#59AAC6" stroke-width="3" stroke-miterlimit="10" d="M1295.514,474.918l13.054,0.119l-0.116,12.9
			l11.941,0.111l0.116-12.898l13.06,0.118l-0.361,39.062l-13.057-0.12l0.119-13.08l-11.942-0.111l-0.12,13.08l-13.054-0.12
			L1295.514,474.918L1295.514,474.918z"/>
		<path fill="none" stroke="#59AAC6" stroke-width="3" stroke-miterlimit="10" d="M1350.615,488.381l-11.496-0.104l0.12-12.954
			l36.05,0.335l-0.123,12.953l-11.495-0.107l-0.243,26.105l-13.056-0.119L1350.615,488.381L1350.615,488.381z"/>
		<path fill="none" stroke="#59AAC6" stroke-width="3" stroke-miterlimit="10" d="M1381.013,475.708l13.612,0.129l8.246,13.802
			l8.49-13.646l13.619,0.124l-0.362,39.061l-13-0.118l0.181-19.361l-9.109,13.807l-0.228-0.004l-8.858-13.97l-0.18,19.356
			l-12.774-0.115L1381.013,475.708z"/>
		<path fill="none" stroke="#59AAC6" stroke-width="3" stroke-miterlimit="10" d="M1431.479,476.178l13.063,0.119l-0.241,26.149
			l18.359,0.172l-0.12,12.908l-31.421-0.292L1431.479,476.178z"/>
	</g>
	<path fill="none" stroke="#59AAC6" stroke-width="3" stroke-miterlimit="10" d="M1343.934,626.383l33.917,0.313l0.241-26.308
		l-36.266-0.337L1343.934,626.383z M1276.175,530.932l16.738,209.636l83.612,24.043l84.117-22.48l20.637-209.3L1276.175,530.932z
		 M1444.76,728.642l-68.021,18.185l0.246-26.659l-0.04,0.011l-52.491-15.095l-3.3-41.284l25.79,0.24l1.712,21.417l28.539,7.991
		l0.037-0.011l0.381-41.051l-57.412-0.53l-6.212-77.752l64.343,0.598l0.238-25.694l83.823,0.777L1444.76,728.642z"/>
	<path opacity="0.8" fill="none" stroke="#59AAC6" stroke-width="3" stroke-miterlimit="10" enable-background="new    " d="
		M1409.236,652.678l-31.623-0.292l-0.381,41.052l28.713-7.467L1409.236,652.678z M1378.57,549.006l-0.238,25.694l64.342,0.594
		l-2.539,25.669l-62.043-0.574l-0.24,26.308l59.701,0.552l-7.778,78.811l-52.788,14.108l-0.246,26.659l68.021-18.185l17.636-178.857
		L1378.57,549.006L1378.57,549.006z"/>
	<g opacity="0.2">
		<polygon fill="none" stroke="#59AAC6" stroke-width="3" stroke-miterlimit="10" points="1378.332,574.7 1313.989,574.104 
			1320.201,651.854 1377.613,652.386 1377.851,626.695 1343.934,626.383 1341.826,600.052 1378.092,600.389 		"/>
		<polygon fill="none" stroke="#59AAC6" stroke-width="3" stroke-miterlimit="10" points="1377.232,693.436 1377.195,693.446 
			1348.656,685.455 1346.944,664.038 1321.154,663.798 1324.454,705.081 1376.945,720.177 1376.985,720.166 		"/>
	</g>
</g>
<g>
	<g>
		<polygon fill="none" stroke="#59AAC6" stroke-width="3" stroke-miterlimit="10" points="551.543,527.296 551.476,514.988 
			522.127,515.148 522.323,551.124 551.672,550.964 551.604,538.658 534.563,538.75 534.501,527.389 		"/>
		<polygon fill="none" stroke="#59AAC6" stroke-width="3" stroke-miterlimit="10" points="593.131,514.762 563.782,514.923 
			563.851,527.556 576.157,538.524 563.911,538.592 563.979,550.896 593.326,550.738 593.261,538.757 582.064,527.131 
			593.197,527.07 		"/>
		<polygon fill="none" stroke="#59AAC6" stroke-width="3" stroke-miterlimit="10" points="635.732,514.531 606.384,514.69 
			606.453,527.324 618.286,538.295 606.513,538.359 606.581,550.664 635.928,550.506 635.863,538.524 624.193,526.901 
			635.799,526.839 		"/>
	</g>
	<polygon fill="none" stroke="#59AAC6" stroke-width="3" stroke-miterlimit="10" points="502.827,760.916 484.544,567.75 
		673.885,566.721 657.688,760.041 580.269,781.96 	"/>
	<polygon fill="none" stroke="#59AAC6" stroke-width="3" stroke-miterlimit="10" points="580.453,765.517 642.934,747.961 
		656.698,582.907 579.461,583.328 	"/>
	<polygon fill="none" stroke="#59AAC6" stroke-width="3" stroke-miterlimit="10" points="524.46,654.632 526.665,678.288 
		579.848,654.331 579.719,630.625 	"/>
	<polygon fill="none" stroke="#59AAC6" stroke-width="3" stroke-miterlimit="10" points="638.626,604.998 579.719,630.625 
		579.848,654.331 636.72,628.677 	"/>
	<polygon fill="none" stroke="#59AAC6" stroke-width="3" stroke-miterlimit="10" points="580.185,716.257 580.002,716.285 
		553.524,709.329 551.694,690.46 527.899,690.589 531.421,727.764 580.13,740.965 580.319,740.92 	"/>
	<polygon fill="none" stroke="#59AAC6" stroke-width="3" stroke-miterlimit="10" points="579.848,654.331 579.977,677.998 
		608.924,677.84 606.46,708.798 580.184,716.276 580.319,740.938 628.72,727.207 634.705,654.032 	"/>
	<polygon fill="none" stroke="#59AAC6" stroke-width="3" stroke-miterlimit="10" points="579.848,654.331 524.46,654.632 
		526.665,678.288 579.977,677.998 	"/>
	<polygon fill="none" stroke="#59AAC6" stroke-width="3" stroke-miterlimit="10" points="579.71,628.987 579.581,605.32 
		579.34,605.32 519.985,605.643 522.214,629.3 	"/>
	<polygon fill="none" stroke="#59AAC6" stroke-width="3" stroke-miterlimit="10" points="579.581,605.32 579.708,628.69 
		579.71,628.987 636.72,628.677 638.626,604.998 	"/>
</g>
<g>
	<path fill="none" stroke="#59AAC6" stroke-width="3" stroke-miterlimit="10" d="M884.117,41.153h186.82v186.821h-186.82V41.153z"/>
	<path fill="none" stroke="#59AAC6" stroke-width="3" stroke-miterlimit="10" d="M933.239,197.274l14.297-8.652
		c2.758,4.89,5.267,9.028,11.286,9.028c5.769,0,9.404-2.256,9.404-11.034v-59.694h17.558v59.942
		c0,18.184-10.659,26.461-26.21,26.461C945.529,213.325,937.378,206.052,933.239,197.274"/>
	<path fill="none" stroke="#59AAC6" stroke-width="3" stroke-miterlimit="10" d="M995.32,195.393l14.295-8.277
		c3.764,6.146,8.654,10.659,17.307,10.659c7.274,0,11.913-3.637,11.913-8.653c0-6.02-4.765-8.151-12.791-11.662l-4.388-1.882
		c-12.667-5.392-21.069-12.164-21.069-26.459c0-13.168,10.032-23.201,25.709-23.201c11.161,0,19.187,3.888,24.954,14.046
		l-13.669,8.777c-3.01-5.392-6.271-7.523-11.285-7.523c-5.142,0-8.402,3.261-8.402,7.523c0,5.268,3.262,7.4,10.784,10.661
		l4.39,1.881c14.924,6.396,23.325,12.916,23.325,27.588c0,15.803-12.416,24.454-29.094,24.454
		C1010.996,213.326,1000.461,205.551,995.32,195.393"/>
</g>
<g>
	<path fill="none" stroke="#59AAC6" stroke-width="3" stroke-miterlimit="10" d="M1243.93,251.772c0,0-10.637,6.185,7.568,8.279
		c22.056,2.516,33.328,2.155,57.631-2.446c0,0,6.391,4.008,15.314,7.477C1269.959,288.435,1201.134,263.73,1243.93,251.772"/>
	<path fill="none" stroke="#59AAC6" stroke-width="3" stroke-miterlimit="10" d="M1237.271,221.301c0,0-11.93,8.83,6.289,10.714
		c23.562,2.431,42.166,2.63,74.359-3.569c0,0,4.454,4.514,11.455,6.983C1263.501,254.691,1190.128,236.948,1237.271,221.301"/>
	<path fill="none" stroke="#59AAC6" stroke-width="3" stroke-miterlimit="10" d="M1293.396,169.61
		c13.426,15.457-3.525,29.366-3.525,29.366s34.088-17.598,18.433-39.634c-14.621-20.55-25.835-30.761,34.867-65.966
		C1343.171,93.376,1247.89,117.174,1293.396,169.61"/>
	<path fill="none" stroke="#59AAC6" stroke-width="3" stroke-miterlimit="10" d="M1365.457,274.312c0,0,7.873,6.485-8.667,11.502
		c-31.449,9.527-130.896,12.405-158.521,0.379c-9.931-4.32,8.691-10.316,14.552-11.573c6.106-1.325,9.599-1.08,9.599-1.08
		c-11.043-7.78-71.384,15.277-30.647,21.88C1302.858,313.437,1394.271,287.309,1365.457,274.312"/>
	<path fill="none" stroke="#59AAC6" stroke-width="3" stroke-miterlimit="10" d="M1249.043,189.728c0,0-50.585,12.015-17.913,16.378
		c13.795,1.847,41.295,1.429,66.909-0.717c20.936-1.766,41.955-5.521,41.955-5.521s-7.381,3.161-12.723,6.807
		c-51.367,13.51-150.601,7.225-122.032-6.594C1229.399,188.404,1249.043,189.728,1249.043,189.728"/>
	<path fill="none" stroke="#59AAC6" stroke-width="3" stroke-miterlimit="10" d="M1339.786,240.45
		c52.218-27.134,28.074-53.21,11.222-49.696c-4.129,0.86-5.971,1.604-5.971,1.604s1.532-2.402,4.462-3.442
		c33.338-11.721,58.978,34.568-10.764,52.902C1338.735,241.818,1339.545,241.096,1339.786,240.45"/>
	<path fill="none" stroke="#59AAC6" stroke-width="3" stroke-miterlimit="10" d="M1308.304,36.53c0,0,28.919,28.929-27.429,73.413
		c-45.186,35.684-10.303,56.031-0.02,79.276c-26.375-23.797-45.73-44.745-32.744-64.242
		C1267.171,96.358,1319.972,82.482,1308.304,36.53"/>
	<path fill="none" stroke="#59AAC6" stroke-width="3" stroke-miterlimit="10" d="M1254.174,313.978
		c50.123,3.208,127.092-1.78,128.914-25.497c0,0-3.502,8.991-41.423,16.13c-42.779,8.051-95.545,7.111-126.84,1.952
		C1214.827,306.563,1221.232,311.865,1254.174,313.978"/>
	<path fill="none" stroke="#59AAC6" stroke-width="3" stroke-miterlimit="10" d="M1245.96,404.599
		c-4.729,4.103-9.722,6.404-14.203,6.404c-6.396,0-9.854-3.836-9.854-9.988c0-6.655,3.702-11.521,18.559-11.521h5.498V404.599
		 M1259.007,419.32v-45.566c0-11.641-6.639-19.322-22.646-19.322c-9.346,0-17.53,2.308-24.185,5.25l1.921,8.066
		c5.238-1.923,12.02-3.713,18.674-3.713c9.223,0,13.188,3.713,13.188,11.389v5.759h-4.603c-22.403,0-32.51,8.697-32.51,21.75
		c0,11.266,6.659,17.668,19.198,17.668c8.062,0,14.079-3.326,19.703-8.197l1.021,6.916H1259.007L1259.007,419.32z"/>
	<path fill="none" stroke="#59AAC6" stroke-width="3" stroke-miterlimit="10" d="M1302.549,419.32h-16.271l-19.583-63.734h14.21
		l12.15,39.16l2.701,11.777c6.147-17.028,10.496-34.303,12.67-50.938h13.825C1318.547,376.573,1311.883,399.61,1302.549,419.32"/>
	<path fill="none" stroke="#59AAC6" stroke-width="3" stroke-miterlimit="10" d="M1364.975,404.599
		c-4.738,4.103-9.74,6.404-14.223,6.404c-6.385,0-9.851-3.836-9.851-9.988c0-6.655,3.711-11.521,18.565-11.521h5.507
		L1364.975,404.599 M1378.02,419.32v-45.566c0-11.641-6.655-19.322-22.645-19.322c-9.352,0-17.541,2.308-24.189,5.25l1.916,8.066
		c5.24-1.923,12.034-3.713,18.686-3.713c9.215,0,13.188,3.713,13.188,11.389v5.759h-4.609c-22.411,0-32.514,8.697-32.514,21.75
		c0,11.266,6.654,17.668,19.192,17.668c8.064,0,14.079-3.326,19.714-8.197l1.025,6.916H1378.02L1378.02,419.32z"/>
	<path fill="none" stroke="#59AAC6" stroke-width="3" stroke-miterlimit="10" d="M1194.543,430.144
		c-3.72,5.432-9.729,9.729-16.304,12.157l-6.442-7.579c5.007-2.568,9.3-6.718,11.294-10.583c1.726-3.436,2.439-7.864,2.439-18.457
		V332.92h13.861v71.765C1199.392,418.845,1198.259,424.565,1194.543,430.144"/>
</g>
<g>
	<path fill="none" stroke="#59AAC6" stroke-width="3" stroke-miterlimit="10" d="M1692.243,495.35
		c-12.031,0.058-23.523,1.082-33.634,2.871c-29.783,5.265-35.192,16.276-35.192,36.588v26.824h70.385v8.942h-70.385h-26.415
		c-20.454,0-38.366,12.293-43.97,35.685c-6.46,26.81-6.747,43.538,0,71.533c5.004,20.839,16.952,35.684,37.407,35.684h24.199V681.32
		c0-23.232,20.104-43.726,43.971-43.726h70.303c19.569,0,35.191-16.11,35.191-35.767v-67.021c0-19.072-16.089-33.402-35.191-36.588
		C1716.822,496.208,1704.276,495.294,1692.243,495.35z"/>
	<path fill="none" stroke="#59AAC6" stroke-width="3" stroke-miterlimit="10" d="M1654.18,516.924
		c7.271,0,13.207,6.035,13.207,13.455c0,7.393-5.937,13.37-13.207,13.37c-7.296,0-13.207-5.979-13.207-13.37
		C1640.973,522.959,1646.884,516.924,1654.18,516.924z"/>
	<path fill="none" stroke="#59AAC6" stroke-width="3" stroke-miterlimit="10" d="M1772.883,570.575v31.254
		c0,24.233-20.545,44.626-43.971,44.626h-70.303c-19.258,0-35.192,16.48-35.192,35.768v67.021c0,19.075,16.586,30.296,35.192,35.767
		c22.281,6.554,43.646,7.736,70.303,0c17.719-5.13,35.192-15.454,35.192-35.767V722.42h-70.304v-8.941h70.304h35.191
		c20.457,0,28.08-14.269,35.193-35.685c7.349-22.047,7.036-43.25,0-71.533c-5.056-20.362-14.711-35.685-35.193-35.685
		L1772.883,570.575L1772.883,570.575z"/>
	<path fill="none" stroke="#59AAC6" stroke-width="3" stroke-miterlimit="10" d="M1733.342,740.303
		c7.296,0,13.208,5.978,13.208,13.371c0,7.418-5.912,13.453-13.208,13.453c-7.27,0-13.207-6.035-13.207-13.453
		C1720.135,746.279,1726.072,740.303,1733.342,740.303z"/>
</g>
<g transform="translate(8 8)">
	<path fill="none" stroke="#59AAC6" stroke-width="3" stroke-miterlimit="10" d="M1164.655,768.554v18.101h32.7
		c6.699,0,18.199-4.899,18.601-18.601v-7c0-11.7-9.601-18.6-18.601-18.6h-16.301v-8.4h32.301v-18.2h-31c-8,0-18.7,6.602-18.7,18.9
		v6.3c0,12.3,10.601,18.601,18.7,18.601c22.5,0.101-5.399,0,15.399,0v8.801L1164.655,768.554z M989.456,764.153
		c0,0,17.5-1.5,17.5-24.101c0-22.6-21.2-24.699-21.2-24.699h-38.2v71.3h19.2v-17.199l16.6,17.199h28.4L989.456,764.153z
		 M982.056,749.554h-15.3v-16.3h15.399c0,0,4.301,1.6,4.301,8.1S982.056,749.554,982.056,749.554z M1054.355,715.854h-19.5
		c-13.899,0-18.601,12.602-18.601,18.602v52.199h19.5v-12.5h18.3v12.5h18.9v-52.199
		C1072.956,719.254,1059.155,715.854,1054.355,715.854z M1054.056,753.954h-18.399v-17.301c0,0,0-3.899,6.101-3.899h6.7
		c5.398,0,5.5,3.899,5.5,3.899v17.301H1054.056z"/>
	
		<rect x="1081.855" y="715.854" fill="none" stroke="#59AAC6" stroke-width="3" stroke-miterlimit="10" width="20.3" height="70.801"/>
	<polygon fill="none" stroke="#59AAC6" stroke-width="3" stroke-miterlimit="10" points="1130.655,768.354 1130.655,715.854 
		1110.456,715.854 1110.456,768.354 1110.456,786.653 1130.655,786.653 1157.956,786.653 1157.956,768.354 	"/>
	<path fill="none" stroke="#59AAC6" stroke-width="3" stroke-miterlimit="10" d="M827.056,786.653h79c0,0-15.1-68.899,34.9-96.8
		c10.899-5.301,45.6-25.101,102.399,16.899c1.8-1.5,3.5-2.7,3.5-2.7s-52-51.899-109.899-46.1c-29.101,2.6-64.9,29.1-85.9,64.1
		S827.056,786.653,827.056,786.653z"/>
	<path fill="none" stroke="#59AAC6" stroke-width="3" stroke-miterlimit="10" d="M827.056,786.653h79c0,0-15.1-68.899,34.9-96.8
		c10.899-5.301,45.6-25.101,102.399,16.899c1.8-1.5,3.5-2.7,3.5-2.7s-52-51.899-109.899-46.1c-29.101,2.6-64.9,29.1-85.9,64.1
		S827.056,786.653,827.056,786.653z"/>
	<path fill="none" stroke="#59AAC6" stroke-width="3" stroke-miterlimit="10" d="M827.056,786.653h79c0,0-15.1-68.899,34.9-96.8
		c10.899-5.301,45.6-25.101,102.399,16.899c1.8-1.5,3.5-2.7,3.5-2.7s-52-51.899-109.899-46.1c-29.2,2.6-65,29.1-86,64.1
		S827.056,786.653,827.056,786.653z M991.655,663.554l0.399-6.7c-0.899-0.5-3.399-1.699-9.699-3.5l-0.399,6.602
		C985.256,661.054,988.456,662.254,991.655,663.554z"/>
	<path fill="none" stroke="#59AAC6" stroke-width="3" stroke-miterlimit="10" d="M982.155,684.754l-0.399,6.3
		c3.3,0.101,6.6,0.5,9.899,1.2l0.399-6.2C988.655,685.354,985.355,684.954,982.155,684.754z M945.155,653.554h1l-2-6.1
		c-3.101,0-6.3,0.199-9.601,0.6l1.9,5.9C939.355,653.653,942.256,653.554,945.155,653.554z M949.956,690.354l2.3,6.9
		c2.899-1.4,5.8-2.601,8.7-3.5l-2.2-6.601C955.355,688.153,952.456,689.254,949.956,690.354z M904.556,664.054l-4.5-6.899
		c-2.5,1.301-5.1,2.699-7.8,4.301l4.601,7C899.456,666.854,901.956,665.354,904.556,664.054z M925.056,709.054l4.8,7.2
		c1.7-2.5,3.7-4.8,5.9-7.101l-4.5-6.8C928.956,704.454,926.855,706.754,925.056,709.054z M910.556,741.254l8.101,6.399
		c0.399-3.899,1.101-7.8,2.101-11.699l-7.2-5.7C912.256,733.954,911.355,737.653,910.556,741.254z M866.756,693.754l-7.101-6.2
		c-2.601,2.5-5.101,5-7.399,7.5l7.7,6.601C862.056,698.954,864.355,696.254,866.756,693.754z M836.556,738.454l-11.5-4.2
		c-1.899,4.3-4,9.3-5,12l11.5,4.2C832.855,747.054,834.956,742.153,836.556,738.454z M909.056,766.653
		c0.2,5.301,0.7,9.601,1.2,12.601l12,4.3c-0.9-3.899-1.8-8.3-2.4-13L909.056,766.653z"/>
</g>
<g>
	<path fill="none" stroke="#59AAC6" stroke-width="3" stroke-miterlimit="10" d="M1772.9,190.866
		c-3.939-1.353-7.914-2.604-11.917-3.756c0.663-2.697,1.277-5.407,1.841-8.128c9.021-43.789,3.123-79.067-17.021-90.68
		c-19.311-11.138-50.895,0.476-82.793,28.233c-3.144,2.742-6.218,5.563-9.218,8.46c-2.011-1.927-4.055-3.815-6.135-5.666
		c-33.432-29.684-66.939-42.19-87.062-30.545c-19.294,11.17-25.007,44.335-16.887,85.834c0.808,4.11,1.72,8.199,2.736,12.263
		c-4.741,1.347-9.321,2.781-13.702,4.308c-39.192,13.665-64.224,35.081-64.224,57.294c0,22.943,26.869,45.956,67.693,59.908
		c3.31,1.126,6.647,2.169,10.011,3.13c-1.093,4.377-2.063,8.785-2.908,13.217c-7.742,40.778-1.695,73.157,17.547,84.257
		c19.875,11.46,53.231-0.319,85.715-28.712c2.565-2.244,5.145-4.626,7.725-7.12c3.25,3.136,6.587,6.181,10.007,9.131
		c31.463,27.074,62.537,38.007,81.763,26.877c19.856-11.495,26.31-46.279,17.931-88.599c-0.64-3.232-1.385-6.535-2.22-9.896
		c2.343-0.691,4.642-1.406,6.885-2.149c42.439-14.061,70.052-36.793,70.052-60.043C1838.721,226.19,1812.883,204.629,1772.9,190.866
		L1772.9,190.866z"/>
	<g>
		<path fill="none" stroke="#59AAC6" stroke-width="3" stroke-miterlimit="10" d="M1763.694,293.515
			c-2.022,0.67-4.102,1.317-6.219,1.944c-4.686-14.832-11.01-30.604-18.745-46.897c7.385-15.909,13.463-31.478,18.018-46.215
			c3.786,1.098,7.463,2.253,11.005,3.474c34.259,11.791,55.153,29.229,55.153,42.662
			C1822.906,262.794,1800.338,281.374,1763.694,293.515L1763.694,293.515z M1748.491,323.643
			c3.704,18.713,4.232,35.633,1.777,48.859c-2.204,11.884-6.638,19.808-12.12,22.981c-11.666,6.753-36.616-2.025-63.521-25.179
			c-3.085-2.654-6.193-5.488-9.309-8.486c10.432-11.41,20.854-24.674,31.03-39.402c17.896-1.589,34.805-4.185,50.139-7.729
			C1747.24,317.736,1747.912,320.722,1748.491,323.643L1748.491,323.643z M1594.73,394.317c-11.398,4.026-20.478,4.14-25.964,0.978
			c-11.678-6.735-16.53-32.735-9.909-67.607c0.786-4.122,1.688-8.22,2.702-12.292c15.162,3.354,31.947,5.768,49.89,7.223
			c10.24,14.412,20.967,27.66,31.776,39.262c-2.298,2.222-4.648,4.387-7.054,6.494c-14.363,12.557-28.756,21.462-41.439,25.943
			L1594.73,394.317L1594.73,394.317z M1541.332,293.427c-18.052-6.17-32.959-14.188-43.178-22.938
			c-9.183-7.865-13.818-15.672-13.818-22.007c0-13.478,20.098-30.673,53.617-42.359c4.207-1.461,8.455-2.798,12.742-4.01
			c4.633,15.068,10.709,30.823,18.043,46.755c-7.43,16.168-13.593,32.174-18.269,47.419
			C1547.401,295.41,1544.354,294.456,1541.332,293.427z M1559.232,171.582c-6.959-35.558-2.338-62.379,9.289-69.109
			c12.386-7.169,39.771,3.055,68.636,28.683c1.845,1.639,3.698,3.354,5.555,5.128c-10.754,11.549-21.382,24.697-31.535,39.026
			c-17.411,1.614-34.078,4.206-49.399,7.678C1560.833,179.208,1559.985,175.404,1559.232,171.582L1559.232,171.582L1559.232,171.582
			z M1718.918,211.012c-3.619-6.251-7.371-12.424-11.257-18.514c11.812,1.491,23.128,3.474,33.755,5.899
			c-3.189,10.226-7.166,20.918-11.848,31.879C1726.146,223.785,1722.596,217.362,1718.918,211.012L1718.918,211.012z
			 M1653.799,147.584c7.294,7.902,14.6,16.727,21.785,26.299c-14.577-0.688-29.178-0.691-43.754-0.01
			C1639.021,164.389,1646.39,155.579,1653.799,147.584z M1588.261,211.121c-3.632,6.3-7.116,12.683-10.448,19.144
			c-4.605-10.922-8.547-21.662-11.765-32.032c10.563-2.364,21.826-4.297,33.563-5.763
			C1595.682,198.596,1591.896,204.816,1588.261,211.121z M1599.947,305.626c-12.124-1.354-23.559-3.187-34.117-5.485
			c3.27-10.555,7.295-21.525,12-32.682c3.348,6.466,6.846,12.853,10.494,19.154C1592.047,293.043,1595.922,299.382,1599.947,305.626
			z M1654.236,350.499c-7.496-8.088-14.974-17.034-22.273-26.655c7.087,0.278,14.313,0.419,21.658,0.419
			c7.547,0,15.006-0.169,22.348-0.496C1668.76,333.563,1661.48,342.522,1654.236,350.499z M1729.719,266.891
			c4.947,11.277,9.119,22.188,12.433,32.564c-10.734,2.449-22.323,4.422-34.533,5.887c3.912-6.203,7.702-12.484,11.365-18.838
			C1722.707,280.047,1726.285,273.507,1729.719,266.891z M1705.282,278.604c-5.607,9.742-11.53,19.299-17.761,28.656
			c-10.982,0.783-22.334,1.188-33.9,1.188c-11.521,0-22.725-0.358-33.518-1.058c-6.391-9.336-12.427-18.908-18.093-28.699
			c-5.641-9.739-10.909-19.69-15.794-29.829c4.873-10.142,10.125-20.097,15.747-29.844v0.003
			c5.618-9.749,11.606-19.281,17.949-28.576c11.01-0.832,22.297-1.269,33.709-1.269c11.462,0,22.766,0.439,33.771,1.278
			c6.279,9.281,12.229,18.78,17.838,28.479c5.64,9.726,10.964,19.632,15.959,29.704
			C1716.246,258.812,1710.939,268.807,1705.282,278.604L1705.282,278.604z M1737.907,102.002
			c12.396,7.15,17.217,35.979,9.429,73.788c-0.511,2.463-1.064,4.917-1.665,7.359c-15.357-3.544-32.036-6.182-49.498-7.819
			c-10.173-14.485-20.712-27.656-31.292-39.055c2.771-2.674,5.609-5.277,8.512-7.81
			C1700.724,104.681,1726.268,95.291,1737.907,102.002z"/>
		<path fill="none" stroke="#59AAC6" stroke-width="3" stroke-miterlimit="10" d="M1653.621,215.426
			c18.258,0,33.057,14.801,33.057,33.057c0,18.259-14.799,33.059-33.057,33.059c-18.256,0-33.057-14.8-33.057-33.059
			C1620.564,230.227,1635.365,215.426,1653.621,215.426"/>
	</g>
</g>
<g>
	<path fill="none" stroke="#59AAC6" stroke-width="3" stroke-miterlimit="10" d="M246.709,468.485c-1.387,0-2.767-0.361-3.981-1.065
		l-12.675-7.5c-1.892-1.059-0.968-1.433-0.344-1.652c2.525-0.876,3.037-1.077,5.731-2.604c0.28-0.16,0.653-0.099,0.942,0.072
		l9.738,5.778c0.353,0.197,0.851,0.197,1.176,0l37.965-21.91c0.354-0.202,0.579-0.608,0.579-1.027v-43.813
		c0-0.429-0.226-0.83-0.589-1.047l-37.949-21.893c-0.351-0.205-0.816-0.205-1.17,0l-37.939,21.9c-0.369,0.21-0.603,0.624-0.603,1.04
		v43.813c0,0.419,0.234,0.815,0.599,1.015l10.401,6.009c5.643,2.821,9.098-0.502,9.098-3.841v-43.256
		c0-0.612,0.492-1.095,1.104-1.095h4.813c0.603,0,1.101,0.481,1.101,1.095v43.256c0,7.532-4.102,11.853-11.241,11.853
		c-2.194,0-3.922,0-8.745-2.378l-9.956-5.729c-2.459-1.422-3.982-4.08-3.982-6.927v-43.813c0-2.847,1.522-5.505,3.982-6.92
		l37.964-21.938c2.402-1.358,5.596-1.358,7.979,0l37.963,21.938c2.458,1.422,3.987,4.073,3.987,6.92v43.813
		c0,2.847-1.529,5.493-3.987,6.927l-37.963,21.918C249.493,468.124,248.116,468.485,246.709,468.485"/>
	<path fill="none" stroke="#59AAC6" stroke-width="3" stroke-miterlimit="10" d="M258.436,438.3
		c-16.613,0-20.093-7.624-20.093-14.021c0-0.608,0.489-1.096,1.097-1.096h4.908c0.549,0,1.006,0.396,1.091,0.931
		c0.741,4.996,2.951,7.519,12.997,7.519c7.998,0,11.403-1.81,11.403-6.053c0-2.446-0.965-4.261-13.395-5.479
		c-10.388-1.027-16.813-3.321-16.813-11.632c0-7.66,6.457-12.228,17.283-12.228c12.162,0,18.18,4.221,18.942,13.276
		c0.029,0.313-0.082,0.613-0.29,0.846c-0.208,0.219-0.498,0.351-0.804,0.351h-4.928c-0.51,0-0.961-0.362-1.065-0.857
		c-1.181-5.259-4.056-6.938-11.855-6.938c-8.732,0-9.747,3.042-9.747,5.322c0,2.762,1.197,3.565,12.988,5.125
		c11.667,1.542,17.208,3.727,17.208,11.927C277.363,433.563,270.466,438.3,258.436,438.3"/>
	<path fill="none" stroke="#59AAC6" stroke-width="3" stroke-miterlimit="10" d="M129.146,297.07c0-1.75-0.92-3.357-2.431-4.224
		l-40.25-23.164c-0.681-0.401-1.443-0.609-2.215-0.64h-0.417c-0.77,0.031-1.532,0.239-2.223,0.64l-40.25,23.164
		c-1.5,0.867-2.434,2.475-2.434,4.224l0.089,62.374c0,0.868,0.45,1.674,1.213,2.1c0.747,0.447,1.67,0.447,2.415,0l23.921-13.698
		c1.513-0.898,2.434-2.484,2.434-4.218v-29.141c0-1.737,0.92-3.345,2.427-4.209l10.185-5.866c0.76-0.438,1.589-0.653,2.437-0.653
		c0.83,0,1.681,0.215,2.418,0.653l10.183,5.866c1.507,0.864,2.431,2.472,2.431,4.209v29.141c0,1.734,0.933,3.33,2.437,4.218
		l23.915,13.698c0.75,0.447,1.687,0.447,2.43,0c0.742-0.426,1.208-1.232,1.208-2.1L129.146,297.07z"/>
	<path fill="none" stroke="#59AAC6" stroke-width="3" stroke-miterlimit="10" d="M322.817,211.326
		c-0.753-0.418-1.673-0.41-2.417,0.027c-0.742,0.437-1.199,1.234-1.199,2.097v61.77c0,0.607-0.325,1.17-0.85,1.474
		c-0.526,0.304-1.176,0.304-1.701,0l-10.082-5.809c-1.503-0.868-3.354-0.866-4.858,0.001l-40.266,23.238
		c-1.505,0.869-2.432,2.474-2.432,4.21v46.486c0,1.737,0.926,3.341,2.43,4.211l40.265,23.255c1.505,0.869,3.359,0.869,4.864,0
		l40.271-23.255c1.503-0.87,2.432-2.474,2.432-4.211V228.944c0-1.762-0.954-3.387-2.494-4.246L322.817,211.326z M319.082,329.548
		c0,0.434-0.232,0.835-0.608,1.051l-13.826,7.97c-0.375,0.215-0.838,0.215-1.213,0l-13.825-7.97
		c-0.378-0.216-0.609-0.617-0.609-1.051v-15.964c0-0.433,0.231-0.835,0.608-1.053l13.824-7.984c0.377-0.218,0.84-0.218,1.217,0
		l13.825,7.984c0.375,0.218,0.607,0.62,0.607,1.053V329.548z"/>
	<path fill="none" stroke="#59AAC6" stroke-width="3" stroke-miterlimit="10" d="M456.896,313.166c1.498-0.87,2.42-2.472,2.42-4.204
		v-11.265c0-1.733-0.922-3.336-2.422-4.205l-40.007-23.229c-1.505-0.875-3.362-0.876-4.873-0.006l-40.251,23.238
		c-1.504,0.868-2.431,2.473-2.431,4.209v46.473c0,1.75,0.938,3.361,2.456,4.226l40.001,22.793c1.475,0.842,3.283,0.851,4.767,0.026
		l24.195-13.447c0.77-0.428,1.247-1.232,1.251-2.109c0.006-0.877-0.461-1.688-1.22-2.124l-40.507-23.25
		c-0.757-0.433-1.223-1.239-1.223-2.108V313.62c0-0.869,0.464-1.672,1.219-2.106l12.605-7.268c0.75-0.433,1.677-0.433,2.428,0
		l12.612,7.268c0.753,0.434,1.216,1.237,1.216,2.106v11.459c0,0.87,0.466,1.674,1.221,2.107c0.753,0.435,1.682,0.432,2.433-0.004
		L456.896,313.166z"/>
	<path fill="none" stroke="#59AAC6" stroke-width="3" stroke-miterlimit="10" d="M413.858,310.989c0.29-0.167,0.645-0.167,0.934,0
		l7.726,4.457c0.289,0.167,0.468,0.475,0.468,0.809v8.922c0,0.334-0.179,0.641-0.468,0.809l-7.726,4.458
		c-0.289,0.167-0.644,0.167-0.934,0l-7.721-4.458c-0.289-0.167-0.466-0.474-0.466-0.809v-8.922c0-0.333,0.177-0.641,0.466-0.809
		L413.858,310.989z"/>
	<g>
		<g>
			<defs>
				<path id="SVGID_2_" d="M147.642,300.97l3.122,46.125c0.117,1.726,1.144,3.254,2.696,4.015l41.526,20.358
					c1.551,0.76,3.389,0.637,4.825-0.326l38.39-25.772c1.436-0.965,2.247-2.62,2.13-4.344l-3.143-46.124
					c-0.119-1.725-1.146-3.254-2.697-4.014l-41.528-20.359c-1.551-0.76-3.388-0.635-4.823,0.329l-38.369,25.771
					c-0.717,0.481-1.279,1.136-1.646,1.885C147.756,299.265,147.583,300.109,147.642,300.97"/>
			</defs>
			<clipPath id="SVGID_4_">
				<use xlink:href="#SVGID_2_"  overflow="visible"/>
			</clipPath>
			
				<rect x="128.37" y="258.23" transform="matrix(-0.4402 0.8979 -0.8979 -0.4402 567.7844 288.1126)" clip-path="url(#SVGID_4_)" fill="none" stroke="#59AAC6" stroke-width="3" stroke-miterlimit="10" width="131.419" height="125.64"/>
		</g>
		<g>
			<path id="SVGID_1_" fill="none" stroke="#59AAC6" stroke-width="3" stroke-miterlimit="10" d="M191.667,270.499l-40.041,23.107
				c-1.498,0.864-2.418,2.459-2.418,4.188v46.248c0,1.727,0.92,3.323,2.417,4.189l40.04,23.125c1.498,0.864,3.341,0.864,4.838,0
				l40.031-23.125c1.496-0.866,2.417-2.462,2.417-4.189v-46.25c0-1.727-0.921-3.322-2.418-4.186l-40.03-23.107
				c-0.748-0.432-1.583-0.648-2.417-0.648C193.248,269.851,192.414,270.067,191.667,270.499"/>
		</g>
	</g>
	<g>
		<g>
			<defs>
				<path id="SVGID_6_" d="M213.689,274.16c-0.604-0.176-1.243-0.233-1.888-0.162l-39.413,4.454l-6.553,0.753
					c-0.98,0.111-1.89,0.523-2.62,1.149c-0.241,0.212-0.464,0.449-0.66,0.707l11.981,87.272c0.466,0.087,0.946,0.105,1.432,0.05
					l30.079-3.406l15.88-1.819c0.454-0.052,0.894-0.172,1.308-0.345L213.689,274.16z"/>
			</defs>
			<clipPath id="SVGID_8_">
				<use xlink:href="#SVGID_6_"  overflow="visible"/>
			</clipPath>
			
				<rect x="128.449" y="253.989" transform="matrix(0.8043 -0.5942 0.5942 0.8043 -152.7976 178.0602)" clip-path="url(#SVGID_8_)" fill="none" stroke="#59AAC6" stroke-width="3" stroke-miterlimit="10" width="130.983" height="134.05"/>
		</g>
		<g>
			<path id="SVGID_3_" fill="none" stroke="#59AAC6" stroke-width="3" stroke-miterlimit="10" d="M150.202,346.979
				c0.381,0.5,0.861,0.926,1.422,1.252l34.347,19.837l5.718,3.288c0.855,0.493,1.831,0.702,2.79,0.632
				c0.32-0.027,0.64-0.085,0.951-0.176l42.222-77.314c-0.323-0.347-0.699-0.647-1.122-0.891l-26.217-15.134l-13.854-7.973
				c-0.396-0.228-0.821-0.393-1.257-0.5L150.202,346.979z"/>
		</g>
	</g>
	<g>
		<g>
			<defs>
				<path id="SVGID_10_" d="M191.667,270.499l-40.041,23.107c-1.497,0.864-2.418,2.459-2.418,4.188v46.248
					c0,1.727,0.922,3.323,2.417,4.189l40.04,23.125c1.498,0.864,3.341,0.864,4.838,0l40.031-23.125
					c1.496-0.866,2.417-2.462,2.417-4.189v-46.25c0-1.727-0.921-3.322-2.418-4.186l-40.03-23.107
					c-0.748-0.432-1.583-0.648-2.417-0.648C193.248,269.851,192.414,270.067,191.667,270.499"/>
			</defs>
			<clipPath id="SVGID_12_">
				<use xlink:href="#SVGID_10_"  overflow="visible"/>
			</clipPath>
			<g clip-path="url(#SVGID_12_)">
				<g>
					<defs>
						<polygon id="SVGID_14_" points="190.331,262.005 189.78,262.32 190.515,262.32 						"/>
					</defs>
					<clipPath id="SVGID_16_">
						<use xlink:href="#SVGID_14_"  overflow="visible"/>
					</clipPath>
					
						<rect x="189.78" y="262.005" clip-path="url(#SVGID_16_)" fill="none" stroke="#59AAC6" stroke-width="3" stroke-miterlimit="10" width="0.735" height="0.315"/>
					<g clip-path="url(#SVGID_16_)">
						<polygon id="SVGID_7_" fill="none" stroke="#59AAC6" stroke-width="3" stroke-miterlimit="10" points="190.331,262.005 
							189.78,262.32 190.515,262.32 						"/>
					</g>
				</g>
				<g>
					<path id="SVGID_5_" fill="none" stroke="#59AAC6" stroke-width="3" stroke-miterlimit="10" d="M191.667,270.499l-40.041,23.107
						c-1.497,0.864-2.418,2.459-2.418,4.188v46.248c0,1.727,0.922,3.323,2.417,4.189l40.04,23.125c1.498,0.864,3.341,0.864,4.838,0
						l40.031-23.125c1.496-0.866,2.417-2.462,2.417-4.189v-46.25c0-1.727-0.921-3.322-2.418-4.186l-40.03-23.107
						c-0.748-0.432-1.583-0.648-2.417-0.648C193.248,269.851,192.414,270.067,191.667,270.499"/>
				</g>
			</g>
			<g clip-path="url(#SVGID_12_)">
				<g>
					<defs>
						<path id="SVGID_18_" d="M193.598,269.877c-0.67,0.066-1.329,0.274-1.932,0.622L151.74,293.54l43.042,78.413
							c0.597-0.086,1.181-0.286,1.72-0.597l40.031-23.125c1.236-0.715,2.08-1.93,2.336-3.305l-43.884-74.97
							c-0.324-0.065-0.654-0.097-0.983-0.097C193.867,269.859,193.732,269.865,193.598,269.877"/>
					</defs>
					<clipPath id="SVGID_20_">
						<use xlink:href="#SVGID_18_"  overflow="visible"/>
					</clipPath>
					
						<rect x="151.74" y="269.859" clip-path="url(#SVGID_20_)" fill="none" stroke="#59AAC6" stroke-width="3" stroke-miterlimit="10" width="87.129" height="102.093"/>
				</g>
				<g>
					<path id="SVGID_9_" fill="none" stroke="#59AAC6" stroke-width="3" stroke-miterlimit="10" d="M193.598,269.877
						c-0.67,0.066-1.329,0.274-1.932,0.622L151.74,293.54l43.042,78.413c0.597-0.086,1.181-0.286,1.72-0.597l40.031-23.125
						c1.236-0.715,2.08-1.93,2.336-3.305l-43.884-74.97c-0.324-0.065-0.654-0.097-0.983-0.097
						C193.867,269.859,193.732,269.865,193.598,269.877"/>
				</g>
			</g>
			<g clip-path="url(#SVGID_12_)">
				<g>
					<defs>
						<path id="SVGID_22_" d="M191.667,270.499l-40.041,23.107c-1.497,0.864-2.418,2.459-2.418,4.188v46.248
							c0,1.727,0.922,3.323,2.417,4.189l40.04,23.125c1.498,0.864,3.341,0.864,4.838,0l40.031-23.125
							c1.496-0.866,2.417-2.462,2.417-4.189v-46.25c0-1.727-0.921-3.322-2.418-4.186l-40.03-23.107
							c-0.748-0.432-1.583-0.648-2.417-0.648C193.248,269.851,192.414,270.067,191.667,270.499"/>
					</defs>
					<clipPath id="SVGID_23_">
						<use xlink:href="#SVGID_22_"  overflow="visible"/>
					</clipPath>
					<g clip-path="url(#SVGID_23_)">
						<g>
							<defs>
								<polygon id="SVGID_24_" points="240.367,347.487 240.102,347.033 240.102,347.641 								"/>
							</defs>
							<clipPath id="SVGID_25_">
								<use xlink:href="#SVGID_24_"  overflow="visible"/>
							</clipPath>
							
								<rect x="240.102" y="347.033" clip-path="url(#SVGID_25_)" fill="none" stroke="#59AAC6" stroke-width="3" stroke-miterlimit="10" width="0.265" height="0.607"/>
							<g clip-path="url(#SVGID_25_)">
								<polygon id="SVGID_13_" fill="none" stroke="#59AAC6" stroke-width="3" stroke-miterlimit="10" points="240.367,347.487 
									240.102,347.033 240.102,347.641 								"/>
							</g>
						</g>
						<g>
							<path id="SVGID_11_" fill="none" stroke="#59AAC6" stroke-width="3" stroke-miterlimit="10" d="M191.667,270.499
								l-40.041,23.107c-1.497,0.864-2.418,2.459-2.418,4.188v46.248c0,1.727,0.922,3.323,2.417,4.189l40.04,23.125
								c1.498,0.864,3.341,0.864,4.838,0l40.031-23.125c1.496-0.866,2.417-2.462,2.417-4.189v-46.25
								c0-1.727-0.921-3.322-2.418-4.186l-40.03-23.107c-0.748-0.432-1.583-0.648-2.417-0.648
								C193.248,269.851,192.414,270.067,191.667,270.499"/>
						</g>
					</g>
					<g clip-path="url(#SVGID_23_)">
						<g>
							<defs>
								<path id="SVGID_26_" d="M191.667,270.499l-40.041,23.107c-1.497,0.864-2.418,2.459-2.418,4.188v46.248
									c0,1.727,0.922,3.323,2.417,4.189l40.04,23.125c1.498,0.864,3.341,0.864,4.838,0l40.031-23.125
									c1.496-0.866,2.417-2.462,2.417-4.189v-46.25c0-1.727-0.921-3.322-2.418-4.186l-40.03-23.107
									c-0.748-0.432-1.583-0.648-2.417-0.648C193.248,269.851,192.414,270.067,191.667,270.499"/>
							</defs>
							<clipPath id="SVGID_27_">
								<use xlink:href="#SVGID_26_"  overflow="visible"/>
							</clipPath>
							<g clip-path="url(#SVGID_27_)">
								<g>
									<defs>
										<path id="SVGID_28_" d="M236.634,348.231l-40.082,23.124c-0.551,0.318-1.152,0.518-1.768,0.602l0.798,1.454l44.52-25.77
											v-0.607l-1.101-1.88C238.671,346.434,237.801,347.556,236.634,348.231"/>
									</defs>
									<clipPath id="SVGID_29_">
										<use xlink:href="#SVGID_28_"  overflow="visible"/>
									</clipPath>
									
										<rect x="194.784" y="345.153" clip-path="url(#SVGID_29_)" fill="none" stroke="#59AAC6" stroke-width="3" stroke-miterlimit="10" width="45.317" height="28.258"/>
									<g clip-path="url(#SVGID_29_)">
										<path id="SVGID_17_" fill="none" stroke="#59AAC6" stroke-width="3" stroke-miterlimit="10" d="M236.634,348.231
											l-40.082,23.124c-0.551,0.318-1.152,0.518-1.768,0.602l0.798,1.454l44.52-25.77v-0.607l-1.101-1.88
											C238.671,346.434,237.801,347.556,236.634,348.231"/>
									</g>
								</g>
								<g>
									<path id="SVGID_15_" fill="none" stroke="#59AAC6" stroke-width="3" stroke-miterlimit="10" d="M191.667,270.499
										l-40.041,23.107c-1.497,0.864-2.418,2.459-2.418,4.188v46.248c0,1.727,0.922,3.323,2.417,4.189l40.04,23.125
										c1.498,0.864,3.341,0.864,4.838,0l40.031-23.125c1.496-0.866,2.417-2.462,2.417-4.189v-46.25
										c0-1.727-0.921-3.322-2.418-4.186l-40.03-23.107c-0.748-0.432-1.583-0.648-2.417-0.648
										C193.248,269.851,192.414,270.067,191.667,270.499"/>
								</g>
							</g>
							<g clip-path="url(#SVGID_27_)">
								<g>
									<defs>
										<path id="SVGID_30_" d="M191.667,270.499l-40.041,23.107c-1.497,0.864-2.418,2.459-2.418,4.188v46.248
											c0,1.727,0.922,3.323,2.417,4.189l40.04,23.125c1.498,0.864,3.341,0.864,4.838,0l40.031-23.125
											c1.496-0.866,2.417-2.462,2.417-4.189v-46.25c0-1.727-0.921-3.322-2.418-4.186l-40.03-23.107
											c-0.748-0.432-1.583-0.648-2.417-0.648C193.248,269.851,192.414,270.067,191.667,270.499"/>
									</defs>
									<clipPath id="SVGID_31_">
										<use xlink:href="#SVGID_30_"  overflow="visible"/>
									</clipPath>
									<g clip-path="url(#SVGID_31_)">
										<g>
											<defs>
												<path id="SVGID_32_" d="M215.97,337.205l3.119,46.169c0.043,0.635-0.042,1.262-0.237,1.853l1.657-0.077l-3.542-51.318
													l-0.545-0.267l-2.172,0.161C215.253,334.585,215.878,335.86,215.97,337.205"/>
											</defs>
											<clipPath id="SVGID_33_">
												<use xlink:href="#SVGID_32_"  overflow="visible"/>
											</clipPath>
											
												<rect x="194.784" y="332.737" transform="matrix(-0.4402 0.8979 -0.8979 -0.4402 635.7801 322.225)" clip-path="url(#SVGID_33_)" fill="none" stroke="#59AAC6" stroke-width="3" stroke-miterlimit="10" width="45.32" height="53.129"/>
											<g clip-path="url(#SVGID_33_)">
												<path id="SVGID_21_" fill="none" stroke="#59AAC6" stroke-width="3" stroke-miterlimit="10" d="M236.634,348.231
													l-40.082,23.124c-0.551,0.318-1.152,0.518-1.768,0.602l0.798,1.454l44.52-25.77v-0.607l-1.101-1.88
													C238.671,346.434,237.801,347.556,236.634,348.231"/>
											</g>
										</g>
										<g>
											<path id="SVGID_19_" fill="none" stroke="#59AAC6" stroke-width="3" stroke-miterlimit="10" d="M191.667,270.499
												l-40.041,23.107c-1.497,0.864-2.418,2.459-2.418,4.188v46.248c0,1.727,0.922,3.323,2.417,4.189l40.04,23.125
												c1.498,0.864,3.341,0.864,4.838,0l40.031-23.125c1.496-0.866,2.417-2.462,2.417-4.189v-46.25
												c0-1.727-0.921-3.322-2.418-4.186l-40.03-23.107c-0.748-0.432-1.583-0.648-2.417-0.648
												C193.248,269.851,192.414,270.067,191.667,270.499"/>
										</g>
									</g>
								</g>
								<g>
									<path fill="none" stroke="#59AAC6" stroke-width="3" stroke-miterlimit="10" d="M321.805,90.266V90.26l-4.182,14.824
										L321.805,90.266L321.805,90.266z"/>
									<path fill="none" stroke="#59AAC6" stroke-width="3" stroke-miterlimit="10" d="M343.32,122.45l-4.61-0.027L343.32,122.45z
										"/>
									<path fill="none" stroke="#59AAC6" stroke-width="3" stroke-miterlimit="10" d="M342.132,144.589h0.005l-27.615,0.1
										l27.613-0.1H342.132z"/>
									<path fill="none" stroke="#59AAC6" stroke-width="3" stroke-miterlimit="10" d="M347.923,122.478l-4.61-0.028
										L347.923,122.478z"/>
									<path fill="none" stroke="#59AAC6" stroke-width="3" stroke-miterlimit="10" d="M344.554,142.708l4.811-18.347
										l-4.811,18.351V142.708L344.554,142.708z"/>
									<path fill="none" stroke="#59AAC6" stroke-width="3" stroke-miterlimit="10" d="M446.23,58.219l-8.961,42.129
										L446.23,58.219z"/>
									<path fill="none" stroke="#59AAC6" stroke-width="3" stroke-miterlimit="10" d="M423.197,58.219l-6.805,31.472
										l6.805-31.474V58.219z"/>
									<path fill="none" stroke="#59AAC6" stroke-width="3" stroke-miterlimit="10" d="M444.697,56.323h-19.163
										c-1.063,0-2.118,0.854-2.345,1.893l-6.805,31.475l-6.804,31.475c-0.224,1.038-1.279,1.889-2.342,1.889h-11.627h-1.938
										c-13.419,0-11.867-9.281-9.118-21.996c0.027-0.129,0.056-0.254,0.082-0.385l0.302-1.601c0.02-0.105,0.04-0.207,0.058-0.303
										l0.612-3.264l0.655-3.497c0.199-1.053,0.502-2.596,0.7-3.563l3.092-15.111l3.097-15.11
										c0.214-1.042-0.484-1.899-1.548-1.899h-19.669c-1.063,0-2.115,0.857-2.332,1.896l-4.229,20.063l-4.229,20.064
										c-0.006,0.007-0.007,0.021-0.008,0.029l-0.393,1.865c-4.872,22.24-3.58,43.448,22.895,44.112
										c0.434,0.012,0.769,0.016,0.769,0.016h41.557c1.064,0,2.116-0.854,2.339-1.896l8.962-42.125l8.961-42.129
										c0.223-1.042-0.469-1.895-1.531-1.895V56.323z"/>
									<path fill="none" stroke="#59AAC6" stroke-width="3" stroke-miterlimit="10" d="M521.143,123.273
										c1.063,0,1.761,0.853,1.549,1.895l-1.862,9.095"/>
									<path fill="none" stroke="#59AAC6" stroke-width="3" stroke-miterlimit="10" d="M518.971,143.361l1.86-9.1l-1.862,9.102
										C518.969,143.361,518.971,143.361,518.971,143.361L518.971,143.361z"/>
									<path fill="none" stroke="#59AAC6" stroke-width="3" stroke-miterlimit="10" d="M516.638,145.275
										c0.002,0,0.006-0.002,0.009-0.002c-5.641,0.045-22.587,0.174-35.323,0.174c15.501,0,35.313-0.17,35.313-0.17
										L516.638,145.275z"/>
									<path fill="none" stroke="#59AAC6" stroke-width="3" stroke-miterlimit="10" d="M469.892,111.559
										c-0.016-0.997,1.117-2.713,2.184-2.713l-2.395-0.039C468.604,119.653,469.892,111.559,469.892,111.559L469.892,111.559z"/>
									<path fill="none" stroke="#59AAC6" stroke-width="3" stroke-miterlimit="10" d="M483.069,145.442
										c-0.121,0-0.247,0-0.369,0.003C482.822,145.442,482.948,145.442,483.069,145.442z"/>
									<path fill="none" stroke="#59AAC6" stroke-width="3" stroke-miterlimit="10" d="M521.143,123.273
										c1.063,0,1.761,0.853,1.549,1.895l-1.862,9.095l-0.304,1.483"/>
									<path fill="none" stroke="#59AAC6" stroke-width="3" stroke-miterlimit="10" d="M492.142,145.421h-0.077H492.142z"/>
									<path fill="none" stroke="#59AAC6" stroke-width="3" stroke-miterlimit="10" d="M487.438,145.436h-0.272H487.438z"/>
									<path fill="none" stroke="#59AAC6" stroke-width="3" stroke-miterlimit="10" d="M486.002,145.44
										c-0.153,0-0.302,0-0.451,0.002C485.701,145.44,485.849,145.44,486.002,145.44z"/>
									<path fill="none" stroke="#59AAC6" stroke-width="3" stroke-miterlimit="10" d="M484.542,145.442h-0.397H484.542z"/>
									<path fill="none" stroke="#59AAC6" stroke-width="3" stroke-miterlimit="10" d="M487.163,145.436
										c-0.389,0-0.777,0.003-1.16,0.003C486.385,145.439,486.774,145.436,487.163,145.436z"/>
									<path fill="none" stroke="#59AAC6" stroke-width="3" stroke-miterlimit="10" d="M492.067,145.421
										c-1.552,0.006-3.1,0.012-4.624,0.016C488.968,145.435,490.517,145.427,492.067,145.421z"/>
									<path fill="none" stroke="#59AAC6" stroke-width="3" stroke-miterlimit="10" d="M516.65,145.272L516.65,145.272
										c-4.131,0.034-14.338,0.109-24.517,0.148C502.308,145.383,512.515,145.306,516.65,145.272z"/>
									<path fill="none" stroke="#59AAC6" stroke-width="3" stroke-miterlimit="10" d="M518.971,143.366l1.559-7.62l-1.561,7.625
										C518.969,143.368,518.971,143.368,518.971,143.366L518.971,143.366z"/>
									<path fill="none" stroke="#59AAC6" stroke-width="3" stroke-miterlimit="10" d="M485.553,145.442h-1.012H485.553z"/>
									<path fill="none" stroke="#59AAC6" stroke-width="3" stroke-miterlimit="10" d="M482.695,145.445h-1.367H482.695z"/>
									<path fill="none" stroke="#59AAC6" stroke-width="3" stroke-miterlimit="10" d="M484.143,145.442h-1.078H484.143z"/>
									<path fill="none" stroke="#59AAC6" stroke-width="3" stroke-miterlimit="10" d="M203.83,111.787l2.977-13.195
										l-3.403,15.083l-3.266,15.365L203,115.571C203.22,114.529,203.595,112.827,203.83,111.787L203.83,111.787z"/>
									<path fill="none" stroke="#59AAC6" stroke-width="3" stroke-miterlimit="10" d="M239.458,56.101h-21.045
										c-1.063,0-2.126,0.851-2.364,1.887l-1.994,8.807l-1.996,8.811c-0.234,1.035,0.443,1.885,1.508,1.885h21.207
										c1.064,0,2.12-0.85,2.35-1.889l1.928-8.807l1.93-8.802v-0.002C241.207,56.952,240.523,56.101,239.458,56.101
										L239.458,56.101z"/>
									<path fill="none" stroke="#59AAC6" stroke-width="3" stroke-miterlimit="10" d="M234.877,85.4v-0.003l-6.172,28.556
										L234.877,85.4z"/>
									<path fill="none" stroke="#59AAC6" stroke-width="3" stroke-miterlimit="10" d="M173.744,180.012
										c0,0,10.608,0.137,17.353,0.137c-5.123,0-13.585-0.094-17.361-0.139C173.739,180.01,173.742,180.012,173.744,180.012
										L173.744,180.012z"/>
									<path fill="none" stroke="#59AAC6" stroke-width="3" stroke-miterlimit="10" d="M209.783,85.397l-2.979,13.194
										L209.783,85.397z"/>
									<path fill="none" stroke="#59AAC6" stroke-width="3" stroke-miterlimit="10" d="M233.355,83.508h-21.21
										c-1.063,0-2.127,0.851-2.361,1.889l-2.979,13.196l-2.978,13.196c-0.233,1.038-0.609,2.741-0.828,3.782l-2.864,13.47
										l-2.86,13.469c-0.223,1.038-0.679,2.717-1.02,3.725c0,0-3.963,11.791-10.624,11.656c-0.283-0.006-0.559-0.008-0.831-0.016
										c-3.229-0.061-5.765-0.105-5.765-0.105h-0.005c-1.063-0.017-2.13,0.813-2.379,1.846l-2.199,9.247l-2.196,9.242
										c-0.247,1.033,0.421,1.887,1.478,1.905c3.778,0.045,12.238,0.14,17.36,0.14c16.64,0,25.411-9.219,31.034-35.748
										l6.58-30.448l6.173-28.557C235.105,84.359,234.417,83.508,233.355,83.508L233.355,83.508z"/>
									<path fill="none" stroke="#59AAC6" stroke-width="3" stroke-miterlimit="10" d="M534.657,144.368
										c-1.063,0-1.754-0.854-1.529-1.896l15.955-74.735"/>
									<path fill="none" stroke="#59AAC6" stroke-width="3" stroke-miterlimit="10" d="M556.833,142.468l6.452-31.898
										L556.833,142.468z"/>
									<path fill="none" stroke="#59AAC6" stroke-width="3" stroke-miterlimit="10" d="M533.359,143.419
										c-0.129-0.521-0.055-1.797,0.173-2.84l7.57-35.475l-7.977,37.367c-0.224,1.042,0.466,1.896,1.529,1.896h1.938
										C535.528,144.368,533.488,143.941,533.359,143.419L533.359,143.419z"/>
									<path fill="none" stroke="#59AAC6" stroke-width="3" stroke-miterlimit="10" d="M555.572,143.941
										c-0.58,0.233-1.925,0.427-2.99,0.427h1.938c1.063,0,2.108-0.854,2.318-1.899l0.384-1.895
										C557.01,141.616,556.152,143.706,555.572,143.941L555.572,143.941z"/>
									<path fill="none" stroke="#59AAC6" stroke-width="3" stroke-miterlimit="10" d="M560.064,126.519l2.848-14.077
										c-0.001,0.008-0.002,0.021-0.005,0.026L560.064,126.519L560.064,126.519z"/>
									<path fill="none" stroke="#59AAC6" stroke-width="3" stroke-miterlimit="10" d="M623.02,72.742l0.88,3.632
										c0.241,1.039-0.431,1.883-1.492,1.885"/>
									<path fill="none" stroke="#59AAC6" stroke-width="3" stroke-miterlimit="10" d="M557.218,140.575l2.841-14.053
										L557.218,140.575z"/>
									<path fill="none" stroke="#59AAC6" stroke-width="3" stroke-miterlimit="10" d="M622.146,69.021l0.869,3.721
										L622.146,69.021z"/>
									<path fill="none" stroke="#59AAC6" stroke-width="3" stroke-miterlimit="10" d="M562.91,112.442
										c0.211-1.041,0.562-2.73,0.782-3.763l3.042-14.252l-3.445,16.146L562.91,112.442L562.91,112.442z"/>
									<path fill="none" stroke="#59AAC6" stroke-width="3" stroke-miterlimit="10" d="M549.345,66.511
										c-0.212,1.005-0.482,2.276-0.663,3.117l-7.572,35.477l7.978-37.368L549.345,66.511L549.345,66.511z"/>
									<path fill="none" stroke="#59AAC6" stroke-width="3" stroke-miterlimit="10" d="M623.894,76.374l-0.88-3.632l-0.87-3.721
										l-0.439-1.881c-1.722-6.694-6.779-10.558-17.76-10.558l-17.098-0.018l-15.745-0.019h-1.351h-16.365
										c-1.063,0-2.116,0.849-2.335,1.893h-0.002l-0.782,3.701l-0.925,4.371l-0.257,1.226l-7.978,37.368l-7.572,35.475
										c-0.227,1.043-0.301,2.319-0.172,2.84c0.127,0.521,2.169,0.948,3.232,0.948h15.984c1.063,0,2.411-0.193,2.989-0.427
										c0.581-0.234,1.438-2.325,1.648-3.367l2.841-14.054l2.846-14.051c0.001-0.006,0.002-0.018,0.005-0.027l0.379-1.871
										l3.446-16.144l3.043-14.258c0.226-1.036,1.272-1.884,2.336-1.887l50.29-0.024
										C623.465,78.256,624.136,77.412,623.894,76.374L623.894,76.374z"/>
									<path fill="none" stroke="#59AAC6" stroke-width="3" stroke-miterlimit="10" d="M688.634,43.538
										c-1.064,0.007-2.807,0.015-3.872,0.015h-16.096c-1.065,0-2.429,0.719-3.028,1.596l-35.594,52.146
										c-0.601,0.882-1.287,0.751-1.523-0.285l-2.618-11.489c-0.235-1.038-1.302-1.886-2.365-1.886h-22.882
										c-1.065,0-1.695,0.836-1.404,1.859l10.252,35.918c0.292,1.023,0.314,2.705,0.051,3.736l-4.47,17.384
										c-0.265,1.032,0.39,1.877,1.455,1.877h22.615c1.063,0,2.149-0.845,2.414-1.877l4.471-17.384
										c0.263-1.031,1.004-2.571,1.645-3.422l57.784-76.693c0.642-0.851,0.295-1.542-0.769-1.535L688.634,43.538L688.634,43.538z"
										/>
									<path fill="none" stroke="#59AAC6" stroke-width="3" stroke-miterlimit="10" d="M506.841,88.522l-0.001-0.021
										c-0.133,1.154-1.198,2.002-2.262,2.002h-29.012c-1.004,0-1.513-0.683-1.364-1.523c0.009-0.024,0.012-0.046,0.028-0.068
										c0,0-0.011,0.003-0.021,0.01c0.007-0.034,0.007-0.063,0.017-0.097c0,0,0.055-0.205,0.133-0.494
										c2.771-7.366,8.414-12.202,19.021-12.202C505.323,76.128,507.653,81.963,506.841,88.522L506.841,88.522z M498.331,55.037
										c-37.237,0-46.063,22.603-51.013,45.416c-4.95,23.251-4.523,44.992,34.01,44.992h1.367
										c0.122-0.003,0.246-0.003,0.367-0.003h1.08h0.396h1.012c0.149-0.002,0.3-0.002,0.451-0.002
										c0.385,0,0.772-0.003,1.161-0.003h0.271c1.524-0.002,3.072-0.01,4.623-0.015h0.077c10.179-0.04,20.384-0.117,24.52-0.149
										c1.057-0.016,2.091-0.869,2.309-1.901l1.562-7.625l0.302-1.484l1.861-9.094c0.214-1.043-0.481-1.896-1.548-1.896h-34.643
										c-13.777,0-17.87-3.661-16.362-14.425h55.377l-0.004,0.006c0.014,0,0.027-0.006,0.039-0.006
										c0.88-0.016,1.693-0.622,2.016-1.429c0.063-0.155,0.113-0.317,0.136-0.484l-0.008,0.006
										c8.224-31.014,5.866-51.902-29.359-51.902L498.331,55.037z"/>
									<path fill="none" stroke="#59AAC6" stroke-width="3" stroke-miterlimit="10" d="M322.33,88.405l-0.524,1.854
										c0,0.006-0.002,0.006-0.002,0.006l-4.18,14.818l-4.18,14.816c-0.29,1.023-1.397,1.86-2.462,1.86h-22.133
										c-16.788,0-20.877-13.129-16.788-32.496c4.087-19.81,12.101-32.123,28.623-33.371
										C323.263,54.192,327.782,70.073,322.33,88.405L322.33,88.405z M337.506,120.623c0,0,10.437-25.337,12.807-39.972
										c3.23-19.59-6.576-48.001-44.462-48.001c-37.671,0-54.028,27.124-60.271,56.613c-6.239,29.7,1.938,55.749,39.393,55.535
										l29.549-0.109l27.615-0.1c1.064-0.01,2.152-0.854,2.423-1.881l4.813-18.35c0.268-1.03-0.383-1.877-1.445-1.883l-4.61-0.027
										l-4.61-0.028c-0.904-0.006-1.422-0.591-1.313-1.369c0.021-0.139,0.052-0.282,0.112-0.432L337.506,120.623z"/>
									<path fill="none" stroke="#59AAC6" stroke-width="3" stroke-miterlimit="10" d="M523.988,103.665
										c0,0.701-0.568,1.27-1.271,1.27c-0.701,0-1.271-0.569-1.271-1.27c0-0.7,0.568-1.268,1.271-1.268
										S523.988,102.964,523.988,103.665z"/>
									<path fill="none" stroke="#59AAC6" stroke-width="3" stroke-miterlimit="10" d="M49.865,70.721
										c-10.401,14.95-9.106,34.4-1.16,50.285c0.188,0.38,0.386,0.755,0.581,1.129c0.125,0.238,0.242,0.481,0.371,0.716
										c0.073,0.14,0.156,0.278,0.231,0.412c0.136,0.253,0.274,0.493,0.415,0.741c0.246,0.435,0.499,0.868,0.758,1.3
										c0.144,0.237,0.285,0.476,0.434,0.713c0.285,0.463,0.58,0.92,0.88,1.377c0.124,0.195,0.246,0.39,0.376,0.579
										c0.414,0.618,0.837,1.234,1.274,1.84c0.01,0.016,0.021,0.033,0.036,0.049c0.068,0.097,0.144,0.191,0.215,0.289
										c0.378,0.521,0.768,1.036,1.162,1.545c0.145,0.186,0.29,0.372,0.437,0.557c0.353,0.442,0.711,0.882,1.075,1.32
										c0.135,0.163,0.272,0.329,0.409,0.49c0.488,0.575,0.987,1.147,1.496,1.708c0.009,0.01,0.021,0.022,0.029,0.032
										c0.022,0.024,0.041,0.039,0.059,0.063c0.497,0.543,1.006,1.073,1.521,1.603c0.158,0.165,0.321,0.329,0.487,0.491
										c0.398,0.402,0.804,0.797,1.214,1.19c0.165,0.159,0.33,0.321,0.496,0.472c0.547,0.516,1.1,1.021,1.663,1.515
										c0.01,0.008,0.017,0.016,0.026,0.021c0.096,0.085,0.195,0.165,0.289,0.247c0.496,0.43,1.003,0.855,1.511,1.276
										c0.208,0.168,0.419,0.333,0.626,0.5c0.416,0.333,0.837,0.662,1.26,0.984c0.225,0.171,0.448,0.342,0.674,0.513
										c0.467,0.343,0.938,0.682,1.414,1.014c0.173,0.125,0.341,0.247,0.514,0.365c0.049,0.034,0.094,0.068,0.143,0.102
										c0.451,0.311,0.912,0.609,1.372,0.907c0.197,0.132,0.396,0.269,0.595,0.396c0.706,0.447,1.424,0.89,2.148,1.316
										c0.196,0.113,0.396,0.223,0.594,0.335c0.534,0.309,1.07,0.609,1.613,0.905c0.295,0.158,0.596,0.308,0.894,0.459
										c0.384,0.201,0.764,0.405,1.154,0.599c0.088,0.044,0.18,0.087,0.267,0.13c0.157,0.075,0.315,0.148,0.472,0.228
										c0.605,0.289,1.215,0.573,1.83,0.847c0.132,0.059,0.258,0.116,0.387,0.174c0.705,0.308,1.417,0.604,2.134,0.887
										c0.173,0.07,0.346,0.137,0.521,0.205c0.664,0.256,1.337,0.508,2.014,0.745c0.086,0.031,0.167,0.059,0.253,0.088
										c0.742,0.26,1.49,0.5,2.246,0.735c0.179,0.052,0.36,0.109,0.541,0.162c0.768,0.231,1.526,0.508,2.318,0.654
										c50.302,9.173,64.913-30.229,64.913-30.229c-12.271,15.987-34.055,20.205-54.692,15.51
										c-0.782-0.177-1.54-0.421-2.303-0.646c-0.195-0.057-0.385-0.115-0.575-0.174c-0.745-0.228-1.484-0.468-2.218-0.722
										c-0.101-0.036-0.202-0.073-0.305-0.109c-0.658-0.231-1.309-0.476-1.956-0.726c-0.183-0.072-0.365-0.142-0.549-0.215
										c-0.71-0.28-1.414-0.573-2.111-0.878c-0.143-0.061-0.28-0.125-0.422-0.187c-0.599-0.271-1.19-0.545-1.78-0.828
										c-0.171-0.082-0.342-0.162-0.516-0.248c-0.463-0.226-0.92-0.465-1.377-0.7c-0.306-0.161-0.617-0.313-0.919-0.481
										c-0.559-0.299-1.106-0.609-1.652-0.927c-0.185-0.104-0.371-0.203-0.557-0.311c-0.726-0.426-1.442-0.869-2.151-1.317
										c-0.195-0.124-0.387-0.258-0.58-0.386c-0.515-0.332-1.026-0.669-1.529-1.018c-0.167-0.112-0.328-0.234-0.493-0.347
										c-0.486-0.344-0.968-0.692-1.445-1.045c-0.218-0.161-0.432-0.324-0.642-0.485c-0.438-0.335-0.875-0.673-1.307-1.02
										c-0.194-0.155-0.39-0.311-0.581-0.466c-0.548-0.451-1.091-0.904-1.625-1.37c-0.057-0.049-0.117-0.098-0.179-0.15
										c-0.578-0.508-1.146-1.029-1.709-1.554c-0.164-0.155-0.322-0.307-0.481-0.463c-0.416-0.396-0.825-0.794-1.228-1.204
										c-0.162-0.161-0.323-0.319-0.481-0.479c-0.512-0.524-1.015-1.056-1.508-1.595c-0.023-0.026-0.048-0.051-0.072-0.079
										c-0.521-0.568-1.031-1.151-1.528-1.738c-0.137-0.162-0.268-0.317-0.401-0.476c-0.371-0.448-0.74-0.902-1.101-1.36
										c-0.134-0.163-0.269-0.333-0.401-0.502c-0.435-0.562-0.857-1.122-1.271-1.691c-11.459-15.629-15.575-37.187-6.416-54.89"/>
									<path fill="none" stroke="#59AAC6" stroke-width="3" stroke-miterlimit="10" d="M82.151,58.126
										c-7.521,10.824-7.113,25.315-1.245,36.763c0.984,1.92,2.09,3.781,3.326,5.554c1.128,1.616,2.377,3.537,3.873,4.835
										c0.541,0.598,1.109,1.18,1.687,1.753c0.146,0.148,0.296,0.292,0.446,0.438c0.561,0.545,1.133,1.081,1.723,1.602
										c0.024,0.02,0.047,0.044,0.071,0.061c0.006,0.008,0.012,0.01,0.017,0.018c0.653,0.572,1.329,1.123,2.014,1.666
										c0.152,0.115,0.304,0.237,0.457,0.356c0.688,0.526,1.388,1.045,2.106,1.538c0.022,0.015,0.039,0.03,0.062,0.046
										c0.316,0.219,0.64,0.423,0.96,0.633c0.155,0.101,0.301,0.208,0.456,0.302c0.514,0.329,1.033,0.649,1.563,0.956
										c0.074,0.047,0.147,0.086,0.22,0.128c0.455,0.263,0.917,0.521,1.381,0.771c0.161,0.09,0.325,0.171,0.49,0.256
										c0.319,0.167,0.64,0.338,0.965,0.5c0.049,0.023,0.101,0.045,0.146,0.065c0.663,0.327,1.332,0.642,2.015,0.938
										c0.145,0.064,0.296,0.122,0.444,0.183c0.545,0.23,1.097,0.458,1.651,0.671c0.234,0.089,0.472,0.174,0.706,0.259
										c0.503,0.187,1.008,0.357,1.516,0.528c0.23,0.073,0.456,0.148,0.687,0.219c0.723,0.225,1.438,0.509,2.192,0.634
										c38.838,6.435,47.803-23.468,47.803-23.468c-8.083,11.64-23.735,17.195-40.438,12.859
										c-0.741-0.195-1.473-0.407-2.198-0.636c-0.224-0.067-0.441-0.141-0.662-0.214c-0.517-0.167-1.03-0.345-1.539-0.529
										c-0.232-0.086-0.466-0.171-0.694-0.259c-0.558-0.215-1.109-0.437-1.655-0.668c-0.15-0.063-0.3-0.122-0.446-0.188
										c-0.686-0.299-1.361-0.613-2.026-0.942c-0.343-0.167-0.679-0.344-1.017-0.517c-0.194-0.101-0.391-0.202-0.586-0.302
										c-0.433-0.234-0.862-0.478-1.285-0.725c-0.102-0.058-0.206-0.113-0.309-0.174c-0.525-0.308-1.043-0.624-1.557-0.951
										c-0.158-0.1-0.311-0.209-0.469-0.313c-0.339-0.219-0.677-0.442-1.009-0.667c-0.716-0.495-1.411-1.012-2.099-1.535
										c-0.158-0.126-0.317-0.248-0.473-0.373c-7.312-5.771-13.105-13.661-15.862-22.606c-2.887-9.276-2.265-19.69,2.738-28.141"
										/>
									<path fill="none" stroke="#59AAC6" stroke-width="3" stroke-miterlimit="10" d="M109.307,48.716
										c-4.435,6.526-4.87,14.631-1.794,21.838c3.245,7.65,9.895,13.651,17.654,16.497c0.32,0.119,0.64,0.226,0.964,0.335
										c0.142,0.044,0.283,0.093,0.426,0.134c0.457,0.145,0.91,0.311,1.383,0.4c21.445,4.143,27.261-11.005,28.81-13.234
										c-5.095,7.336-13.657,9.097-24.164,6.547c-0.829-0.202-1.741-0.502-2.542-0.785c-1.026-0.366-2.036-0.783-3.018-1.253
										c-1.867-0.897-3.644-1.984-5.294-3.229c-9.4-7.134-15.24-20.741-9.105-31.824"/>
								</g>
								<g>
									<path fill="none" stroke="#59AAC6" stroke-width="3" stroke-miterlimit="10" d="M309.746,600.094
										c2.925,3.744,6.017,8.95,6.017,16.434c0,18.057-14.15,28.63-34.646,28.63c-5.21,0-9.927-0.649-12.853-1.461l-5.372,8.619
										l15.942,0.975c28.144,1.793,44.733,2.608,44.733,24.236c0,18.713-16.426,29.28-44.733,29.28
										c-29.443,0-40.669-7.483-40.669-20.334c0-7.321,3.256-11.219,8.947-16.595c-5.37-2.271-7.157-6.335-7.157-10.729
										c0-3.581,1.787-6.835,4.719-9.929c2.93-3.087,6.181-6.183,10.085-9.761c-7.968-3.901-13.989-12.363-13.989-24.401
										c0-18.707,12.363-31.554,37.251-31.554c6.994,0,11.226,0.645,14.968,1.625h31.726v13.824L309.746,600.094z
										 M261.593,674.281c-2.117,2.6-4.228,5.36-4.228,8.619c0,6.502,8.291,8.459,19.681,8.459c9.438,0,22.288-0.66,22.288-9.435
										c0-5.213-6.181-5.535-13.993-6.024L261.593,674.281z M279.485,599.604c-8.948,0-15.614,4.396-15.614,14.972
										c0,7.969,4.394,13.5,15.132,13.5c9.105,0,15.29-5.363,15.29-13.83C294.293,604.65,288.758,599.604,279.485,599.604z"/>
									<path fill="none" stroke="#59AAC6" stroke-width="3" stroke-miterlimit="10" d="M332.345,668.295V655.45l8.298-1.136
										c2.278-0.329,2.604-0.814,2.604-3.261v-47.825c0-1.786-0.486-2.931-2.118-3.414l-8.783-3.095l1.789-13.172h33.675v67.506
										c0,2.607,0.16,2.932,2.606,3.261l8.294,1.136v12.845H332.345z M353.333,570.533c-9.273,0-14.64-5.372-14.64-14.648
										c0-9.264,5.365-14.311,14.64-14.311c9.438,0,14.804,5.047,14.804,14.311C368.137,565.161,362.771,570.533,353.333,570.533z
										"/>
									<path fill="none" stroke="#59AAC6" stroke-width="3" stroke-miterlimit="10" d="M443.04,661.988
										c-6.995,3.413-17.243,6.504-26.521,6.504c-19.359,0-26.676-7.801-26.676-26.191v-42.618c0-0.974,0-1.628-1.308-1.628
										H377.15v-14.478c14.321-1.631,20.01-8.79,21.799-26.521h15.457v23.107c0,1.135,0,1.626,1.304,1.626h22.935v16.265h-24.237
										v38.878c0,9.6,2.282,13.337,11.063,13.337c4.561,0,9.272-1.135,13.177-2.6L443.04,661.988z"/>
									<g>
										<path fill="none" stroke="#59AAC6" stroke-width="3" stroke-miterlimit="10" d="M202.005,619.299l-74.381-74.378
											c-4.281-4.284-11.229-4.284-15.515,0l-15.444,15.446l19.592,19.594c4.555-1.539,9.775-0.508,13.404,3.123
											c3.646,3.651,4.673,8.916,3.096,13.486l18.882,18.883c4.57-1.574,9.841-0.557,13.489,3.098
											c5.101,5.099,5.101,13.359,0,18.46c-5.102,5.104-13.363,5.104-18.466,0c-3.837-3.838-4.784-9.472-2.842-14.195
											l-17.609-17.611l-0.004,46.342c1.245,0.615,2.417,1.438,3.454,2.469c5.1,5.099,5.1,13.359,0,18.466
											c-5.101,5.098-13.366,5.098-18.46,0c-5.099-5.105-5.099-13.367,0-18.466c1.261-1.258,2.718-2.21,4.272-2.848v-46.773
											c-1.555-0.636-3.012-1.581-4.272-2.848c-3.863-3.86-4.792-9.529-2.813-14.271l-19.313-19.318l-51.001,50.999
											c-4.286,4.288-4.286,11.235,0,15.52l74.381,74.378c4.282,4.283,11.229,4.283,15.516,0l74.034-74.032
											C206.291,630.533,206.291,623.582,202.005,619.299z"/>
									</g>
								</g>
							</g>
						</g>
					</g>
				</g>
			</g>
		</g>
	</g>
</g>
<g>
	<path fill="none" stroke="#59AAC6" stroke-width="3" stroke-miterlimit="10" d="M57.683,82.438
		c-10.525,15.121-9.224,34.792-1.172,50.86c0.181,0.393,0.389,0.763,0.585,1.142c0.113,0.246,0.242,0.492,0.381,0.733
		c0.059,0.133,0.154,0.279,0.231,0.41c0.13,0.262,0.267,0.504,0.405,0.754c0.259,0.436,0.518,0.879,0.775,1.311
		c0.147,0.242,0.286,0.483,0.449,0.725c0.275,0.465,0.594,0.925,0.879,1.391c0.128,0.198,0.25,0.393,0.388,0.586
		c0.413,0.629,0.828,1.25,1.284,1.862c0,0.018,0.017,0.035,0.035,0.042c0.068,0.104,0.146,0.204,0.214,0.298
		c0.389,0.53,0.776,1.048,1.182,1.561c0.138,0.189,0.292,0.379,0.432,0.564c0.37,0.449,0.732,0.896,1.094,1.34
		c0.139,0.159,0.276,0.329,0.422,0.492c0.483,0.582,0.991,1.159,1.509,1.729c0,0.008,0.017,0.02,0.026,0.034
		c0.017,0.021,0.034,0.043,0.069,0.065c0.5,0.548,1.008,1.085,1.525,1.62c0.164,0.165,0.327,0.323,0.509,0.497
		c0.396,0.401,0.793,0.806,1.216,1.202c0.173,0.165,0.344,0.324,0.509,0.482c0.551,0.518,1.103,1.035,1.681,1.53
		c0.009,0.009,0.018,0.014,0.025,0.021c0.095,0.082,0.198,0.165,0.286,0.246c0.507,0.436,1.017,0.866,1.534,1.294
		c0.207,0.173,0.414,0.336,0.621,0.504c0.43,0.341,0.862,0.667,1.292,0.996c0.225,0.167,0.449,0.34,0.681,0.518
		c0.466,0.348,0.949,0.688,1.422,1.024c0.173,0.125,0.345,0.25,0.526,0.367c0.043,0.038,0.095,0.073,0.138,0.108
		c0.473,0.311,0.922,0.611,1.388,0.917c0.206,0.133,0.405,0.263,0.603,0.396c0.724,0.461,1.448,0.906,2.165,1.336
		c0.206,0.108,0.412,0.225,0.611,0.341c0.534,0.31,1.078,0.616,1.629,0.91c0.301,0.168,0.604,0.315,0.914,0.469
		c0.371,0.204,0.759,0.409,1.156,0.613c0.095,0.038,0.19,0.073,0.275,0.12c0.164,0.073,0.319,0.155,0.474,0.232
		c0.604,0.298,1.225,0.578,1.863,0.863c0.12,0.056,0.249,0.107,0.378,0.173c0.716,0.31,1.431,0.608,2.164,0.896
		c0.173,0.064,0.345,0.142,0.525,0.202c0.665,0.259,1.354,0.513,2.035,0.759c0.087,0.035,0.164,0.061,0.251,0.09
		c0.758,0.259,1.507,0.504,2.275,0.742c0.181,0.052,0.362,0.116,0.551,0.164c0.786,0.236,1.543,0.513,2.345,0.664
		c50.887,9.275,65.671-30.581,65.671-30.581c-12.422,16.166-34.464,20.438-55.343,15.688c-0.776-0.176-1.542-0.421-2.328-0.655
		c-0.181-0.051-0.388-0.111-0.57-0.175c-0.758-0.229-1.508-0.475-2.24-0.725c-0.104-0.034-0.216-0.072-0.319-0.116
		c-0.664-0.228-1.319-0.478-1.974-0.732c-0.182-0.078-0.371-0.144-0.553-0.212c-0.724-0.284-1.439-0.589-2.137-0.896
		c-0.156-0.056-0.286-0.121-0.432-0.181c-0.612-0.281-1.199-0.556-1.793-0.841c-0.181-0.077-0.344-0.163-0.525-0.253
		c-0.466-0.221-0.93-0.466-1.387-0.707c-0.319-0.164-0.63-0.315-0.932-0.483c-0.561-0.301-1.121-0.62-1.682-0.931
		c-0.172-0.117-0.362-0.216-0.561-0.323c-0.724-0.431-1.457-0.875-2.172-1.332c-0.207-0.129-0.396-0.259-0.586-0.393
		c-0.525-0.332-1.042-0.681-1.551-1.026c-0.164-0.116-0.327-0.236-0.5-0.358c-0.491-0.345-0.974-0.693-1.465-1.052
		c-0.208-0.164-0.423-0.327-0.647-0.491c-0.439-0.341-0.879-0.677-1.318-1.031c-0.19-0.159-0.388-0.315-0.578-0.469
		c-0.568-0.458-1.103-0.915-1.646-1.389c-0.052-0.057-0.128-0.104-0.189-0.151c-0.577-0.517-1.155-1.047-1.724-1.574
		c-0.173-0.163-0.318-0.314-0.491-0.47c-0.414-0.405-0.828-0.8-1.232-1.211c-0.173-0.171-0.328-0.332-0.492-0.495
		c-0.519-0.522-1.026-1.061-1.526-1.612c-0.026-0.022-0.052-0.047-0.078-0.078c-0.526-0.578-1.035-1.164-1.543-1.759
		c-0.139-0.159-0.267-0.323-0.405-0.479c-0.371-0.457-0.742-0.918-1.121-1.374c-0.121-0.178-0.259-0.345-0.397-0.518
		c-0.439-0.565-0.862-1.129-1.284-1.711c-11.586-15.806-15.767-37.62-6.5-55.52"/>
	<path fill="none" stroke="#59AAC6" stroke-width="3" stroke-miterlimit="10" d="M90.355,69.693
		c-7.63,10.948-7.208,25.607-1.267,37.192c0.981,1.94,2.103,3.825,3.361,5.612c1.138,1.638,2.396,3.578,3.923,4.893
		c0.534,0.603,1.111,1.19,1.707,1.779c0.147,0.147,0.293,0.29,0.448,0.444c0.57,0.547,1.147,1.086,1.741,1.612
		c0.019,0.022,0.052,0.044,0.07,0.066c0.008,0.004,0.017,0.012,0.017,0.012c0.663,0.586,1.336,1.143,2.035,1.686
		c0.164,0.116,0.31,0.245,0.474,0.362c0.69,0.539,1.396,1.056,2.112,1.564c0.026,0.009,0.042,0.026,0.078,0.04
		c0.31,0.224,0.637,0.431,0.975,0.646c0.146,0.095,0.301,0.206,0.448,0.297c0.525,0.341,1.042,0.659,1.577,0.975
		c0.078,0.038,0.155,0.081,0.232,0.12c0.449,0.272,0.922,0.539,1.397,0.781c0.164,0.099,0.327,0.177,0.491,0.267
		c0.328,0.164,0.654,0.336,0.974,0.504c0.043,0.022,0.104,0.047,0.156,0.07c0.672,0.331,1.353,0.637,2.026,0.943
		c0.163,0.065,0.302,0.121,0.457,0.186c0.553,0.237,1.112,0.47,1.665,0.681c0.25,0.083,0.482,0.18,0.714,0.263
		c0.509,0.181,1.027,0.357,1.535,0.525c0.25,0.083,0.474,0.151,0.698,0.225c0.724,0.229,1.458,0.522,2.224,0.642
		c39.275,6.514,48.361-23.741,48.361-23.741c-8.181,11.785-24.018,17.396-40.913,13.01c-0.759-0.194-1.5-0.41-2.225-0.647
		c-0.232-0.06-0.438-0.133-0.663-0.21c-0.526-0.168-1.052-0.345-1.561-0.535c-0.232-0.085-0.474-0.172-0.706-0.263
		c-0.561-0.22-1.122-0.436-1.665-0.677c-0.163-0.065-0.319-0.121-0.448-0.189c-0.698-0.303-1.388-0.626-2.06-0.948
		c-0.345-0.177-0.681-0.35-1.026-0.53c-0.206-0.104-0.405-0.203-0.586-0.298c-0.457-0.237-0.879-0.487-1.311-0.741
		c-0.103-0.056-0.207-0.108-0.31-0.169c-0.526-0.317-1.069-0.637-1.569-0.97c-0.173-0.098-0.319-0.211-0.483-0.313
		c-0.345-0.22-0.681-0.439-1.035-0.677c-0.716-0.496-1.414-1.021-2.112-1.548c-0.164-0.133-0.318-0.253-0.474-0.383
		c-7.414-5.836-13.276-13.818-16.051-22.856c-2.931-9.389-2.285-19.927,2.767-28.474"/>
	<path fill="none" stroke="#59AAC6" stroke-width="3" stroke-miterlimit="10" d="M117.819,60.171
		c-4.499,6.603-4.932,14.806-1.828,22.09c3.293,7.742,10.025,13.814,17.871,16.689c0.318,0.125,0.637,0.229,0.965,0.341
		c0.146,0.043,0.284,0.09,0.44,0.137c0.457,0.142,0.913,0.314,1.387,0.406c21.697,4.189,27.578-11.134,29.155-13.388
		c-5.164,7.422-13.827,9.203-24.457,6.621c-0.836-0.202-1.75-0.504-2.561-0.797c-1.034-0.366-2.06-0.793-3.06-1.263
		c-1.87-0.909-3.681-2.004-5.354-3.272c-9.517-7.215-15.413-20.978-9.207-32.188"/>
	<path fill="none" stroke="#59AAC6" stroke-width="3" stroke-miterlimit="10" d="M620.583,91.104l0.853,3.595
		c0.241,1.03-0.413,1.862-1.467,1.862"/>
	<path fill="none" stroke="#59AAC6" stroke-width="3" stroke-miterlimit="10" d="M552.135,84.932
		c-0.214,0.996-0.474,2.254-0.646,3.086l-7.508,35.141l7.896-37.021L552.135,84.932z"/>
	<polygon fill="none" stroke="#59AAC6" stroke-width="3" stroke-miterlimit="10" points="327.194,108.448 323.047,123.133 
		327.194,108.453 	"/>
	<path fill="none" stroke="#59AAC6" stroke-width="3" stroke-miterlimit="10" d="M621.436,94.699l-2.164-9.15
		c-1.706-6.621-6.542-9.75-17.412-9.75h-45.715c-1.054,0-2.105,0.475-2.32,1.504l-17.344,82.254
		c-0.225,1.04-0.293,1.779-0.174,2.293c0.122,0.53,2.157,0.43,3.199,0.43h15.835c1.059,0,2.984,0.08,3.542-0.146
		c0.586-0.241,0.847-1.809,1.061-2.846l5.596-28.841l6.836-31.99c0.223-1.026,1.258-1.866,2.31-1.866l45.282-0.031
		C621.013,96.561,621.677,95.725,621.436,94.699"/>
	<path fill="none" stroke="#59AAC6" stroke-width="3" stroke-miterlimit="10" d="M685.854,61.354c-1.061,0.012-20.082,0-20.082,0
		c-1.052,0-2.405,1.13-2.992,2l-35.25,51.861c-0.603,0.871-1.284,0.84-1.516-0.185l-2.605-11.366
		c-0.224-1.03-1.275-1.871-2.343-1.871H598.41c-1.042,0-1.671,0.871-1.396,1.888l10.156,35.605c0.293,1.02,0.318,2.685,0.059,3.704
		l-4.736,18.034c-0.25,1.022,0.396,1.331,1.465,1.331h22.37c1.051,0,2.139-0.305,2.395-1.331l4.739-18.287
		c0.26-1.019,0.991-2.406,1.62-3.256l57.529-76.295c0.647-0.836,0.555-1.837-0.497-1.837L685.854,61.354z"/>
	<path fill="none" stroke="#59AAC6" stroke-width="3" stroke-miterlimit="10" d="M449.965,75.868h-20.448
		c-1.042,0-2.111,0.366-2.318,1.4l-6.758,31.622l-6.733,30.279c-0.217,1.026-1.258,0.956-2.312,0.956h-13.438
		c-13.293,0-11.76-8.399-9.026-20.989c0.034-0.125,8.525-41.868,8.525-41.868c0.19-1.03-0.5-1.4-1.543-1.4h-19.482
		c-1.051,0-2.095,0.371-2.301,1.4l-7.838,41.837c-3.908,22.621-4.026,42.525,22.208,43.182c0.431,0.015,41.421,0,41.421,0
		c1.06,0,2.102-0.348,2.327-1.367l8.896-41.957l8.861-42.131C450.008,76.833,450.322,75.868,449.965,75.868z"/>
	<path fill="none" stroke="#59AAC6" stroke-width="3" stroke-miterlimit="10" d="M246.299,75.798h-21.922
		c-1.052,0-2.112,0.251-2.344,1.285l-3.958,17.116c-0.224,1.013,0.449,1.823,1.509,1.823h20.99c1.062,0,2.112-0.956,2.337-1.979
		l3.811-17.244C246.722,76.799,247.025,75.798,246.299,75.798z"/>
	<path fill="none" stroke="#59AAC6" stroke-width="3" stroke-miterlimit="10" d="M218.162,101.793c-1.043,0-2.112,0.832-2.336,1.861
		l-2.957,13.056l-6.595,30.149c0,0-3.508,16.027-3.844,17.031c0,0-2.955,11.573-10.014,11.108c-3.284-0.217-7.038-0.97-7.038-0.97
		h-0.009c-1.974-0.596-2.112,1.453-2.354,2.477l-4.352,18.783c-0.251,1.029,0.422,1.953,1.465,1.967c0,0,9.439,1.331,16.103,1.331
		h1.095c16.465,0,25.163-9.68,30.723-35.967l6.517-30.426l6.112-28.31c0.225-1.03-0.396-1.987-1.447-1.987"/>
	<path fill="none" stroke="#59AAC6" stroke-width="3" stroke-miterlimit="10" d="M501.705,75.672
		c-36.876,0-45.68,22.792-50.576,45.383c-4.896,23.034-4.479,41.24,33.676,41.24h1.378c15.139,0,33.529,0,33.529,0
		c1.034-0.018,2.069-0.965,2.275-1.987l3.751-14.611c0.217-1.035-0.483-1.339-1.524-1.339h-34.319
		c-12.43,0-16.879-3.83-16.447-12.428c-0.009-0.979,1.113-3.469,2.163-3.469h52.861c2.321-0.013,2.395-1.372,2.395-1.372
		C536.25,102.801,536.601,75.672,501.705,75.672 M511.426,111.86c0,1.142-3.608,0.925-3.608,0.925l-28.748-0.208
		c-0.993,0-1.277-1.393-1.347-2.389c-0.002-0.034,0.072-1.194,0.156-1.482c2.224-7.708,8.853-12.112,19.363-12.112
		c11.825,0,14.352,5.866,14.352,12.371"/>
	<path fill="none" stroke="#59AAC6" stroke-width="3" stroke-miterlimit="10" d="M342.331,138.524c0,0,10.328-25.088,12.671-39.588
		c3.208-19.405-6.499-47.546-44.033-47.546c-37.309,0-53.498,26.866-59.696,56.076c-6.172,29.421,1.908,55.036,39.012,54.829
		l56.632-0.034c1.043-0.004,2.13-0.848,2.397-1.854l4.774-18.18c0.26-1.026-0.388-1.858-1.448-1.863l-4.56-0.034l-4.56-0.021
		c-0.896-0.009-1.415-0.59-1.293-1.362C342.244,138.808,342.262,138.668,342.331,138.524 M322.849,123.133l-4.25,14.524
		c-0.293,1.02-1.492,1.699-2.544,1.699h-21.921c-16.638,0-20.68-12.857-16.638-32.042c4.062-19.611,12.104-31.745,28.465-32.974
		c22.371-1.685,26.948,14.112,21.526,32.271L322.849,123.133z"/>
</g>
<g>
	<path fill="none" stroke="#59AAC6" stroke-width="3" stroke-miterlimit="10" d="M316.989,585.565
		c3.093,3.959,6.365,9.465,6.365,17.378c0,19.096-14.967,30.278-36.641,30.278c-5.51,0-10.5-0.686-13.594-1.546l-5.681,9.117
		l16.859,1.029c29.767,1.897,47.31,2.761,47.31,25.633c0,19.791-17.371,30.968-47.31,30.968c-31.138,0-43.01-7.915-43.01-21.504
		c0-7.745,3.442-11.865,9.463-17.553c-5.68-2.4-7.569-6.697-7.569-11.345c0-3.789,1.89-7.229,4.991-10.5
		c3.098-3.266,6.538-6.537,10.666-10.321c-8.428-4.129-14.795-13.077-14.795-25.811c0-19.782,13.076-33.368,39.395-33.368
		c7.397,0,11.875,0.681,15.833,1.719h33.55v14.62L316.989,585.565z M266.064,664.023c-2.24,2.749-4.473,5.672-4.473,9.118
		c0,6.876,8.77,8.945,20.817,8.945c9.979,0,23.571-0.699,23.571-9.977c0-5.517-6.539-5.855-14.801-6.372L266.064,664.023z
		 M284.987,585.046c-9.464,0-16.515,4.648-16.515,15.834c0,8.426,4.647,14.278,16.004,14.278c9.628,0,16.168-5.674,16.168-14.628
		C300.645,590.384,294.793,585.046,284.987,585.046z"/>
	<path fill="none" stroke="#59AAC6" stroke-width="3" stroke-miterlimit="10" d="M340.889,657.695v-13.588l8.778-1.201
		c2.409-0.347,2.751-0.859,2.751-3.447v-50.58c0-1.887-0.514-3.098-2.24-3.609l-9.289-3.271l1.892-13.931h35.616v71.392
		c0,2.76,0.167,3.101,2.755,3.447l8.774,1.201v13.588H340.889z M363.088,554.302c-9.809,0-15.485-5.682-15.485-15.491
		c0-9.8,5.676-15.136,15.485-15.136c9.979,0,15.657,5.336,15.657,15.136C378.745,548.62,373.067,554.302,363.088,554.302z"/>
	<path fill="none" stroke="#59AAC6" stroke-width="3" stroke-miterlimit="10" d="M457.961,651.022
		c-7.399,3.61-18.238,6.881-28.048,6.881c-20.473,0-28.213-8.252-28.213-27.7V585.13c0-1.029,0-1.722-1.38-1.722h-12.042v-15.313
		c15.145-1.725,21.162-9.296,23.054-28.046h16.347v24.436c0,1.201,0,1.723,1.379,1.723h24.255v17.2h-25.634v41.117
		c0,10.15,2.412,14.104,11.697,14.104c4.822,0,9.807-1.201,13.937-2.748L457.961,651.022z"/>
	<g>
		<path fill="none" stroke="#59AAC6" stroke-width="3" stroke-miterlimit="10" d="M203.044,605.877l-78.665-78.661
			c-4.527-4.533-11.875-4.533-16.408,0l-16.333,16.335l20.72,20.721c4.817-1.627,10.338-0.535,14.176,3.304
			c3.858,3.86,4.941,9.43,3.274,14.262l19.971,19.972c4.832-1.665,10.406-0.589,14.264,3.275c5.394,5.393,5.394,14.13,0,19.523
			c-5.395,5.396-14.132,5.396-19.529,0c-4.056-4.06-5.059-10.017-3.004-15.014l-18.625-18.625l-0.002,49.012
			c1.315,0.648,2.556,1.518,3.651,2.609c5.393,5.391,5.393,14.129,0,19.528c-5.394,5.392-14.135,5.392-19.523,0
			c-5.393-5.399-5.393-14.138,0-19.528c1.333-1.331,2.875-2.336,4.521-3.011v-49.467c-1.646-0.673-3.186-1.673-4.521-3.013
			c-4.085-4.083-5.068-10.077-2.974-15.095l-20.427-20.432l-53.938,53.938c-4.532,4.535-4.532,11.883,0,16.413l78.667,78.662
			c4.528,4.53,11.874,4.53,16.409,0l78.297-78.297C207.575,617.756,207.575,610.404,203.044,605.877z"/>
	</g>
</g>
<polyline opacity="0.4" fill="#BDE6F4" points="0.354,840 1920.36,840 1920.36,-0.002 0.354,-0.002 "/>
</svg>
